%TF.GenerationSoftware,KiCad,Pcbnew,(6.0.6)*%
%TF.CreationDate,2022-08-30T10:43:36-03:00*%
%TF.ProjectId,Shield_Esp32,53686965-6c64-45f4-9573-7033322e6b69,rev?*%
%TF.SameCoordinates,Original*%
%TF.FileFunction,Legend,Bot*%
%TF.FilePolarity,Positive*%
%FSLAX46Y46*%
G04 Gerber Fmt 4.6, Leading zero omitted, Abs format (unit mm)*
G04 Created by KiCad (PCBNEW (6.0.6)) date 2022-08-30 10:43:36*
%MOMM*%
%LPD*%
G01*
G04 APERTURE LIST*
%ADD10C,0.150000*%
%ADD11C,0.120000*%
G04 APERTURE END LIST*
D10*
%TO.C,R11*%
X181749880Y-115012142D02*
X181273690Y-114678809D01*
X181749880Y-114440714D02*
X180749880Y-114440714D01*
X180749880Y-114821666D01*
X180797500Y-114916904D01*
X180845119Y-114964523D01*
X180940357Y-115012142D01*
X181083214Y-115012142D01*
X181178452Y-114964523D01*
X181226071Y-114916904D01*
X181273690Y-114821666D01*
X181273690Y-114440714D01*
X181749880Y-115964523D02*
X181749880Y-115393095D01*
X181749880Y-115678809D02*
X180749880Y-115678809D01*
X180892738Y-115583571D01*
X180987976Y-115488333D01*
X181035595Y-115393095D01*
X181749880Y-116916904D02*
X181749880Y-116345476D01*
X181749880Y-116631190D02*
X180749880Y-116631190D01*
X180892738Y-116535952D01*
X180987976Y-116440714D01*
X181035595Y-116345476D01*
%TO.C,R10*%
X184997380Y-115337142D02*
X184521190Y-115003809D01*
X184997380Y-114765714D02*
X183997380Y-114765714D01*
X183997380Y-115146666D01*
X184045000Y-115241904D01*
X184092619Y-115289523D01*
X184187857Y-115337142D01*
X184330714Y-115337142D01*
X184425952Y-115289523D01*
X184473571Y-115241904D01*
X184521190Y-115146666D01*
X184521190Y-114765714D01*
X184997380Y-116289523D02*
X184997380Y-115718095D01*
X184997380Y-116003809D02*
X183997380Y-116003809D01*
X184140238Y-115908571D01*
X184235476Y-115813333D01*
X184283095Y-115718095D01*
X183997380Y-116908571D02*
X183997380Y-117003809D01*
X184045000Y-117099047D01*
X184092619Y-117146666D01*
X184187857Y-117194285D01*
X184378333Y-117241904D01*
X184616428Y-117241904D01*
X184806904Y-117194285D01*
X184902142Y-117146666D01*
X184949761Y-117099047D01*
X184997380Y-117003809D01*
X184997380Y-116908571D01*
X184949761Y-116813333D01*
X184902142Y-116765714D01*
X184806904Y-116718095D01*
X184616428Y-116670476D01*
X184378333Y-116670476D01*
X184187857Y-116718095D01*
X184092619Y-116765714D01*
X184045000Y-116813333D01*
X183997380Y-116908571D01*
%TO.C,D4*%
X197652380Y-106911904D02*
X196652380Y-106911904D01*
X196652380Y-107150000D01*
X196700000Y-107292857D01*
X196795238Y-107388095D01*
X196890476Y-107435714D01*
X197080952Y-107483333D01*
X197223809Y-107483333D01*
X197414285Y-107435714D01*
X197509523Y-107388095D01*
X197604761Y-107292857D01*
X197652380Y-107150000D01*
X197652380Y-106911904D01*
X196985714Y-108340476D02*
X197652380Y-108340476D01*
X196604761Y-108102380D02*
X197319047Y-107864285D01*
X197319047Y-108483333D01*
%TO.C,D2*%
X168738095Y-106452380D02*
X168738095Y-105452380D01*
X168500000Y-105452380D01*
X168357142Y-105500000D01*
X168261904Y-105595238D01*
X168214285Y-105690476D01*
X168166666Y-105880952D01*
X168166666Y-106023809D01*
X168214285Y-106214285D01*
X168261904Y-106309523D01*
X168357142Y-106404761D01*
X168500000Y-106452380D01*
X168738095Y-106452380D01*
X167785714Y-105547619D02*
X167738095Y-105500000D01*
X167642857Y-105452380D01*
X167404761Y-105452380D01*
X167309523Y-105500000D01*
X167261904Y-105547619D01*
X167214285Y-105642857D01*
X167214285Y-105738095D01*
X167261904Y-105880952D01*
X167833333Y-106452380D01*
X167214285Y-106452380D01*
%TO.C,R8*%
X181566666Y-94852380D02*
X181900000Y-94376190D01*
X182138095Y-94852380D02*
X182138095Y-93852380D01*
X181757142Y-93852380D01*
X181661904Y-93900000D01*
X181614285Y-93947619D01*
X181566666Y-94042857D01*
X181566666Y-94185714D01*
X181614285Y-94280952D01*
X181661904Y-94328571D01*
X181757142Y-94376190D01*
X182138095Y-94376190D01*
X180995238Y-94280952D02*
X181090476Y-94233333D01*
X181138095Y-94185714D01*
X181185714Y-94090476D01*
X181185714Y-94042857D01*
X181138095Y-93947619D01*
X181090476Y-93900000D01*
X180995238Y-93852380D01*
X180804761Y-93852380D01*
X180709523Y-93900000D01*
X180661904Y-93947619D01*
X180614285Y-94042857D01*
X180614285Y-94090476D01*
X180661904Y-94185714D01*
X180709523Y-94233333D01*
X180804761Y-94280952D01*
X180995238Y-94280952D01*
X181090476Y-94328571D01*
X181138095Y-94376190D01*
X181185714Y-94471428D01*
X181185714Y-94661904D01*
X181138095Y-94757142D01*
X181090476Y-94804761D01*
X180995238Y-94852380D01*
X180804761Y-94852380D01*
X180709523Y-94804761D01*
X180661904Y-94757142D01*
X180614285Y-94661904D01*
X180614285Y-94471428D01*
X180661904Y-94376190D01*
X180709523Y-94328571D01*
X180804761Y-94280952D01*
%TO.C,R4*%
X171566666Y-106852380D02*
X171900000Y-106376190D01*
X172138095Y-106852380D02*
X172138095Y-105852380D01*
X171757142Y-105852380D01*
X171661904Y-105900000D01*
X171614285Y-105947619D01*
X171566666Y-106042857D01*
X171566666Y-106185714D01*
X171614285Y-106280952D01*
X171661904Y-106328571D01*
X171757142Y-106376190D01*
X172138095Y-106376190D01*
X170709523Y-106185714D02*
X170709523Y-106852380D01*
X170947619Y-105804761D02*
X171185714Y-106519047D01*
X170566666Y-106519047D01*
%TO.C,R3*%
X184266666Y-106939880D02*
X184600000Y-106463690D01*
X184838095Y-106939880D02*
X184838095Y-105939880D01*
X184457142Y-105939880D01*
X184361904Y-105987500D01*
X184314285Y-106035119D01*
X184266666Y-106130357D01*
X184266666Y-106273214D01*
X184314285Y-106368452D01*
X184361904Y-106416071D01*
X184457142Y-106463690D01*
X184838095Y-106463690D01*
X183933333Y-105939880D02*
X183314285Y-105939880D01*
X183647619Y-106320833D01*
X183504761Y-106320833D01*
X183409523Y-106368452D01*
X183361904Y-106416071D01*
X183314285Y-106511309D01*
X183314285Y-106749404D01*
X183361904Y-106844642D01*
X183409523Y-106892261D01*
X183504761Y-106939880D01*
X183790476Y-106939880D01*
X183885714Y-106892261D01*
X183933333Y-106844642D01*
%TO.C,R2*%
X174066666Y-106852380D02*
X174400000Y-106376190D01*
X174638095Y-106852380D02*
X174638095Y-105852380D01*
X174257142Y-105852380D01*
X174161904Y-105900000D01*
X174114285Y-105947619D01*
X174066666Y-106042857D01*
X174066666Y-106185714D01*
X174114285Y-106280952D01*
X174161904Y-106328571D01*
X174257142Y-106376190D01*
X174638095Y-106376190D01*
X173685714Y-105947619D02*
X173638095Y-105900000D01*
X173542857Y-105852380D01*
X173304761Y-105852380D01*
X173209523Y-105900000D01*
X173161904Y-105947619D01*
X173114285Y-106042857D01*
X173114285Y-106138095D01*
X173161904Y-106280952D01*
X173733333Y-106852380D01*
X173114285Y-106852380D01*
%TO.C,C1*%
X188066666Y-108257142D02*
X188114285Y-108304761D01*
X188257142Y-108352380D01*
X188352380Y-108352380D01*
X188495238Y-108304761D01*
X188590476Y-108209523D01*
X188638095Y-108114285D01*
X188685714Y-107923809D01*
X188685714Y-107780952D01*
X188638095Y-107590476D01*
X188590476Y-107495238D01*
X188495238Y-107400000D01*
X188352380Y-107352380D01*
X188257142Y-107352380D01*
X188114285Y-107400000D01*
X188066666Y-107447619D01*
X187114285Y-108352380D02*
X187685714Y-108352380D01*
X187400000Y-108352380D02*
X187400000Y-107352380D01*
X187495238Y-107495238D01*
X187590476Y-107590476D01*
X187685714Y-107638095D01*
%TO.C,C2*%
X188066666Y-93257142D02*
X188114285Y-93304761D01*
X188257142Y-93352380D01*
X188352380Y-93352380D01*
X188495238Y-93304761D01*
X188590476Y-93209523D01*
X188638095Y-93114285D01*
X188685714Y-92923809D01*
X188685714Y-92780952D01*
X188638095Y-92590476D01*
X188590476Y-92495238D01*
X188495238Y-92400000D01*
X188352380Y-92352380D01*
X188257142Y-92352380D01*
X188114285Y-92400000D01*
X188066666Y-92447619D01*
X187685714Y-92447619D02*
X187638095Y-92400000D01*
X187542857Y-92352380D01*
X187304761Y-92352380D01*
X187209523Y-92400000D01*
X187161904Y-92447619D01*
X187114285Y-92542857D01*
X187114285Y-92638095D01*
X187161904Y-92780952D01*
X187733333Y-93352380D01*
X187114285Y-93352380D01*
%TO.C,R9*%
X178966666Y-94827380D02*
X179300000Y-94351190D01*
X179538095Y-94827380D02*
X179538095Y-93827380D01*
X179157142Y-93827380D01*
X179061904Y-93875000D01*
X179014285Y-93922619D01*
X178966666Y-94017857D01*
X178966666Y-94160714D01*
X179014285Y-94255952D01*
X179061904Y-94303571D01*
X179157142Y-94351190D01*
X179538095Y-94351190D01*
X178490476Y-94827380D02*
X178300000Y-94827380D01*
X178204761Y-94779761D01*
X178157142Y-94732142D01*
X178061904Y-94589285D01*
X178014285Y-94398809D01*
X178014285Y-94017857D01*
X178061904Y-93922619D01*
X178109523Y-93875000D01*
X178204761Y-93827380D01*
X178395238Y-93827380D01*
X178490476Y-93875000D01*
X178538095Y-93922619D01*
X178585714Y-94017857D01*
X178585714Y-94255952D01*
X178538095Y-94351190D01*
X178490476Y-94398809D01*
X178395238Y-94446428D01*
X178204761Y-94446428D01*
X178109523Y-94398809D01*
X178061904Y-94351190D01*
X178014285Y-94255952D01*
%TO.C,R5*%
X179066666Y-106964880D02*
X179400000Y-106488690D01*
X179638095Y-106964880D02*
X179638095Y-105964880D01*
X179257142Y-105964880D01*
X179161904Y-106012500D01*
X179114285Y-106060119D01*
X179066666Y-106155357D01*
X179066666Y-106298214D01*
X179114285Y-106393452D01*
X179161904Y-106441071D01*
X179257142Y-106488690D01*
X179638095Y-106488690D01*
X178161904Y-105964880D02*
X178638095Y-105964880D01*
X178685714Y-106441071D01*
X178638095Y-106393452D01*
X178542857Y-106345833D01*
X178304761Y-106345833D01*
X178209523Y-106393452D01*
X178161904Y-106441071D01*
X178114285Y-106536309D01*
X178114285Y-106774404D01*
X178161904Y-106869642D01*
X178209523Y-106917261D01*
X178304761Y-106964880D01*
X178542857Y-106964880D01*
X178638095Y-106917261D01*
X178685714Y-106869642D01*
%TO.C,D7*%
X198838095Y-78652380D02*
X198838095Y-77652380D01*
X198600000Y-77652380D01*
X198457142Y-77700000D01*
X198361904Y-77795238D01*
X198314285Y-77890476D01*
X198266666Y-78080952D01*
X198266666Y-78223809D01*
X198314285Y-78414285D01*
X198361904Y-78509523D01*
X198457142Y-78604761D01*
X198600000Y-78652380D01*
X198838095Y-78652380D01*
X197933333Y-77652380D02*
X197266666Y-77652380D01*
X197695238Y-78652380D01*
%TO.C,D8*%
X201438095Y-86452380D02*
X201438095Y-85452380D01*
X201200000Y-85452380D01*
X201057142Y-85500000D01*
X200961904Y-85595238D01*
X200914285Y-85690476D01*
X200866666Y-85880952D01*
X200866666Y-86023809D01*
X200914285Y-86214285D01*
X200961904Y-86309523D01*
X201057142Y-86404761D01*
X201200000Y-86452380D01*
X201438095Y-86452380D01*
X200295238Y-85880952D02*
X200390476Y-85833333D01*
X200438095Y-85785714D01*
X200485714Y-85690476D01*
X200485714Y-85642857D01*
X200438095Y-85547619D01*
X200390476Y-85500000D01*
X200295238Y-85452380D01*
X200104761Y-85452380D01*
X200009523Y-85500000D01*
X199961904Y-85547619D01*
X199914285Y-85642857D01*
X199914285Y-85690476D01*
X199961904Y-85785714D01*
X200009523Y-85833333D01*
X200104761Y-85880952D01*
X200295238Y-85880952D01*
X200390476Y-85928571D01*
X200438095Y-85976190D01*
X200485714Y-86071428D01*
X200485714Y-86261904D01*
X200438095Y-86357142D01*
X200390476Y-86404761D01*
X200295238Y-86452380D01*
X200104761Y-86452380D01*
X200009523Y-86404761D01*
X199961904Y-86357142D01*
X199914285Y-86261904D01*
X199914285Y-86071428D01*
X199961904Y-85976190D01*
X200009523Y-85928571D01*
X200104761Y-85880952D01*
%TO.C,D6*%
X165438095Y-95552380D02*
X165438095Y-94552380D01*
X165200000Y-94552380D01*
X165057142Y-94600000D01*
X164961904Y-94695238D01*
X164914285Y-94790476D01*
X164866666Y-94980952D01*
X164866666Y-95123809D01*
X164914285Y-95314285D01*
X164961904Y-95409523D01*
X165057142Y-95504761D01*
X165200000Y-95552380D01*
X165438095Y-95552380D01*
X164009523Y-94552380D02*
X164200000Y-94552380D01*
X164295238Y-94600000D01*
X164342857Y-94647619D01*
X164438095Y-94790476D01*
X164485714Y-94980952D01*
X164485714Y-95361904D01*
X164438095Y-95457142D01*
X164390476Y-95504761D01*
X164295238Y-95552380D01*
X164104761Y-95552380D01*
X164009523Y-95504761D01*
X163961904Y-95457142D01*
X163914285Y-95361904D01*
X163914285Y-95123809D01*
X163961904Y-95028571D01*
X164009523Y-94980952D01*
X164104761Y-94933333D01*
X164295238Y-94933333D01*
X164390476Y-94980952D01*
X164438095Y-95028571D01*
X164485714Y-95123809D01*
%TO.C,R6*%
X181566666Y-81077380D02*
X181900000Y-80601190D01*
X182138095Y-81077380D02*
X182138095Y-80077380D01*
X181757142Y-80077380D01*
X181661904Y-80125000D01*
X181614285Y-80172619D01*
X181566666Y-80267857D01*
X181566666Y-80410714D01*
X181614285Y-80505952D01*
X181661904Y-80553571D01*
X181757142Y-80601190D01*
X182138095Y-80601190D01*
X180709523Y-80077380D02*
X180900000Y-80077380D01*
X180995238Y-80125000D01*
X181042857Y-80172619D01*
X181138095Y-80315476D01*
X181185714Y-80505952D01*
X181185714Y-80886904D01*
X181138095Y-80982142D01*
X181090476Y-81029761D01*
X180995238Y-81077380D01*
X180804761Y-81077380D01*
X180709523Y-81029761D01*
X180661904Y-80982142D01*
X180614285Y-80886904D01*
X180614285Y-80648809D01*
X180661904Y-80553571D01*
X180709523Y-80505952D01*
X180804761Y-80458333D01*
X180995238Y-80458333D01*
X181090476Y-80505952D01*
X181138095Y-80553571D01*
X181185714Y-80648809D01*
%TO.C,D1*%
X161152380Y-107961904D02*
X160152380Y-107961904D01*
X160152380Y-108200000D01*
X160200000Y-108342857D01*
X160295238Y-108438095D01*
X160390476Y-108485714D01*
X160580952Y-108533333D01*
X160723809Y-108533333D01*
X160914285Y-108485714D01*
X161009523Y-108438095D01*
X161104761Y-108342857D01*
X161152380Y-108200000D01*
X161152380Y-107961904D01*
X161152380Y-109485714D02*
X161152380Y-108914285D01*
X161152380Y-109200000D02*
X160152380Y-109200000D01*
X160295238Y-109104761D01*
X160390476Y-109009523D01*
X160438095Y-108914285D01*
%TO.C,R7*%
X178966666Y-81052380D02*
X179300000Y-80576190D01*
X179538095Y-81052380D02*
X179538095Y-80052380D01*
X179157142Y-80052380D01*
X179061904Y-80100000D01*
X179014285Y-80147619D01*
X178966666Y-80242857D01*
X178966666Y-80385714D01*
X179014285Y-80480952D01*
X179061904Y-80528571D01*
X179157142Y-80576190D01*
X179538095Y-80576190D01*
X178633333Y-80052380D02*
X177966666Y-80052380D01*
X178395238Y-81052380D01*
%TO.C,D5*%
X159688095Y-95577380D02*
X159688095Y-94577380D01*
X159450000Y-94577380D01*
X159307142Y-94625000D01*
X159211904Y-94720238D01*
X159164285Y-94815476D01*
X159116666Y-95005952D01*
X159116666Y-95148809D01*
X159164285Y-95339285D01*
X159211904Y-95434523D01*
X159307142Y-95529761D01*
X159450000Y-95577380D01*
X159688095Y-95577380D01*
X158211904Y-94577380D02*
X158688095Y-94577380D01*
X158735714Y-95053571D01*
X158688095Y-95005952D01*
X158592857Y-94958333D01*
X158354761Y-94958333D01*
X158259523Y-95005952D01*
X158211904Y-95053571D01*
X158164285Y-95148809D01*
X158164285Y-95386904D01*
X158211904Y-95482142D01*
X158259523Y-95529761D01*
X158354761Y-95577380D01*
X158592857Y-95577380D01*
X158688095Y-95529761D01*
X158735714Y-95482142D01*
D11*
%TO.C,R11*%
X178732936Y-116365000D02*
X179187064Y-116365000D01*
X178732936Y-114895000D02*
X179187064Y-114895000D01*
%TO.C,R10*%
X187084564Y-116415000D02*
X186630436Y-116415000D01*
X187084564Y-114945000D02*
X186630436Y-114945000D01*
%TO.C,D4*%
X192050000Y-111200000D02*
X192050000Y-105500000D01*
X196350000Y-111200000D02*
X196350000Y-105500000D01*
X196350000Y-111200000D02*
X192050000Y-111200000D01*
%TO.C,D2*%
X169560000Y-108500000D02*
X169560000Y-109150000D01*
X166440000Y-108500000D02*
X166440000Y-109150000D01*
X169560000Y-108500000D02*
X169560000Y-107850000D01*
X166440000Y-108500000D02*
X166440000Y-106825000D01*
%TO.C,R8*%
X180665000Y-91760436D02*
X180665000Y-92214564D01*
X182135000Y-91760436D02*
X182135000Y-92214564D01*
%TO.C,R4*%
X172135000Y-109027064D02*
X172135000Y-108572936D01*
X170665000Y-109027064D02*
X170665000Y-108572936D01*
%TO.C,R3*%
X184835000Y-109014564D02*
X184835000Y-108560436D01*
X183365000Y-109014564D02*
X183365000Y-108560436D01*
%TO.C,R2*%
X174635000Y-109039564D02*
X174635000Y-108585436D01*
X173165000Y-109039564D02*
X173165000Y-108585436D01*
%TO.C,C1*%
X188123752Y-108865000D02*
X187601248Y-108865000D01*
X188123752Y-110335000D02*
X187601248Y-110335000D01*
%TO.C,C2*%
X188161252Y-92135000D02*
X187638748Y-92135000D01*
X188161252Y-90665000D02*
X187638748Y-90665000D01*
%TO.C,R9*%
X178165000Y-91760436D02*
X178165000Y-92214564D01*
X179635000Y-91760436D02*
X179635000Y-92214564D01*
%TO.C,R5*%
X178165000Y-109039564D02*
X178165000Y-108585436D01*
X179635000Y-109039564D02*
X179635000Y-108585436D01*
%TO.C,D7*%
X198100000Y-78940000D02*
X197450000Y-78940000D01*
X198100000Y-78940000D02*
X199775000Y-78940000D01*
X198100000Y-82060000D02*
X197450000Y-82060000D01*
X198100000Y-82060000D02*
X198750000Y-82060000D01*
%TO.C,D8*%
X199460000Y-84700000D02*
X199460000Y-86375000D01*
X196340000Y-84700000D02*
X196340000Y-85350000D01*
X199460000Y-84700000D02*
X199460000Y-84050000D01*
X196340000Y-84700000D02*
X196340000Y-84050000D01*
%TO.C,D6*%
X166260000Y-92600000D02*
X166260000Y-91950000D01*
X163140000Y-92600000D02*
X163140000Y-93250000D01*
X163140000Y-92600000D02*
X163140000Y-91950000D01*
X166260000Y-92600000D02*
X166260000Y-94275000D01*
%TO.C,R6*%
X182135000Y-82785436D02*
X182135000Y-83239564D01*
X180665000Y-82785436D02*
X180665000Y-83239564D01*
%TO.C,D1*%
X163200000Y-107140000D02*
X162550000Y-107140000D01*
X163200000Y-110260000D02*
X161525000Y-110260000D01*
X163200000Y-110260000D02*
X163850000Y-110260000D01*
X163200000Y-107140000D02*
X163850000Y-107140000D01*
%TO.C,R7*%
X178065000Y-82760436D02*
X178065000Y-83214564D01*
X179535000Y-82760436D02*
X179535000Y-83214564D01*
%TO.C,D5*%
X157390000Y-92562500D02*
X157390000Y-93212500D01*
X160510000Y-92562500D02*
X160510000Y-94237500D01*
X157390000Y-92562500D02*
X157390000Y-91912500D01*
X160510000Y-92562500D02*
X160510000Y-91912500D01*
%TD*%
M02*
