%TF.GenerationSoftware,KiCad,Pcbnew,(6.0.6)*%
%TF.CreationDate,2022-08-30T10:43:36-03:00*%
%TF.ProjectId,Shield_Esp32,53686965-6c64-45f4-9573-7033322e6b69,rev?*%
%TF.SameCoordinates,Original*%
%TF.FileFunction,Soldermask,Top*%
%TF.FilePolarity,Negative*%
%FSLAX46Y46*%
G04 Gerber Fmt 4.6, Leading zero omitted, Abs format (unit mm)*
G04 Created by KiCad (PCBNEW (6.0.6)) date 2022-08-30 10:43:36*
%MOMM*%
%LPD*%
G01*
G04 APERTURE LIST*
G04 Aperture macros list*
%AMRoundRect*
0 Rectangle with rounded corners*
0 $1 Rounding radius*
0 $2 $3 $4 $5 $6 $7 $8 $9 X,Y pos of 4 corners*
0 Add a 4 corners polygon primitive as box body*
4,1,4,$2,$3,$4,$5,$6,$7,$8,$9,$2,$3,0*
0 Add four circle primitives for the rounded corners*
1,1,$1+$1,$2,$3*
1,1,$1+$1,$4,$5*
1,1,$1+$1,$6,$7*
1,1,$1+$1,$8,$9*
0 Add four rect primitives between the rounded corners*
20,1,$1+$1,$2,$3,$4,$5,0*
20,1,$1+$1,$4,$5,$6,$7,0*
20,1,$1+$1,$6,$7,$8,$9,0*
20,1,$1+$1,$8,$9,$2,$3,0*%
G04 Aperture macros list end*
%ADD10R,2.000000X2.000000*%
%ADD11O,2.000000X2.000000*%
%ADD12RoundRect,0.243750X-0.243750X-0.456250X0.243750X-0.456250X0.243750X0.456250X-0.243750X0.456250X0*%
%ADD13C,2.200000*%
%ADD14RoundRect,0.250000X-0.600000X-0.600000X0.600000X-0.600000X0.600000X0.600000X-0.600000X0.600000X0*%
%ADD15C,2.000000*%
%ADD16RoundRect,0.250000X-0.262500X-0.450000X0.262500X-0.450000X0.262500X0.450000X-0.262500X0.450000X0*%
G04 APERTURE END LIST*
D10*
%TO.C,J6*%
X190900000Y-120740000D03*
D11*
X190900000Y-118200000D03*
%TD*%
D10*
%TO.C,J12*%
X152000000Y-83300000D03*
D11*
X154540000Y-83300000D03*
%TD*%
D10*
%TO.C,J10*%
X182900000Y-120740000D03*
D11*
X182900000Y-118200000D03*
%TD*%
D12*
%TO.C,D3*%
X197400000Y-118800000D03*
X199275000Y-118800000D03*
%TD*%
D10*
%TO.C,J11*%
X159150000Y-79200000D03*
D11*
X161690000Y-79200000D03*
%TD*%
D10*
%TO.C,J21*%
X152000000Y-79200000D03*
D11*
X154540000Y-79200000D03*
%TD*%
D10*
%TO.C,J9*%
X186900000Y-120775000D03*
D11*
X186900000Y-118235000D03*
%TD*%
D10*
%TO.C,J17*%
X170900000Y-120740000D03*
D11*
X170900000Y-118200000D03*
%TD*%
D10*
%TO.C,J13*%
X170300000Y-80700000D03*
D11*
X170300000Y-83240000D03*
%TD*%
D13*
%TO.C,H2*%
X128300000Y-75300000D03*
%TD*%
D10*
%TO.C,J1*%
X158800000Y-120740000D03*
D11*
X158800000Y-118200000D03*
%TD*%
D10*
%TO.C,J22*%
X159125000Y-83300000D03*
D11*
X161665000Y-83300000D03*
%TD*%
D10*
%TO.C,J19*%
X184800000Y-80700000D03*
D11*
X184800000Y-83240000D03*
%TD*%
D10*
%TO.C,J23*%
X193400000Y-80700000D03*
D11*
X193400000Y-83240000D03*
%TD*%
D13*
%TO.C,H3*%
X202900000Y-75200000D03*
%TD*%
D10*
%TO.C,J18*%
X166900000Y-120740000D03*
D11*
X166900000Y-118200000D03*
%TD*%
D10*
%TO.C,J7*%
X189100000Y-83240000D03*
D11*
X189100000Y-80700000D03*
%TD*%
D13*
%TO.C,H1*%
X128300000Y-124000000D03*
%TD*%
D10*
%TO.C,J4*%
X153600000Y-113075000D03*
D11*
X156140000Y-113075000D03*
X158680000Y-113075000D03*
X161220000Y-113075000D03*
X163760000Y-113075000D03*
X166300000Y-113075000D03*
X168840000Y-113075000D03*
X171380000Y-113075000D03*
X173920000Y-113075000D03*
X176460000Y-113075000D03*
X179000000Y-113075000D03*
X181540000Y-113075000D03*
X184080000Y-113075000D03*
X186620000Y-113075000D03*
X189160000Y-113075000D03*
%TD*%
D14*
%TO.C,J3*%
X137747500Y-88260000D03*
D15*
X140287500Y-88260000D03*
X137747500Y-90800000D03*
X140287500Y-90800000D03*
X137747500Y-93340000D03*
X140287500Y-93340000D03*
X137747500Y-95880000D03*
X140287500Y-95880000D03*
X137747500Y-98420000D03*
X140287500Y-98420000D03*
X137747500Y-100960000D03*
X140287500Y-100960000D03*
X137747500Y-103500000D03*
X140287500Y-103500000D03*
X137747500Y-106040000D03*
X140287500Y-106040000D03*
X137747500Y-108580000D03*
X140287500Y-108580000D03*
X137747500Y-111120000D03*
X140287500Y-111120000D03*
X137747500Y-113660000D03*
X140287500Y-113660000D03*
X137747500Y-116200000D03*
X140287500Y-116200000D03*
X137747500Y-118740000D03*
X140287500Y-118740000D03*
%TD*%
D10*
%TO.C,J15*%
X178900000Y-120740000D03*
D11*
X178900000Y-118200000D03*
%TD*%
D10*
%TO.C,J2*%
X162900000Y-120740000D03*
D11*
X162900000Y-118200000D03*
%TD*%
D10*
%TO.C,J5*%
X153600000Y-87700000D03*
D11*
X156140000Y-87700000D03*
X158680000Y-87700000D03*
X161220000Y-87700000D03*
X163760000Y-87700000D03*
X166300000Y-87700000D03*
X168840000Y-87700000D03*
X171380000Y-87700000D03*
X173920000Y-87700000D03*
X176460000Y-87700000D03*
X179000000Y-87700000D03*
X181540000Y-87700000D03*
X184080000Y-87700000D03*
X186620000Y-87700000D03*
X189160000Y-87700000D03*
%TD*%
D16*
%TO.C,R1*%
X197487500Y-121400000D03*
X199312500Y-121400000D03*
%TD*%
D10*
%TO.C,J14*%
X166100000Y-80700000D03*
D11*
X166100000Y-83240000D03*
%TD*%
D10*
%TO.C,J16*%
X174900000Y-120775000D03*
D11*
X174900000Y-118235000D03*
%TD*%
D10*
%TO.C,J20*%
X175500000Y-80700000D03*
D11*
X175500000Y-83240000D03*
%TD*%
D10*
%TO.C,J8*%
X202800000Y-107760000D03*
D11*
X202800000Y-110300000D03*
X202800000Y-112840000D03*
%TD*%
M02*
