%TF.GenerationSoftware,KiCad,Pcbnew,(6.0.6)*%
%TF.CreationDate,2022-08-29T19:16:39-03:00*%
%TF.ProjectId,Shield_Esp32,53686965-6c64-45f4-9573-7033322e6b69,rev?*%
%TF.SameCoordinates,Original*%
%TF.FileFunction,Soldermask,Bot*%
%TF.FilePolarity,Negative*%
%FSLAX46Y46*%
G04 Gerber Fmt 4.6, Leading zero omitted, Abs format (unit mm)*
G04 Created by KiCad (PCBNEW (6.0.6)) date 2022-08-29 19:16:39*
%MOMM*%
%LPD*%
G01*
G04 APERTURE LIST*
G04 Aperture macros list*
%AMRoundRect*
0 Rectangle with rounded corners*
0 $1 Rounding radius*
0 $2 $3 $4 $5 $6 $7 $8 $9 X,Y pos of 4 corners*
0 Add a 4 corners polygon primitive as box body*
4,1,4,$2,$3,$4,$5,$6,$7,$8,$9,$2,$3,0*
0 Add four circle primitives for the rounded corners*
1,1,$1+$1,$2,$3*
1,1,$1+$1,$4,$5*
1,1,$1+$1,$6,$7*
1,1,$1+$1,$8,$9*
0 Add four rect primitives between the rounded corners*
20,1,$1+$1,$2,$3,$4,$5,0*
20,1,$1+$1,$4,$5,$6,$7,0*
20,1,$1+$1,$6,$7,$8,$9,0*
20,1,$1+$1,$8,$9,$2,$3,0*%
G04 Aperture macros list end*
%ADD10R,2.000000X2.000000*%
%ADD11O,2.000000X2.000000*%
%ADD12C,2.200000*%
%ADD13RoundRect,0.250000X-0.600000X-0.600000X0.600000X-0.600000X0.600000X0.600000X-0.600000X0.600000X0*%
%ADD14C,2.000000*%
%ADD15R,2.300000X2.500000*%
%ADD16RoundRect,0.150000X-0.150000X0.587500X-0.150000X-0.587500X0.150000X-0.587500X0.150000X0.587500X0*%
%ADD17RoundRect,0.250000X-0.450000X0.262500X-0.450000X-0.262500X0.450000X-0.262500X0.450000X0.262500X0*%
%ADD18RoundRect,0.250000X0.450000X-0.262500X0.450000X0.262500X-0.450000X0.262500X-0.450000X-0.262500X0*%
%ADD19RoundRect,0.250000X0.337500X0.475000X-0.337500X0.475000X-0.337500X-0.475000X0.337500X-0.475000X0*%
%ADD20RoundRect,0.150000X0.587500X0.150000X-0.587500X0.150000X-0.587500X-0.150000X0.587500X-0.150000X0*%
%ADD21RoundRect,0.150000X0.150000X-0.587500X0.150000X0.587500X-0.150000X0.587500X-0.150000X-0.587500X0*%
%ADD22RoundRect,0.150000X-0.587500X-0.150000X0.587500X-0.150000X0.587500X0.150000X-0.587500X0.150000X0*%
G04 APERTURE END LIST*
D10*
%TO.C,J6*%
X191000000Y-120500000D03*
D11*
X191000000Y-117960000D03*
%TD*%
D10*
%TO.C,J12*%
X152000000Y-83300000D03*
D11*
X154540000Y-83300000D03*
%TD*%
D10*
%TO.C,J10*%
X183000000Y-120500000D03*
D11*
X183000000Y-117960000D03*
%TD*%
D10*
%TO.C,J11*%
X159150000Y-79200000D03*
D11*
X161690000Y-79200000D03*
%TD*%
D10*
%TO.C,J21*%
X152000000Y-79200000D03*
D11*
X154540000Y-79200000D03*
%TD*%
D10*
%TO.C,J9*%
X187000000Y-120535000D03*
D11*
X187000000Y-117995000D03*
%TD*%
D10*
%TO.C,J17*%
X171000000Y-120500000D03*
D11*
X171000000Y-117960000D03*
%TD*%
D10*
%TO.C,J13*%
X170300000Y-80700000D03*
D11*
X170300000Y-83240000D03*
%TD*%
D12*
%TO.C,H2*%
X128300000Y-75300000D03*
%TD*%
D10*
%TO.C,J1*%
X158900000Y-120500000D03*
D11*
X158900000Y-117960000D03*
%TD*%
D10*
%TO.C,J22*%
X159125000Y-83300000D03*
D11*
X161665000Y-83300000D03*
%TD*%
D10*
%TO.C,J19*%
X184800000Y-80700000D03*
D11*
X184800000Y-83240000D03*
%TD*%
D10*
%TO.C,J23*%
X193400000Y-80700000D03*
D11*
X193400000Y-83240000D03*
%TD*%
D12*
%TO.C,H3*%
X202900000Y-75200000D03*
%TD*%
D10*
%TO.C,J18*%
X167000000Y-120500000D03*
D11*
X167000000Y-117960000D03*
%TD*%
D10*
%TO.C,J7*%
X189100000Y-83240000D03*
D11*
X189100000Y-80700000D03*
%TD*%
D12*
%TO.C,H1*%
X128300000Y-124000000D03*
%TD*%
D10*
%TO.C,J4*%
X153600000Y-113075000D03*
D11*
X156140000Y-113075000D03*
X158680000Y-113075000D03*
X161220000Y-113075000D03*
X163760000Y-113075000D03*
X166300000Y-113075000D03*
X168840000Y-113075000D03*
X171380000Y-113075000D03*
X173920000Y-113075000D03*
X176460000Y-113075000D03*
X179000000Y-113075000D03*
X181540000Y-113075000D03*
X184080000Y-113075000D03*
X186620000Y-113075000D03*
X189160000Y-113075000D03*
%TD*%
D13*
%TO.C,J3*%
X137747500Y-88260000D03*
D14*
X140287500Y-88260000D03*
X137747500Y-90800000D03*
X140287500Y-90800000D03*
X137747500Y-93340000D03*
X140287500Y-93340000D03*
X137747500Y-95880000D03*
X140287500Y-95880000D03*
X137747500Y-98420000D03*
X140287500Y-98420000D03*
X137747500Y-100960000D03*
X140287500Y-100960000D03*
X137747500Y-103500000D03*
X140287500Y-103500000D03*
X137747500Y-106040000D03*
X140287500Y-106040000D03*
X137747500Y-108580000D03*
X140287500Y-108580000D03*
X137747500Y-111120000D03*
X140287500Y-111120000D03*
X137747500Y-113660000D03*
X140287500Y-113660000D03*
X137747500Y-116200000D03*
X140287500Y-116200000D03*
X137747500Y-118740000D03*
X140287500Y-118740000D03*
%TD*%
D10*
%TO.C,J15*%
X179000000Y-120500000D03*
D11*
X179000000Y-117960000D03*
%TD*%
D10*
%TO.C,J2*%
X163000000Y-120500000D03*
D11*
X163000000Y-117960000D03*
%TD*%
D10*
%TO.C,J5*%
X153600000Y-87700000D03*
D11*
X156140000Y-87700000D03*
X158680000Y-87700000D03*
X161220000Y-87700000D03*
X163760000Y-87700000D03*
X166300000Y-87700000D03*
X168840000Y-87700000D03*
X171380000Y-87700000D03*
X173920000Y-87700000D03*
X176460000Y-87700000D03*
X179000000Y-87700000D03*
X181540000Y-87700000D03*
X184080000Y-87700000D03*
X186620000Y-87700000D03*
X189160000Y-87700000D03*
%TD*%
D10*
%TO.C,J14*%
X166100000Y-80700000D03*
D11*
X166100000Y-83240000D03*
%TD*%
D10*
%TO.C,J16*%
X175000000Y-120535000D03*
D11*
X175000000Y-117995000D03*
%TD*%
D10*
%TO.C,J20*%
X175500000Y-80700000D03*
D11*
X175500000Y-83240000D03*
%TD*%
D10*
%TO.C,J8*%
X202800000Y-107760000D03*
D11*
X202800000Y-110300000D03*
X202800000Y-112840000D03*
%TD*%
D15*
%TO.C,D4*%
X194200000Y-109800000D03*
X194200000Y-105500000D03*
%TD*%
D16*
%TO.C,D2*%
X167050000Y-107562500D03*
X168950000Y-107562500D03*
X168000000Y-109437500D03*
%TD*%
D17*
%TO.C,R8*%
X181400000Y-91075000D03*
X181400000Y-92900000D03*
%TD*%
D18*
%TO.C,R4*%
X171400000Y-109712500D03*
X171400000Y-107887500D03*
%TD*%
%TO.C,R3*%
X184100000Y-109700000D03*
X184100000Y-107875000D03*
%TD*%
%TO.C,R2*%
X173900000Y-109725000D03*
X173900000Y-107900000D03*
%TD*%
D19*
%TO.C,C1*%
X188900000Y-109600000D03*
X186825000Y-109600000D03*
%TD*%
%TO.C,C2*%
X188937500Y-91400000D03*
X186862500Y-91400000D03*
%TD*%
D17*
%TO.C,R9*%
X178900000Y-91075000D03*
X178900000Y-92900000D03*
%TD*%
D18*
%TO.C,R5*%
X178900000Y-109725000D03*
X178900000Y-107900000D03*
%TD*%
D20*
%TO.C,D7*%
X199037500Y-79550000D03*
X199037500Y-81450000D03*
X197162500Y-80500000D03*
%TD*%
D21*
%TO.C,D8*%
X198850000Y-85637500D03*
X196950000Y-85637500D03*
X197900000Y-83762500D03*
%TD*%
%TO.C,D6*%
X165650000Y-93537500D03*
X163750000Y-93537500D03*
X164700000Y-91662500D03*
%TD*%
D17*
%TO.C,R6*%
X181400000Y-82100000D03*
X181400000Y-83925000D03*
%TD*%
D22*
%TO.C,D1*%
X162262500Y-109650000D03*
X162262500Y-107750000D03*
X164137500Y-108700000D03*
%TD*%
D17*
%TO.C,R7*%
X178800000Y-82075000D03*
X178800000Y-83900000D03*
%TD*%
D21*
%TO.C,D5*%
X159900000Y-93500000D03*
X158000000Y-93500000D03*
X158950000Y-91625000D03*
%TD*%
M02*
