M48
; DRILL file {KiCad (6.0.6)} date Tue Aug 30 10:43:40 2022
; FORMAT={-:-/ absolute / metric / decimal}
; #@! TF.CreationDate,2022-08-30T10:43:40-03:00
; #@! TF.GenerationSoftware,Kicad,Pcbnew,(6.0.6)
; #@! TF.FileFunction,Plated,1,2,PTH
FMAT,2
METRIC
; #@! TA.AperFunction,Plated,PTH,ViaDrill
T1C0.600
; #@! TA.AperFunction,Plated,PTH,ComponentDrill
T2C1.000
%
G90
G05
T1
X129.8Y-111.5
X132.7Y-101.4
X132.7Y-111.6
X133.388Y-99.102
X133.44Y-96.6
X145.1Y-111.3
X145.1Y-90.995
X145.275Y-107.075
X145.322Y-104.561
X145.6Y-93.8
X148.0Y-77.561
X148.0Y-80.885
X148.4Y-93.4
X148.538Y-111.2
X150.0Y-108.3
X151.0Y-93.4
X151.038Y-96.3
X152.325Y-108.325
X155.312Y-119.088
X158.05Y-109.425
X161.8Y-91.6
X165.6Y-103.7
X170.3Y-77.561
X172.0Y-95.6
X172.9Y-123.922
X175.625Y-76.538
X177.0Y-123.922
X178.547Y-75.495
X182.125Y-77.011
X189.5Y-105.9
X193.0Y-114.5
X193.4Y-87.2
X194.65Y-97.95
X199.3Y-116.0
X200.9Y-83.9
T2
X137.748Y-88.26
X137.748Y-90.8
X137.748Y-93.34
X137.748Y-95.88
X137.748Y-98.42
X137.748Y-100.96
X137.748Y-103.5
X137.748Y-106.04
X137.748Y-108.58
X137.748Y-111.12
X137.748Y-113.66
X137.748Y-116.2
X137.748Y-118.74
X140.287Y-88.26
X140.287Y-90.8
X140.287Y-93.34
X140.287Y-95.88
X140.287Y-98.42
X140.287Y-100.96
X140.287Y-103.5
X140.287Y-106.04
X140.287Y-108.58
X140.287Y-111.12
X140.287Y-113.66
X140.287Y-116.2
X140.287Y-118.74
X152.0Y-79.2
X152.0Y-83.3
X153.6Y-87.7
X153.6Y-113.075
X154.54Y-79.2
X154.54Y-83.3
X156.14Y-87.7
X156.14Y-113.075
X158.68Y-87.7
X158.68Y-113.075
X158.8Y-118.2
X158.8Y-120.74
X159.125Y-83.3
X159.15Y-79.2
X161.22Y-87.7
X161.22Y-113.075
X161.665Y-83.3
X161.69Y-79.2
X162.9Y-118.2
X162.9Y-120.74
X163.76Y-87.7
X163.76Y-113.075
X166.1Y-80.7
X166.1Y-83.24
X166.3Y-87.7
X166.3Y-113.075
X166.9Y-118.2
X166.9Y-120.74
X168.84Y-87.7
X168.84Y-113.075
X170.3Y-80.7
X170.3Y-83.24
X170.9Y-118.2
X170.9Y-120.74
X171.38Y-87.7
X171.38Y-113.075
X173.92Y-87.7
X173.92Y-113.075
X174.9Y-118.235
X174.9Y-120.775
X175.5Y-80.7
X175.5Y-83.24
X176.46Y-87.7
X176.46Y-113.075
X178.9Y-118.2
X178.9Y-120.74
X179.0Y-87.7
X179.0Y-113.075
X181.54Y-87.7
X181.54Y-113.075
X182.9Y-118.2
X182.9Y-120.74
X184.08Y-87.7
X184.08Y-113.075
X184.8Y-80.7
X184.8Y-83.24
X186.62Y-87.7
X186.62Y-113.075
X186.9Y-118.235
X186.9Y-120.775
X189.1Y-80.7
X189.1Y-83.24
X189.16Y-87.7
X189.16Y-113.075
X190.9Y-118.2
X190.9Y-120.74
X193.4Y-80.7
X193.4Y-83.24
X202.8Y-107.76
X202.8Y-110.3
X202.8Y-112.84
T0
M30
