%TF.GenerationSoftware,KiCad,Pcbnew,(6.0.6)*%
%TF.CreationDate,2022-08-29T19:16:38-03:00*%
%TF.ProjectId,Shield_Esp32,53686965-6c64-45f4-9573-7033322e6b69,rev?*%
%TF.SameCoordinates,Original*%
%TF.FileFunction,Copper,L2,Bot*%
%TF.FilePolarity,Positive*%
%FSLAX46Y46*%
G04 Gerber Fmt 4.6, Leading zero omitted, Abs format (unit mm)*
G04 Created by KiCad (PCBNEW (6.0.6)) date 2022-08-29 19:16:38*
%MOMM*%
%LPD*%
G01*
G04 APERTURE LIST*
G04 Aperture macros list*
%AMRoundRect*
0 Rectangle with rounded corners*
0 $1 Rounding radius*
0 $2 $3 $4 $5 $6 $7 $8 $9 X,Y pos of 4 corners*
0 Add a 4 corners polygon primitive as box body*
4,1,4,$2,$3,$4,$5,$6,$7,$8,$9,$2,$3,0*
0 Add four circle primitives for the rounded corners*
1,1,$1+$1,$2,$3*
1,1,$1+$1,$4,$5*
1,1,$1+$1,$6,$7*
1,1,$1+$1,$8,$9*
0 Add four rect primitives between the rounded corners*
20,1,$1+$1,$2,$3,$4,$5,0*
20,1,$1+$1,$4,$5,$6,$7,0*
20,1,$1+$1,$6,$7,$8,$9,0*
20,1,$1+$1,$8,$9,$2,$3,0*%
G04 Aperture macros list end*
%TA.AperFunction,ComponentPad*%
%ADD10R,2.000000X2.000000*%
%TD*%
%TA.AperFunction,ComponentPad*%
%ADD11O,2.000000X2.000000*%
%TD*%
%TA.AperFunction,ComponentPad*%
%ADD12RoundRect,0.250000X-0.600000X-0.600000X0.600000X-0.600000X0.600000X0.600000X-0.600000X0.600000X0*%
%TD*%
%TA.AperFunction,ComponentPad*%
%ADD13C,2.000000*%
%TD*%
%TA.AperFunction,SMDPad,CuDef*%
%ADD14R,2.300000X2.500000*%
%TD*%
%TA.AperFunction,SMDPad,CuDef*%
%ADD15RoundRect,0.150000X-0.150000X0.587500X-0.150000X-0.587500X0.150000X-0.587500X0.150000X0.587500X0*%
%TD*%
%TA.AperFunction,SMDPad,CuDef*%
%ADD16RoundRect,0.250000X-0.450000X0.262500X-0.450000X-0.262500X0.450000X-0.262500X0.450000X0.262500X0*%
%TD*%
%TA.AperFunction,SMDPad,CuDef*%
%ADD17RoundRect,0.250000X0.450000X-0.262500X0.450000X0.262500X-0.450000X0.262500X-0.450000X-0.262500X0*%
%TD*%
%TA.AperFunction,SMDPad,CuDef*%
%ADD18RoundRect,0.250000X0.337500X0.475000X-0.337500X0.475000X-0.337500X-0.475000X0.337500X-0.475000X0*%
%TD*%
%TA.AperFunction,SMDPad,CuDef*%
%ADD19RoundRect,0.150000X0.587500X0.150000X-0.587500X0.150000X-0.587500X-0.150000X0.587500X-0.150000X0*%
%TD*%
%TA.AperFunction,SMDPad,CuDef*%
%ADD20RoundRect,0.150000X0.150000X-0.587500X0.150000X0.587500X-0.150000X0.587500X-0.150000X-0.587500X0*%
%TD*%
%TA.AperFunction,SMDPad,CuDef*%
%ADD21RoundRect,0.150000X-0.587500X-0.150000X0.587500X-0.150000X0.587500X0.150000X-0.587500X0.150000X0*%
%TD*%
%TA.AperFunction,ViaPad*%
%ADD22C,1.800000*%
%TD*%
%TA.AperFunction,Conductor*%
%ADD23C,0.762000*%
%TD*%
%TA.AperFunction,Conductor*%
%ADD24C,0.508000*%
%TD*%
G04 APERTURE END LIST*
D10*
%TO.P,J6,1,Pin_1*%
%TO.N,GND*%
X191000000Y-120500000D03*
D11*
%TO.P,J6,2,Pin_2*%
%TO.N,AMP1*%
X191000000Y-117960000D03*
%TD*%
D10*
%TO.P,J12,1,Pin_1*%
%TO.N,PWM1N*%
X152000000Y-83300000D03*
D11*
%TO.P,J12,2,Pin_2*%
%TO.N,D22*%
X154540000Y-83300000D03*
%TD*%
D10*
%TO.P,J10,1,Pin_1*%
%TO.N,TRIG0*%
X183000000Y-120500000D03*
D11*
%TO.P,J10,2,Pin_2*%
%TO.N,D12*%
X183000000Y-117960000D03*
%TD*%
D10*
%TO.P,J11,1,Pin_1*%
%TO.N,PWM1*%
X159150000Y-79200000D03*
D11*
%TO.P,J11,2,Pin_2*%
%TO.N,D21*%
X161690000Y-79200000D03*
%TD*%
D10*
%TO.P,J21,1,Pin_1*%
%TO.N,RXB*%
X152000000Y-79200000D03*
D11*
%TO.P,J21,2,Pin_2*%
%TO.N,TX0*%
X154540000Y-79200000D03*
%TD*%
D10*
%TO.P,J9,1,Pin_1*%
%TO.N,ECHO0*%
X187000000Y-120535000D03*
D11*
%TO.P,J9,2,Pin_2*%
%TO.N,D13*%
X187000000Y-117995000D03*
%TD*%
D10*
%TO.P,J17,1,Pin_1*%
%TO.N,R_TCRT*%
X171000000Y-120500000D03*
D11*
%TO.P,J17,2,Pin_2*%
%TO.N,D26*%
X171000000Y-117960000D03*
%TD*%
D10*
%TO.P,J13,1,Pin_1*%
%TO.N,PWM2*%
X170300000Y-80700000D03*
D11*
%TO.P,J13,2,Pin_2*%
%TO.N,D18*%
X170300000Y-83240000D03*
%TD*%
D10*
%TO.P,J1,1,Pin_1*%
%TO.N,ADC0*%
X158900000Y-120500000D03*
D11*
%TO.P,J1,2,Pin_2*%
%TO.N,D32*%
X158900000Y-117960000D03*
%TD*%
D10*
%TO.P,J22,1,Pin_1*%
%TO.N,TXB*%
X159125000Y-83300000D03*
D11*
%TO.P,J22,2,Pin_2*%
%TO.N,RX0*%
X161665000Y-83300000D03*
%TD*%
D10*
%TO.P,J19,1,Pin_1*%
%TO.N,ENC0*%
X184800000Y-80700000D03*
D11*
%TO.P,J19,2,Pin_2*%
%TO.N,Net-(J19-Pad2)*%
X184800000Y-83240000D03*
%TD*%
D10*
%TO.P,J23,1,Pin_1*%
%TO.N,ADC2*%
X193400000Y-80700000D03*
D11*
%TO.P,J23,2,Pin_2*%
%TO.N,ADC3*%
X193400000Y-83240000D03*
%TD*%
D10*
%TO.P,J18,1,Pin_1*%
%TO.N,L_TCRT*%
X167000000Y-120500000D03*
D11*
%TO.P,J18,2,Pin_2*%
%TO.N,D25*%
X167000000Y-117960000D03*
%TD*%
D10*
%TO.P,J7,1,Pin_1*%
%TO.N,GND*%
X189100000Y-83240000D03*
D11*
%TO.P,J7,2,Pin_2*%
%TO.N,AMP2*%
X189100000Y-80700000D03*
%TD*%
D10*
%TO.P,J4,1,Pin_1*%
%TO.N,unconnected-(J4-Pad1)*%
X153600000Y-113075000D03*
D11*
%TO.P,J4,2,Pin_2*%
%TO.N,unconnected-(J4-Pad2)*%
X156140000Y-113075000D03*
%TO.P,J4,3,Pin_3*%
%TO.N,unconnected-(J4-Pad3)*%
X158680000Y-113075000D03*
%TO.P,J4,4,Pin_4*%
%TO.N,unconnected-(J4-Pad4)*%
X161220000Y-113075000D03*
%TO.P,J4,5,Pin_5*%
%TO.N,unconnected-(J4-Pad5)*%
X163760000Y-113075000D03*
%TO.P,J4,6,Pin_6*%
%TO.N,D32*%
X166300000Y-113075000D03*
%TO.P,J4,7,Pin_7*%
%TO.N,D33*%
X168840000Y-113075000D03*
%TO.P,J4,8,Pin_8*%
%TO.N,D25*%
X171380000Y-113075000D03*
%TO.P,J4,9,Pin_9*%
%TO.N,D26*%
X173920000Y-113075000D03*
%TO.P,J4,10,Pin_10*%
%TO.N,D27*%
X176460000Y-113075000D03*
%TO.P,J4,11,Pin_11*%
%TO.N,D14*%
X179000000Y-113075000D03*
%TO.P,J4,12,Pin_12*%
%TO.N,D12*%
X181540000Y-113075000D03*
%TO.P,J4,13,Pin_13*%
%TO.N,D13*%
X184080000Y-113075000D03*
%TO.P,J4,14,Pin_14*%
%TO.N,GND*%
X186620000Y-113075000D03*
%TO.P,J4,15,Pin_15*%
%TO.N,+5V*%
X189160000Y-113075000D03*
%TD*%
D12*
%TO.P,J3,1,Pin_1*%
%TO.N,GND*%
X137747500Y-88260000D03*
D13*
%TO.P,J3,2,Pin_2*%
%TO.N,ENC0*%
X140287500Y-88260000D03*
%TO.P,J3,3,Pin_3*%
%TO.N,AMP1*%
X137747500Y-90800000D03*
%TO.P,J3,4,Pin_4*%
%TO.N,GND*%
X140287500Y-90800000D03*
%TO.P,J3,5,Pin_5*%
%TO.N,ADC3*%
X137747500Y-93340000D03*
%TO.P,J3,6,Pin_6*%
%TO.N,ECHO1*%
X140287500Y-93340000D03*
%TO.P,J3,7,Pin_7*%
%TO.N,ADC0*%
X137747500Y-95880000D03*
%TO.P,J3,8,Pin_8*%
%TO.N,TRIG1*%
X140287500Y-95880000D03*
%TO.P,J3,9,Pin_9*%
%TO.N,ADC1*%
X137747500Y-98420000D03*
%TO.P,J3,10,Pin_10*%
%TO.N,unconnected-(J3-Pad10)*%
X140287500Y-98420000D03*
%TO.P,J3,11,Pin_11*%
%TO.N,ADC2*%
X137747500Y-100960000D03*
%TO.P,J3,12,Pin_12*%
%TO.N,R_TCRT*%
X140287500Y-100960000D03*
%TO.P,J3,13,Pin_13*%
%TO.N,AMP2*%
X137747500Y-103500000D03*
%TO.P,J3,14,Pin_14*%
%TO.N,L_TCRT*%
X140287500Y-103500000D03*
%TO.P,J3,15,Pin_15*%
%TO.N,+5VP*%
X137747500Y-106040000D03*
%TO.P,J3,16,Pin_16*%
X140287500Y-106040000D03*
%TO.P,J3,17,Pin_17*%
%TO.N,TXB*%
X137747500Y-108580000D03*
%TO.P,J3,18,Pin_18*%
%TO.N,GND*%
X140287500Y-108580000D03*
%TO.P,J3,19,Pin_19*%
%TO.N,RXB*%
X137747500Y-111120000D03*
%TO.P,J3,20,Pin_20*%
%TO.N,TRIG0*%
X140287500Y-111120000D03*
%TO.P,J3,21,Pin_21*%
%TO.N,PWM1*%
X137747500Y-113660000D03*
%TO.P,J3,22,Pin_22*%
%TO.N,ECHO0*%
X140287500Y-113660000D03*
%TO.P,J3,23,Pin_23*%
%TO.N,PWM1N*%
X137747500Y-116200000D03*
%TO.P,J3,24,Pin_24*%
%TO.N,ENC1*%
X140287500Y-116200000D03*
%TO.P,J3,25,Pin_25*%
%TO.N,PWM2*%
X137747500Y-118740000D03*
%TO.P,J3,26,Pin_26*%
%TO.N,PWM2N*%
X140287500Y-118740000D03*
%TD*%
D10*
%TO.P,J15,1,Pin_1*%
%TO.N,ECHO1*%
X179000000Y-120500000D03*
D11*
%TO.P,J15,2,Pin_2*%
%TO.N,D14*%
X179000000Y-117960000D03*
%TD*%
D10*
%TO.P,J2,1,Pin_1*%
%TO.N,ADC1*%
X163000000Y-120500000D03*
D11*
%TO.P,J2,2,Pin_2*%
%TO.N,D33*%
X163000000Y-117960000D03*
%TD*%
D10*
%TO.P,J5,1,Pin_1*%
%TO.N,unconnected-(J5-Pad1)*%
X153600000Y-87700000D03*
D11*
%TO.P,J5,2,Pin_2*%
%TO.N,D22*%
X156140000Y-87700000D03*
%TO.P,J5,3,Pin_3*%
%TO.N,TX0*%
X158680000Y-87700000D03*
%TO.P,J5,4,Pin_4*%
%TO.N,RX0*%
X161220000Y-87700000D03*
%TO.P,J5,5,Pin_5*%
%TO.N,D21*%
X163760000Y-87700000D03*
%TO.P,J5,6,Pin_6*%
%TO.N,D19*%
X166300000Y-87700000D03*
%TO.P,J5,7,Pin_7*%
%TO.N,D18*%
X168840000Y-87700000D03*
%TO.P,J5,8,Pin_8*%
%TO.N,unconnected-(J5-Pad8)*%
X171380000Y-87700000D03*
%TO.P,J5,9,Pin_9*%
%TO.N,unconnected-(J5-Pad9)*%
X173920000Y-87700000D03*
%TO.P,J5,10,Pin_10*%
%TO.N,unconnected-(J5-Pad10)*%
X176460000Y-87700000D03*
%TO.P,J5,11,Pin_11*%
%TO.N,D4*%
X179000000Y-87700000D03*
%TO.P,J5,12,Pin_12*%
%TO.N,D2*%
X181540000Y-87700000D03*
%TO.P,J5,13,Pin_13*%
%TO.N,unconnected-(J5-Pad13)*%
X184080000Y-87700000D03*
%TO.P,J5,14,Pin_14*%
%TO.N,GND*%
X186620000Y-87700000D03*
%TO.P,J5,15,Pin_15*%
%TO.N,+3.3V*%
X189160000Y-87700000D03*
%TD*%
D10*
%TO.P,J14,1,Pin_1*%
%TO.N,PWM2N*%
X166100000Y-80700000D03*
D11*
%TO.P,J14,2,Pin_2*%
%TO.N,D19*%
X166100000Y-83240000D03*
%TD*%
D10*
%TO.P,J16,1,Pin_1*%
%TO.N,TRIG1*%
X175000000Y-120535000D03*
D11*
%TO.P,J16,2,Pin_2*%
%TO.N,D27*%
X175000000Y-117995000D03*
%TD*%
D10*
%TO.P,J20,1,Pin_1*%
%TO.N,ENC1*%
X175500000Y-80700000D03*
D11*
%TO.P,J20,2,Pin_2*%
%TO.N,Net-(J20-Pad2)*%
X175500000Y-83240000D03*
%TD*%
D10*
%TO.P,J8,1,Pin_1*%
%TO.N,+3.3V*%
X202800000Y-107760000D03*
D11*
%TO.P,J8,2,Pin_2*%
%TO.N,GND*%
X202800000Y-110300000D03*
%TO.P,J8,3,Pin_3*%
%TO.N,+5V*%
X202800000Y-112840000D03*
%TD*%
D14*
%TO.P,D4,1,K*%
%TO.N,+5V*%
X194200000Y-109800000D03*
%TO.P,D4,2,A*%
%TO.N,+5VP*%
X194200000Y-105500000D03*
%TD*%
D15*
%TO.P,D2,1*%
%TO.N,GND*%
X167050000Y-107562500D03*
%TO.P,D2,2*%
%TO.N,+3.3V*%
X168950000Y-107562500D03*
%TO.P,D2,3*%
%TO.N,D33*%
X168000000Y-109437500D03*
%TD*%
D16*
%TO.P,R8,1*%
%TO.N,D2*%
X181400000Y-91075000D03*
%TO.P,R8,2*%
%TO.N,GND*%
X181400000Y-92900000D03*
%TD*%
D17*
%TO.P,R4,1*%
%TO.N,D25*%
X171400000Y-109712500D03*
%TO.P,R4,2*%
%TO.N,GND*%
X171400000Y-107887500D03*
%TD*%
%TO.P,R3,1*%
%TO.N,D13*%
X184100000Y-109700000D03*
%TO.P,R3,2*%
%TO.N,GND*%
X184100000Y-107875000D03*
%TD*%
%TO.P,R2,1*%
%TO.N,D26*%
X173900000Y-109725000D03*
%TO.P,R2,2*%
%TO.N,GND*%
X173900000Y-107900000D03*
%TD*%
D18*
%TO.P,C1,1*%
%TO.N,+5V*%
X188900000Y-109600000D03*
%TO.P,C1,2*%
%TO.N,GND*%
X186825000Y-109600000D03*
%TD*%
%TO.P,C2,1*%
%TO.N,+3.3V*%
X188937500Y-91400000D03*
%TO.P,C2,2*%
%TO.N,GND*%
X186862500Y-91400000D03*
%TD*%
D16*
%TO.P,R9,1*%
%TO.N,D4*%
X178900000Y-91075000D03*
%TO.P,R9,2*%
%TO.N,GND*%
X178900000Y-92900000D03*
%TD*%
D17*
%TO.P,R5,1*%
%TO.N,D14*%
X178900000Y-109725000D03*
%TO.P,R5,2*%
%TO.N,GND*%
X178900000Y-107900000D03*
%TD*%
D19*
%TO.P,D7,1*%
%TO.N,GND*%
X199037500Y-79550000D03*
%TO.P,D7,2*%
%TO.N,+3.3V*%
X199037500Y-81450000D03*
%TO.P,D7,3*%
%TO.N,ADC2*%
X197162500Y-80500000D03*
%TD*%
D20*
%TO.P,D8,1*%
%TO.N,GND*%
X198850000Y-85637500D03*
%TO.P,D8,2*%
%TO.N,+3.3V*%
X196950000Y-85637500D03*
%TO.P,D8,3*%
%TO.N,ADC3*%
X197900000Y-83762500D03*
%TD*%
%TO.P,D6,1*%
%TO.N,GND*%
X165650000Y-93537500D03*
%TO.P,D6,2*%
%TO.N,+3.3V*%
X163750000Y-93537500D03*
%TO.P,D6,3*%
%TO.N,RX0*%
X164700000Y-91662500D03*
%TD*%
D16*
%TO.P,R6,1*%
%TO.N,Net-(J19-Pad2)*%
X181400000Y-82100000D03*
%TO.P,R6,2*%
%TO.N,D2*%
X181400000Y-83925000D03*
%TD*%
D21*
%TO.P,D1,1*%
%TO.N,GND*%
X162262500Y-109650000D03*
%TO.P,D1,2*%
%TO.N,+3.3V*%
X162262500Y-107750000D03*
%TO.P,D1,3*%
%TO.N,D32*%
X164137500Y-108700000D03*
%TD*%
D16*
%TO.P,R7,1*%
%TO.N,Net-(J20-Pad2)*%
X178800000Y-82075000D03*
%TO.P,R7,2*%
%TO.N,D4*%
X178800000Y-83900000D03*
%TD*%
D20*
%TO.P,D5,1*%
%TO.N,GND*%
X159900000Y-93500000D03*
%TO.P,D5,2*%
%TO.N,+3.3V*%
X158000000Y-93500000D03*
%TO.P,D5,3*%
%TO.N,TX0*%
X158950000Y-91625000D03*
%TD*%
D22*
%TO.N,+5V*%
X199300000Y-116000000D03*
%TO.N,GND*%
X145600000Y-93800000D03*
X200900000Y-83900000D03*
X172000000Y-95600000D03*
X165600000Y-103700000D03*
X145275142Y-107075142D03*
X194650000Y-97950000D03*
X161800000Y-91600000D03*
X158050000Y-109425000D03*
%TO.N,+5VP*%
X189500000Y-105900000D03*
X145322500Y-104561500D03*
%TO.N,ADC2*%
X133440500Y-96600000D03*
X178546592Y-75494900D03*
%TO.N,ADC3*%
X193400000Y-87200000D03*
X151000000Y-93400000D03*
%TO.N,ADC0*%
X152325142Y-108325142D03*
X155311698Y-119088302D03*
%TO.N,ENC0*%
X145100232Y-90994675D03*
X175625000Y-76538500D03*
%TO.N,AMP1*%
X148400000Y-93400000D03*
X193000000Y-114500000D03*
%TO.N,ECHO1*%
X177049892Y-123838500D03*
X151038500Y-96300000D03*
%TO.N,TRIG1*%
X150000000Y-108300000D03*
X172900000Y-123838500D03*
%TO.N,AMP2*%
X182125000Y-77011500D03*
X133388200Y-99101974D03*
%TO.N,L_TCRT*%
X148538500Y-111200000D03*
X145100000Y-111300000D03*
%TO.N,TXB*%
X148000000Y-77561000D03*
X148000000Y-80884500D03*
%TO.N,PWM1N*%
X132700000Y-111600000D03*
X132700000Y-101400000D03*
%TO.N,PWM2*%
X129800000Y-111500000D03*
X170300000Y-77561500D03*
%TD*%
D23*
%TO.N,+5V*%
X199300000Y-116000000D02*
X202460000Y-112840000D01*
X195300000Y-109800000D02*
X198400000Y-112900000D01*
X194200000Y-109800000D02*
X195300000Y-109800000D01*
X188900000Y-109600000D02*
X188900000Y-112815000D01*
X188900000Y-112815000D02*
X189160000Y-113075000D01*
X194200000Y-109800000D02*
X189100000Y-109800000D01*
X202740000Y-112900000D02*
X202800000Y-112840000D01*
X198400000Y-112900000D02*
X202740000Y-112900000D01*
X202460000Y-112840000D02*
X202800000Y-112840000D01*
X189100000Y-109800000D02*
X188900000Y-109600000D01*
%TO.N,GND*%
X171400000Y-107887500D02*
X173887500Y-107887500D01*
X186620000Y-113075000D02*
X186620000Y-109805000D01*
X173900000Y-107900000D02*
X174058400Y-108058400D01*
X186620000Y-109805000D02*
X186825000Y-109600000D01*
X173887500Y-107887500D02*
X173900000Y-107900000D01*
%TO.N,+3.3V*%
X196950000Y-86250000D02*
X196950000Y-85637500D01*
X189160000Y-87700000D02*
X189160000Y-89589100D01*
X162200000Y-95087500D02*
X162200000Y-107687500D01*
X202800000Y-82969971D02*
X201280029Y-81450000D01*
X168950000Y-107562500D02*
X168950000Y-102050000D01*
X188937500Y-91400000D02*
X189160000Y-91177500D01*
X188937500Y-91814700D02*
X179452200Y-101300000D01*
X179452200Y-101300000D02*
X169700000Y-101300000D01*
X163750000Y-93537500D02*
X162200000Y-95087500D01*
X189160000Y-91177500D02*
X189160000Y-89589100D01*
X193610900Y-89589100D02*
X196950000Y-86250000D01*
X202800000Y-107760000D02*
X202800000Y-82969971D01*
X189160000Y-89589100D02*
X193610900Y-89589100D01*
X161787500Y-95500000D02*
X163750000Y-93537500D01*
X198269632Y-87264000D02*
X200436000Y-87264000D01*
X201280029Y-81450000D02*
X199037500Y-81450000D01*
X163200000Y-101300000D02*
X162200000Y-102300000D01*
X162200000Y-107687500D02*
X162262500Y-107750000D01*
X200436000Y-87264000D02*
X202800000Y-84900000D01*
X196950000Y-85944368D02*
X198269632Y-87264000D01*
X159200000Y-95500000D02*
X161787500Y-95500000D01*
X169700000Y-101300000D02*
X163200000Y-101300000D01*
X158000000Y-94300000D02*
X159200000Y-95500000D01*
X158000000Y-93500000D02*
X158000000Y-94300000D01*
X196950000Y-85637500D02*
X196950000Y-85944368D01*
X188937500Y-91400000D02*
X188937500Y-91814700D01*
X168950000Y-102050000D02*
X169700000Y-101300000D01*
D24*
%TO.N,D32*%
X166300000Y-113027100D02*
X166300000Y-113700000D01*
X166300000Y-113700000D02*
X164700000Y-115300000D01*
X161560000Y-115300000D02*
X158900000Y-117960000D01*
X164700000Y-115300000D02*
X161560000Y-115300000D01*
X164137500Y-110637500D02*
X166300000Y-112800000D01*
X166300000Y-112800000D02*
X166300000Y-113027100D01*
X166300000Y-113075000D02*
X166300000Y-113027100D01*
X164137500Y-108700000D02*
X164137500Y-110637500D01*
%TO.N,D33*%
X163540000Y-117960000D02*
X163000000Y-117960000D01*
X168000000Y-109437500D02*
X168840000Y-110277500D01*
X168840000Y-110277500D02*
X168840000Y-113075000D01*
X165900000Y-115600000D02*
X163540000Y-117960000D01*
X167600000Y-115600000D02*
X165900000Y-115600000D01*
X168800000Y-114400000D02*
X167600000Y-115600000D01*
X168840000Y-113075000D02*
X168800000Y-113115000D01*
X168800000Y-113115000D02*
X168800000Y-114400000D01*
D23*
%TO.N,+5VP*%
X140287500Y-106040000D02*
X137747500Y-106040000D01*
X143638500Y-104561500D02*
X142160000Y-106040000D01*
X145322500Y-104561500D02*
X143638500Y-104561500D01*
X193800000Y-105900000D02*
X194200000Y-105500000D01*
X189500000Y-105900000D02*
X193800000Y-105900000D01*
X142160000Y-106040000D02*
X140287500Y-106040000D01*
D24*
%TO.N,TX0*%
X154540000Y-80151840D02*
X156800000Y-82411840D01*
X154540000Y-79200000D02*
X154540000Y-80151840D01*
X158900000Y-87920000D02*
X158680000Y-87700000D01*
X158680000Y-86280000D02*
X158680000Y-87700000D01*
X156800000Y-82411840D02*
X156800000Y-84400000D01*
X158900000Y-91575000D02*
X158900000Y-87920000D01*
X158950000Y-91625000D02*
X158900000Y-91575000D01*
X156800000Y-84400000D02*
X158680000Y-86280000D01*
%TO.N,RX0*%
X164700000Y-91662500D02*
X161220000Y-88182500D01*
X161220000Y-87700000D02*
X161400000Y-87520000D01*
X161400000Y-83565000D02*
X161665000Y-83300000D01*
X161220000Y-88182500D02*
X161220000Y-87700000D01*
X161400000Y-87520000D02*
X161400000Y-83565000D01*
%TO.N,ADC2*%
X193400000Y-80700000D02*
X193714000Y-80700000D01*
X178691492Y-75350000D02*
X188364000Y-75350000D01*
X133440500Y-96600000D02*
X135700000Y-98859500D01*
X137210000Y-100960000D02*
X137747500Y-100960000D01*
X178546592Y-75494900D02*
X178691492Y-75350000D01*
X135700000Y-99450000D02*
X137210000Y-100960000D01*
X188364000Y-75350000D02*
X193714000Y-80700000D01*
X135700000Y-98859500D02*
X135700000Y-99450000D01*
X193914000Y-80500000D02*
X197162500Y-80500000D01*
X193714000Y-80700000D02*
X193914000Y-80500000D01*
%TO.N,ADC3*%
X193400000Y-87200000D02*
X193400000Y-83240000D01*
X197837500Y-83700000D02*
X193860000Y-83700000D01*
X193860000Y-83700000D02*
X193400000Y-83240000D01*
X134857400Y-86205760D02*
X134857400Y-91157400D01*
X151000000Y-91273680D02*
X146074320Y-86348000D01*
X151000000Y-93400000D02*
X151000000Y-91273680D01*
X197900000Y-83762500D02*
X197837500Y-83700000D01*
X144937480Y-86348000D02*
X142369480Y-83780000D01*
X146074320Y-86348000D02*
X144937480Y-86348000D01*
X137283160Y-83780000D02*
X134857400Y-86205760D01*
X142369480Y-83780000D02*
X137283160Y-83780000D01*
X134857400Y-91157400D02*
X137040000Y-93340000D01*
X137040000Y-93340000D02*
X137747500Y-93340000D01*
%TO.N,ADC0*%
X156723396Y-120500000D02*
X158900000Y-120500000D01*
X137280000Y-95880000D02*
X137747500Y-95880000D01*
X133841400Y-85784920D02*
X133841400Y-92441400D01*
X152325142Y-108325142D02*
X152700000Y-107950284D01*
X133841400Y-92441400D02*
X137280000Y-95880000D01*
X146495160Y-85332000D02*
X145358320Y-85332000D01*
X155311698Y-119088302D02*
X156723396Y-120500000D01*
X136862320Y-82764000D02*
X133841400Y-85784920D01*
X145358320Y-85332000D02*
X142790320Y-82764000D01*
X152700000Y-91536840D02*
X146495160Y-85332000D01*
X152700000Y-107950284D02*
X152700000Y-91536840D01*
X142790320Y-82764000D02*
X136862320Y-82764000D01*
%TO.N,ADC1*%
X154000000Y-109000707D02*
X154000000Y-91400000D01*
X145779160Y-84316000D02*
X143211160Y-81748000D01*
X151000000Y-117126320D02*
X151000000Y-112000707D01*
X143211160Y-81748000D02*
X136441480Y-81748000D01*
X132825400Y-85364080D02*
X132825400Y-93025400D01*
X136441480Y-81748000D02*
X132825400Y-85364080D01*
X163000000Y-121300000D02*
X161848000Y-122452000D01*
X135400000Y-96300000D02*
X137520000Y-98420000D01*
X132825400Y-93025400D02*
X135400000Y-95600000D01*
X161848000Y-122452000D02*
X156325680Y-122452000D01*
X151000000Y-112000707D02*
X154000000Y-109000707D01*
X137520000Y-98420000D02*
X137747500Y-98420000D01*
X154000000Y-91400000D02*
X146916000Y-84316000D01*
X135400000Y-95600000D02*
X135400000Y-96300000D01*
X156325680Y-122452000D02*
X151000000Y-117126320D01*
X146916000Y-84316000D02*
X145779160Y-84316000D01*
X163000000Y-120500000D02*
X163000000Y-121300000D01*
%TO.N,ENC0*%
X176243600Y-77157100D02*
X179495000Y-77157100D01*
X179495000Y-77157100D02*
X183037900Y-80700000D01*
X175625000Y-76538500D02*
X176243600Y-77157100D01*
X144594675Y-90994675D02*
X141860000Y-88260000D01*
X183037900Y-80700000D02*
X184800000Y-80700000D01*
X141860000Y-88260000D02*
X140287500Y-88260000D01*
X145100232Y-90994675D02*
X144594675Y-90994675D01*
%TO.N,AMP1*%
X135873400Y-86626600D02*
X135873400Y-89673400D01*
X141948640Y-84796000D02*
X137704000Y-84796000D01*
X135873400Y-89673400D02*
X137000000Y-90800000D01*
X148400000Y-93400000D02*
X148400000Y-90110520D01*
X137000000Y-90800000D02*
X137747500Y-90800000D01*
X193000000Y-114500000D02*
X193000000Y-115860000D01*
X137704000Y-84796000D02*
X135873400Y-86626600D01*
X193000000Y-115860000D02*
X191000000Y-117860000D01*
X148400000Y-90110520D02*
X145653480Y-87364000D01*
X144516640Y-87364000D02*
X141948640Y-84796000D01*
X145653480Y-87364000D02*
X144516640Y-87364000D01*
%TO.N,ECHO1*%
X145000000Y-96300000D02*
X142040000Y-93340000D01*
X179000000Y-121888392D02*
X179000000Y-120500000D01*
X177049892Y-123838500D02*
X179000000Y-121888392D01*
X151038500Y-96300000D02*
X145000000Y-96300000D01*
X142040000Y-93340000D02*
X140287500Y-93340000D01*
%TO.N,TRIG1*%
X175000000Y-121500000D02*
X175000000Y-120535000D01*
X150000000Y-103000000D02*
X142880000Y-95880000D01*
X150000000Y-108300000D02*
X150000000Y-103000000D01*
X172900000Y-123838500D02*
X172900000Y-123600000D01*
X142880000Y-95880000D02*
X140287500Y-95880000D01*
X172900000Y-123600000D02*
X175000000Y-121500000D01*
%TO.N,R_TCRT*%
X146876500Y-115876500D02*
X155484000Y-124484000D01*
X140287500Y-100960000D02*
X146523160Y-100960000D01*
X146876500Y-109623500D02*
X146876500Y-115876500D01*
X148000000Y-108500000D02*
X146876500Y-109623500D01*
X155484000Y-124484000D02*
X168116000Y-124484000D01*
X171000000Y-121600000D02*
X171000000Y-120500000D01*
X168116000Y-124484000D02*
X171000000Y-121600000D01*
X146523160Y-100960000D02*
X148000000Y-102436840D01*
X148000000Y-102436840D02*
X148000000Y-108500000D01*
%TO.N,AMP2*%
X134970608Y-100684382D02*
X134970608Y-101570608D01*
X182125000Y-77011500D02*
X182313500Y-77200000D01*
X134970608Y-101570608D02*
X136900000Y-103500000D01*
X136900000Y-103500000D02*
X137747500Y-103500000D01*
X187500000Y-77200000D02*
X189100000Y-78800000D01*
X189100000Y-78800000D02*
X189100000Y-80700000D01*
X182313500Y-77200000D02*
X187500000Y-77200000D01*
X133388200Y-99101974D02*
X134970608Y-100684382D01*
%TO.N,L_TCRT*%
X167000000Y-121500000D02*
X167000000Y-120500000D01*
X165032000Y-123468000D02*
X167000000Y-121500000D01*
X146984000Y-107716000D02*
X146984000Y-103484000D01*
X140887500Y-102900000D02*
X140287500Y-103500000D01*
X155904840Y-123468000D02*
X165032000Y-123468000D01*
X148538500Y-116101660D02*
X155904840Y-123468000D01*
X145100000Y-109600000D02*
X146984000Y-107716000D01*
X146400000Y-102900000D02*
X140887500Y-102900000D01*
X148538500Y-111200000D02*
X148538500Y-116101660D01*
X146984000Y-103484000D02*
X146400000Y-102900000D01*
X145100000Y-111300000D02*
X145100000Y-109600000D01*
%TO.N,TXB*%
X148529000Y-77032000D02*
X156032000Y-77032000D01*
X156032000Y-77032000D02*
X156800000Y-77800000D01*
X159125000Y-82725000D02*
X159125000Y-83300000D01*
X148000000Y-77561000D02*
X148529000Y-77032000D01*
X145684500Y-80884500D02*
X144516000Y-79716000D01*
X130710700Y-102010700D02*
X137280000Y-108580000D01*
X156800000Y-80400000D02*
X159125000Y-82725000D01*
X144516000Y-79716000D02*
X135599796Y-79716000D01*
X156800000Y-77800000D02*
X156800000Y-80400000D01*
X148000000Y-80884500D02*
X145684500Y-80884500D01*
X130710700Y-84605096D02*
X130710700Y-102010700D01*
X137280000Y-108580000D02*
X137747500Y-108580000D01*
X135599796Y-79716000D02*
X130710700Y-84605096D01*
%TO.N,RXB*%
X152000000Y-79200000D02*
X151977000Y-79223000D01*
X137120000Y-111120000D02*
X137747500Y-111120000D01*
X129694700Y-103694700D02*
X137120000Y-111120000D01*
X151977000Y-79223000D02*
X147311577Y-79223000D01*
X129694700Y-84184259D02*
X129694700Y-103694700D01*
X147311577Y-79223000D02*
X146788577Y-78700000D01*
X135178959Y-78700000D02*
X129694700Y-84184259D01*
X146788577Y-78700000D02*
X135178959Y-78700000D01*
%TO.N,TRIG0*%
X178800000Y-125500000D02*
X183000000Y-121300000D01*
X140287500Y-111120000D02*
X140520000Y-111120000D01*
X140520000Y-111120000D02*
X154900000Y-125500000D01*
X183000000Y-121300000D02*
X183000000Y-120500000D01*
X154900000Y-125500000D02*
X178800000Y-125500000D01*
%TO.N,PWM1*%
X156232000Y-75632000D02*
X159150000Y-78550000D01*
X128678700Y-83763413D02*
X136810113Y-75632000D01*
X159150000Y-78550000D02*
X159150000Y-79200000D01*
X128678700Y-105178700D02*
X128678700Y-83763413D01*
X136810113Y-75632000D02*
X156232000Y-75632000D01*
X137747500Y-113660000D02*
X137160000Y-113660000D01*
X137160000Y-113660000D02*
X128678700Y-105178700D01*
%TO.N,ECHO0*%
X140287500Y-113660000D02*
X141623160Y-113660000D01*
X154479160Y-126516000D02*
X181784000Y-126516000D01*
X181784000Y-126516000D02*
X187000000Y-121300000D01*
X141623160Y-113660000D02*
X154479160Y-126516000D01*
X187000000Y-121300000D02*
X187000000Y-120535000D01*
%TO.N,PWM1N*%
X132700000Y-101400000D02*
X131726700Y-100426700D01*
X131726700Y-100426700D02*
X131726700Y-85025938D01*
X132700000Y-111900000D02*
X137000000Y-116200000D01*
X146200000Y-83300000D02*
X152000000Y-83300000D01*
X143632000Y-80732000D02*
X146200000Y-83300000D01*
X137000000Y-116200000D02*
X137747500Y-116200000D01*
X136020638Y-80732000D02*
X143632000Y-80732000D01*
X131726700Y-85025938D02*
X136020638Y-80732000D01*
X132700000Y-111600000D02*
X132700000Y-111900000D01*
%TO.N,ENC1*%
X142500000Y-119800000D02*
X142500000Y-117900000D01*
X140300000Y-122000000D02*
X142500000Y-119800000D01*
X142500000Y-117900000D02*
X140800000Y-116200000D01*
X140800000Y-116200000D02*
X140287500Y-116200000D01*
X126646700Y-82921738D02*
X126646700Y-113746700D01*
X134900000Y-122000000D02*
X140300000Y-122000000D01*
X175500000Y-80700000D02*
X175500000Y-79900000D01*
X175500000Y-79900000D02*
X169200000Y-73600000D01*
X135968438Y-73600000D02*
X126646700Y-82921738D01*
X126646700Y-113746700D02*
X134900000Y-122000000D01*
X169200000Y-73600000D02*
X135968438Y-73600000D01*
%TO.N,PWM2*%
X129800000Y-111500000D02*
X137040000Y-118740000D01*
X137040000Y-118740000D02*
X137747500Y-118740000D01*
X170300000Y-77561500D02*
X170300000Y-80700000D01*
%TO.N,PWM2N*%
X127662700Y-112662700D02*
X135984000Y-120984000D01*
X135984000Y-120984000D02*
X139416000Y-120984000D01*
X127662700Y-83342571D02*
X127662700Y-112662700D01*
X161716000Y-74616000D02*
X136389271Y-74616000D01*
X166100000Y-79000000D02*
X161716000Y-74616000D01*
X136389271Y-74616000D02*
X127662700Y-83342571D01*
X140287500Y-120112500D02*
X140287500Y-118740000D01*
X139416000Y-120984000D02*
X140287500Y-120112500D01*
X166100000Y-80700000D02*
X166100000Y-79000000D01*
%TO.N,D25*%
X170617100Y-115600000D02*
X169360000Y-115600000D01*
X171400000Y-109712500D02*
X171380000Y-109732500D01*
X171380000Y-109732500D02*
X171380000Y-113075000D01*
X169360000Y-115600000D02*
X167000000Y-117960000D01*
X171380000Y-113075000D02*
X171380000Y-114837100D01*
X171380000Y-114837100D02*
X170617100Y-115600000D01*
%TO.N,D26*%
X173920000Y-114780000D02*
X171000000Y-117700000D01*
X173920000Y-113075000D02*
X173920000Y-114780000D01*
X171000000Y-117700000D02*
X171000000Y-117960000D01*
X173900000Y-109725000D02*
X173920000Y-109745000D01*
X173920000Y-109745000D02*
X173920000Y-113075000D01*
%TO.N,D27*%
X175000000Y-117995000D02*
X175000000Y-116700000D01*
X175000000Y-116700000D02*
X176460000Y-115240000D01*
X176460000Y-115240000D02*
X176460000Y-113075000D01*
%TO.N,D14*%
X179000000Y-109825000D02*
X179000000Y-113075000D01*
X179000000Y-113075000D02*
X179000000Y-117960000D01*
X178900000Y-109725000D02*
X179000000Y-109825000D01*
%TO.N,D12*%
X181540000Y-113075000D02*
X181540000Y-114640000D01*
X181540000Y-114640000D02*
X183000000Y-116100000D01*
X183000000Y-116100000D02*
X183000000Y-117960000D01*
%TO.N,D13*%
X184100000Y-109700000D02*
X184080000Y-109720000D01*
X187000000Y-117800000D02*
X187000000Y-117995000D01*
X184080000Y-114880000D02*
X187000000Y-117800000D01*
X184080000Y-109720000D02*
X184080000Y-113075000D01*
X184080000Y-113075000D02*
X184080000Y-114880000D01*
%TO.N,D22*%
X154540000Y-83640000D02*
X154540000Y-83300000D01*
X156140000Y-85240000D02*
X154540000Y-83640000D01*
X156140000Y-87700000D02*
X156140000Y-85240000D01*
%TO.N,D21*%
X161690000Y-79790000D02*
X163760000Y-81860000D01*
X163760000Y-81860000D02*
X163760000Y-87700000D01*
X161690000Y-79200000D02*
X161690000Y-79790000D01*
%TO.N,D19*%
X166100000Y-87500000D02*
X166300000Y-87700000D01*
X166100000Y-83240000D02*
X166100000Y-87500000D01*
%TO.N,D18*%
X168840000Y-85760000D02*
X170300000Y-84300000D01*
X168840000Y-87700000D02*
X168840000Y-85760000D01*
X170300000Y-84300000D02*
X170300000Y-83240000D01*
%TO.N,D4*%
X178900000Y-91075000D02*
X179000000Y-90975000D01*
X178800000Y-83900000D02*
X179000000Y-84100000D01*
X179000000Y-90975000D02*
X179000000Y-87700000D01*
X179000000Y-84100000D02*
X179000000Y-87700000D01*
%TO.N,D2*%
X181540000Y-90935000D02*
X181400000Y-91075000D01*
X181540000Y-84065000D02*
X181540000Y-87700000D01*
X181400000Y-83925000D02*
X181540000Y-84065000D01*
X181540000Y-87700000D02*
X181540000Y-90935000D01*
%TO.N,Net-(J19-Pad2)*%
X184800000Y-83240000D02*
X183037900Y-83240000D01*
X181400000Y-82100000D02*
X181897900Y-82100000D01*
X181897900Y-82100000D02*
X183037900Y-83240000D01*
%TO.N,Net-(J20-Pad2)*%
X175500000Y-83240000D02*
X177262100Y-83240000D01*
X178800000Y-82075000D02*
X178427100Y-82075000D01*
X178427100Y-82075000D02*
X177262100Y-83240000D01*
%TD*%
%TA.AperFunction,Conductor*%
%TO.N,GND*%
G36*
X205418319Y-72644758D02*
G01*
X205500398Y-72699602D01*
X205555242Y-72781681D01*
X205574500Y-72878500D01*
X205574500Y-126421500D01*
X205555242Y-126518319D01*
X205500398Y-126600398D01*
X205418319Y-126655242D01*
X205321500Y-126674500D01*
X183374031Y-126674500D01*
X183277212Y-126655242D01*
X183195133Y-126600398D01*
X183140289Y-126518319D01*
X183121031Y-126421500D01*
X183140289Y-126324681D01*
X183195133Y-126242602D01*
X187278133Y-122159602D01*
X187360212Y-122104758D01*
X187457031Y-122085500D01*
X188042772Y-122085500D01*
X188050330Y-122084585D01*
X188050336Y-122084585D01*
X188078550Y-122081170D01*
X188132547Y-122074636D01*
X188272783Y-122019113D01*
X188286517Y-122008688D01*
X188286521Y-122008686D01*
X188379185Y-121938349D01*
X188392922Y-121927922D01*
X188429916Y-121879185D01*
X188473686Y-121821521D01*
X188473688Y-121821517D01*
X188484113Y-121807783D01*
X188539636Y-121667547D01*
X188546170Y-121613550D01*
X188549585Y-121585336D01*
X188549585Y-121585330D01*
X188550500Y-121577772D01*
X188550500Y-121541245D01*
X189492001Y-121541245D01*
X189492740Y-121554888D01*
X189497035Y-121594436D01*
X189504318Y-121625064D01*
X189543501Y-121729585D01*
X189560637Y-121760885D01*
X189626285Y-121848479D01*
X189651521Y-121873715D01*
X189739115Y-121939363D01*
X189770415Y-121956499D01*
X189874936Y-121995682D01*
X189905566Y-122002966D01*
X189945095Y-122007260D01*
X189958764Y-122008000D01*
X190721082Y-122008000D01*
X190741866Y-122003866D01*
X190746000Y-121983082D01*
X190746000Y-121983081D01*
X191254000Y-121983081D01*
X191258134Y-122003865D01*
X191278918Y-122007999D01*
X192041245Y-122007999D01*
X192054888Y-122007260D01*
X192094436Y-122002965D01*
X192125064Y-121995682D01*
X192229585Y-121956499D01*
X192260885Y-121939363D01*
X192348479Y-121873715D01*
X192373715Y-121848479D01*
X192439363Y-121760885D01*
X192456499Y-121729585D01*
X192495682Y-121625064D01*
X192502966Y-121594434D01*
X192507260Y-121554905D01*
X192508000Y-121541236D01*
X192508000Y-120778918D01*
X192503866Y-120758134D01*
X192483082Y-120754000D01*
X191278918Y-120754000D01*
X191258134Y-120758134D01*
X191254000Y-120778918D01*
X191254000Y-121983081D01*
X190746000Y-121983081D01*
X190746000Y-120778918D01*
X190741866Y-120758134D01*
X190721082Y-120754000D01*
X189516919Y-120754000D01*
X189496135Y-120758134D01*
X189492001Y-120778918D01*
X189492001Y-121541245D01*
X188550500Y-121541245D01*
X188550500Y-119492228D01*
X188539636Y-119402453D01*
X188484113Y-119262217D01*
X188473688Y-119248483D01*
X188473686Y-119248479D01*
X188403349Y-119155815D01*
X188392922Y-119142078D01*
X188379185Y-119131651D01*
X188366988Y-119119454D01*
X188368907Y-119117535D01*
X188320533Y-119062954D01*
X188288313Y-118969644D01*
X188294253Y-118871108D01*
X188323255Y-118803115D01*
X188380578Y-118709573D01*
X188385777Y-118701089D01*
X188437928Y-118575184D01*
X188475369Y-118484794D01*
X188475370Y-118484791D01*
X188479172Y-118475612D01*
X188485371Y-118449794D01*
X188533824Y-118247973D01*
X188536146Y-118238302D01*
X188555294Y-117995000D01*
X188552539Y-117960000D01*
X189444706Y-117960000D01*
X189463854Y-118203302D01*
X189520828Y-118440612D01*
X189524630Y-118449791D01*
X189524631Y-118449794D01*
X189543552Y-118495474D01*
X189614223Y-118666089D01*
X189619419Y-118674568D01*
X189619420Y-118674570D01*
X189699039Y-118804497D01*
X189733206Y-118897112D01*
X189729330Y-118995751D01*
X189688002Y-119085399D01*
X189662219Y-119115587D01*
X189626285Y-119151521D01*
X189560637Y-119239115D01*
X189543501Y-119270415D01*
X189504318Y-119374936D01*
X189497034Y-119405566D01*
X189492740Y-119445095D01*
X189492000Y-119458764D01*
X189492000Y-120221082D01*
X189496134Y-120241866D01*
X189516918Y-120246000D01*
X192483081Y-120246000D01*
X192503865Y-120241866D01*
X192507999Y-120221082D01*
X192507999Y-119458755D01*
X192507260Y-119445112D01*
X192502965Y-119405564D01*
X192495682Y-119374936D01*
X192456499Y-119270415D01*
X192439363Y-119239115D01*
X192373715Y-119151521D01*
X192337781Y-119115587D01*
X192282937Y-119033508D01*
X192263679Y-118936689D01*
X192282937Y-118839870D01*
X192300961Y-118804497D01*
X192380580Y-118674570D01*
X192380581Y-118674568D01*
X192385777Y-118666089D01*
X192456448Y-118495474D01*
X192475369Y-118449794D01*
X192475370Y-118449791D01*
X192479172Y-118440612D01*
X192536146Y-118203302D01*
X192555294Y-117960000D01*
X192536146Y-117716698D01*
X192533824Y-117707024D01*
X192527604Y-117681119D01*
X192519833Y-117648751D01*
X192515957Y-117550113D01*
X192550123Y-117457499D01*
X192586944Y-117410791D01*
X193561873Y-116435862D01*
X193563756Y-116433998D01*
X193617285Y-116381579D01*
X193617287Y-116381577D01*
X193627388Y-116371685D01*
X193635047Y-116359800D01*
X193635050Y-116359797D01*
X193647253Y-116340861D01*
X193662189Y-116320075D01*
X193676247Y-116302464D01*
X193685070Y-116291412D01*
X193691224Y-116278682D01*
X193691229Y-116278674D01*
X193696196Y-116268399D01*
X193711312Y-116241461D01*
X193712301Y-116239927D01*
X193725160Y-116219973D01*
X193729996Y-116206686D01*
X193729999Y-116206680D01*
X193737708Y-116185499D01*
X193747669Y-116161919D01*
X193757467Y-116141651D01*
X193757468Y-116141648D01*
X193763624Y-116128914D01*
X193769373Y-116104012D01*
X193778144Y-116074402D01*
X193782051Y-116063667D01*
X193782051Y-116063666D01*
X193786891Y-116050369D01*
X193791486Y-116013993D01*
X193795976Y-115988786D01*
X193801044Y-115966834D01*
X193804226Y-115953052D01*
X193804368Y-115912211D01*
X193804377Y-115911950D01*
X193804500Y-115910978D01*
X193804500Y-115874864D01*
X193804502Y-115873982D01*
X193804630Y-115837268D01*
X193824225Y-115740517D01*
X193879355Y-115658629D01*
X193910704Y-115632183D01*
X193939445Y-115611683D01*
X194029795Y-115521648D01*
X194101039Y-115450653D01*
X194101043Y-115450649D01*
X194108397Y-115443320D01*
X194114454Y-115434890D01*
X194114458Y-115434886D01*
X194241523Y-115258055D01*
X194247582Y-115249623D01*
X194353263Y-115035795D01*
X194356844Y-115024011D01*
X194419581Y-114817515D01*
X194419582Y-114817511D01*
X194422600Y-114807577D01*
X194453733Y-114571099D01*
X194453971Y-114561388D01*
X194455306Y-114506738D01*
X194455471Y-114500000D01*
X194452559Y-114464581D01*
X194436778Y-114272631D01*
X194436777Y-114272627D01*
X194435927Y-114262284D01*
X194431959Y-114246484D01*
X194394334Y-114096694D01*
X194377821Y-114030952D01*
X194282712Y-113812216D01*
X194153155Y-113611951D01*
X193992629Y-113435536D01*
X193922084Y-113379823D01*
X193813595Y-113294143D01*
X193813591Y-113294140D01*
X193805445Y-113287707D01*
X193781740Y-113274621D01*
X193605720Y-113177453D01*
X193605716Y-113177451D01*
X193596631Y-113172436D01*
X193586843Y-113168970D01*
X193586841Y-113168969D01*
X193381587Y-113096285D01*
X193381588Y-113096285D01*
X193371794Y-113092817D01*
X193361573Y-113090996D01*
X193361568Y-113090995D01*
X193201624Y-113062505D01*
X193136972Y-113050988D01*
X193126592Y-113050861D01*
X193126590Y-113050861D01*
X193002902Y-113049350D01*
X192898471Y-113048074D01*
X192809784Y-113061645D01*
X192672962Y-113082582D01*
X192672958Y-113082583D01*
X192662698Y-113084153D01*
X192435982Y-113158255D01*
X192224414Y-113268390D01*
X192216116Y-113274620D01*
X192216115Y-113274621D01*
X192041973Y-113405371D01*
X192041968Y-113405375D01*
X192033675Y-113411602D01*
X191868887Y-113584042D01*
X191734475Y-113781082D01*
X191634051Y-113997428D01*
X191570309Y-114227272D01*
X191566991Y-114258319D01*
X191546402Y-114450978D01*
X191544963Y-114464440D01*
X191558694Y-114702562D01*
X191611131Y-114935245D01*
X191700867Y-115156239D01*
X191706288Y-115165086D01*
X191706291Y-115165091D01*
X191783081Y-115290400D01*
X191825493Y-115359609D01*
X191920622Y-115469429D01*
X191969457Y-115555219D01*
X191981744Y-115653167D01*
X191955612Y-115748361D01*
X191908289Y-115813976D01*
X191376863Y-116345402D01*
X191294784Y-116400246D01*
X191197965Y-116419504D01*
X191178121Y-116418724D01*
X191000000Y-116404706D01*
X190756698Y-116423854D01*
X190661152Y-116446793D01*
X190529055Y-116478507D01*
X190529054Y-116478507D01*
X190519388Y-116480828D01*
X190510209Y-116484630D01*
X190510206Y-116484631D01*
X190410656Y-116525866D01*
X190293911Y-116574223D01*
X190085821Y-116701741D01*
X189900241Y-116860241D01*
X189741741Y-117045821D01*
X189614223Y-117253911D01*
X189595232Y-117299759D01*
X189524717Y-117470000D01*
X189520828Y-117479388D01*
X189518507Y-117489054D01*
X189518507Y-117489055D01*
X189512425Y-117514388D01*
X189463854Y-117716698D01*
X189444706Y-117960000D01*
X188552539Y-117960000D01*
X188536146Y-117751698D01*
X188501441Y-117607144D01*
X188481493Y-117524055D01*
X188481493Y-117524054D01*
X188479172Y-117514388D01*
X188473777Y-117501362D01*
X188414440Y-117358111D01*
X188385777Y-117288911D01*
X188258259Y-117080821D01*
X188099759Y-116895241D01*
X187914179Y-116736741D01*
X187706089Y-116609223D01*
X187523735Y-116533690D01*
X187489794Y-116519631D01*
X187489791Y-116519630D01*
X187480612Y-116515828D01*
X187470946Y-116513507D01*
X187470945Y-116513507D01*
X187325161Y-116478507D01*
X187243302Y-116458854D01*
X187000000Y-116439706D01*
X186909954Y-116446793D01*
X186811923Y-116435190D01*
X186725794Y-116386956D01*
X186711206Y-116373471D01*
X185013400Y-114675665D01*
X184958556Y-114593586D01*
X184939298Y-114496767D01*
X184958556Y-114399948D01*
X185013400Y-114317869D01*
X185027987Y-114304384D01*
X185028481Y-114303962D01*
X185179759Y-114174759D01*
X185187131Y-114166127D01*
X185187871Y-114165544D01*
X185193244Y-114160171D01*
X185193880Y-114160807D01*
X185264651Y-114105013D01*
X185359660Y-114078216D01*
X185457692Y-114089817D01*
X185543822Y-114138050D01*
X185557442Y-114150640D01*
X185723319Y-114292313D01*
X185739352Y-114303962D01*
X185924789Y-114417599D01*
X185942449Y-114426597D01*
X186143378Y-114509824D01*
X186162231Y-114515950D01*
X186341768Y-114559053D01*
X186362945Y-114559885D01*
X186365473Y-114554403D01*
X186366000Y-114549951D01*
X186366000Y-113074000D01*
X186385258Y-112977181D01*
X186440102Y-112895102D01*
X186522181Y-112840258D01*
X186619000Y-112821000D01*
X186621000Y-112821000D01*
X186717819Y-112840258D01*
X186799898Y-112895102D01*
X186854742Y-112977181D01*
X186874000Y-113074000D01*
X186874000Y-114539953D01*
X186878134Y-114560737D01*
X186884056Y-114561915D01*
X186888510Y-114561388D01*
X187077769Y-114515950D01*
X187096622Y-114509824D01*
X187297551Y-114426597D01*
X187315211Y-114417599D01*
X187500648Y-114303962D01*
X187516681Y-114292313D01*
X187689614Y-114144614D01*
X187690463Y-114145607D01*
X187763666Y-114096694D01*
X187860485Y-114077436D01*
X187957304Y-114096694D01*
X188039383Y-114151538D01*
X188052862Y-114166119D01*
X188060241Y-114174759D01*
X188245821Y-114333259D01*
X188320579Y-114379071D01*
X188437921Y-114450978D01*
X188453911Y-114460777D01*
X188487778Y-114474805D01*
X188670206Y-114550369D01*
X188670209Y-114550370D01*
X188679388Y-114554172D01*
X188689054Y-114556493D01*
X188689055Y-114556493D01*
X188709444Y-114561388D01*
X188916698Y-114611146D01*
X189160000Y-114630294D01*
X189403302Y-114611146D01*
X189610556Y-114561388D01*
X189630945Y-114556493D01*
X189630946Y-114556493D01*
X189640612Y-114554172D01*
X189649791Y-114550370D01*
X189649794Y-114550369D01*
X189832222Y-114474805D01*
X189866089Y-114460777D01*
X189882080Y-114450978D01*
X189999421Y-114379071D01*
X190074179Y-114333259D01*
X190259759Y-114174759D01*
X190418259Y-113989179D01*
X190532045Y-113803498D01*
X190540580Y-113789570D01*
X190540581Y-113789568D01*
X190545777Y-113781089D01*
X190617239Y-113608564D01*
X190635369Y-113564794D01*
X190635370Y-113564791D01*
X190639172Y-113555612D01*
X190643665Y-113536900D01*
X190693824Y-113327973D01*
X190696146Y-113318302D01*
X190715294Y-113075000D01*
X190696146Y-112831698D01*
X190652656Y-112650553D01*
X190641493Y-112604055D01*
X190641493Y-112604054D01*
X190639172Y-112594388D01*
X190545777Y-112368911D01*
X190532063Y-112346531D01*
X190423454Y-112169299D01*
X190418259Y-112160821D01*
X190259759Y-111975241D01*
X190074179Y-111816741D01*
X189952306Y-111742057D01*
X189879818Y-111675049D01*
X189838490Y-111585401D01*
X189831500Y-111526340D01*
X189831500Y-110984500D01*
X189850758Y-110887681D01*
X189905602Y-110805602D01*
X189987681Y-110750758D01*
X190084500Y-110731500D01*
X192246500Y-110731500D01*
X192343319Y-110750758D01*
X192425398Y-110805602D01*
X192480242Y-110887681D01*
X192499500Y-110984500D01*
X192499500Y-111092772D01*
X192510364Y-111182547D01*
X192565887Y-111322783D01*
X192576312Y-111336517D01*
X192576314Y-111336521D01*
X192643357Y-111424845D01*
X192657078Y-111442922D01*
X192670815Y-111453349D01*
X192763479Y-111523686D01*
X192763483Y-111523688D01*
X192777217Y-111534113D01*
X192917453Y-111589636D01*
X192968621Y-111595828D01*
X192999664Y-111599585D01*
X192999670Y-111599585D01*
X193007228Y-111600500D01*
X195392772Y-111600500D01*
X195400330Y-111599585D01*
X195400336Y-111599585D01*
X195431379Y-111595828D01*
X195482547Y-111589636D01*
X195497647Y-111583658D01*
X195497657Y-111583655D01*
X195535598Y-111568633D01*
X195632707Y-111550898D01*
X195729212Y-111571676D01*
X195807629Y-111624969D01*
X197675412Y-113492752D01*
X197687037Y-113506363D01*
X197687279Y-113506145D01*
X197696156Y-113516004D01*
X197703948Y-113526728D01*
X197753660Y-113571489D01*
X197763249Y-113580589D01*
X197775849Y-113593189D01*
X197780990Y-113597352D01*
X197789685Y-113604393D01*
X197799759Y-113612997D01*
X197849462Y-113657750D01*
X197860941Y-113664377D01*
X197870083Y-113671019D01*
X197879570Y-113677180D01*
X197889875Y-113685525D01*
X197949461Y-113715885D01*
X197961103Y-113722206D01*
X198007552Y-113749024D01*
X198007556Y-113749026D01*
X198019038Y-113755655D01*
X198031650Y-113759753D01*
X198041978Y-113764351D01*
X198052528Y-113768401D01*
X198064341Y-113774420D01*
X198077145Y-113777851D01*
X198077151Y-113777853D01*
X198128955Y-113791734D01*
X198141655Y-113795496D01*
X198188494Y-113810714D01*
X198205263Y-113816163D01*
X198218451Y-113817549D01*
X198229501Y-113819898D01*
X198240670Y-113821667D01*
X198253479Y-113825099D01*
X198318641Y-113828514D01*
X198320263Y-113828599D01*
X198333464Y-113829638D01*
X198351183Y-113831500D01*
X198368995Y-113831500D01*
X198382236Y-113831847D01*
X198449019Y-113835347D01*
X198462114Y-113833273D01*
X198475357Y-113832579D01*
X198475374Y-113832904D01*
X198493219Y-113831500D01*
X199540364Y-113831500D01*
X199637183Y-113850758D01*
X199719262Y-113905602D01*
X199774106Y-113987681D01*
X199793364Y-114084500D01*
X199774106Y-114181319D01*
X199719262Y-114263398D01*
X199507121Y-114475539D01*
X199425042Y-114530383D01*
X199325133Y-114549622D01*
X199198471Y-114548074D01*
X199111465Y-114561388D01*
X198972962Y-114582582D01*
X198972958Y-114582583D01*
X198962698Y-114584153D01*
X198735982Y-114658255D01*
X198524414Y-114768390D01*
X198516116Y-114774620D01*
X198516115Y-114774621D01*
X198341973Y-114905371D01*
X198341968Y-114905375D01*
X198333675Y-114911602D01*
X198168887Y-115084042D01*
X198034475Y-115281082D01*
X197934051Y-115497428D01*
X197931276Y-115507434D01*
X197931275Y-115507437D01*
X197930302Y-115510945D01*
X197870309Y-115727272D01*
X197869205Y-115737604D01*
X197847692Y-115938908D01*
X197844963Y-115964440D01*
X197858694Y-116202562D01*
X197911131Y-116435245D01*
X198000867Y-116656239D01*
X198006288Y-116665086D01*
X198006291Y-116665091D01*
X198047015Y-116731546D01*
X198125493Y-116859609D01*
X198281660Y-117039894D01*
X198465176Y-117192252D01*
X198671112Y-117312591D01*
X198893937Y-117397680D01*
X199006985Y-117420680D01*
X199117496Y-117443164D01*
X199117497Y-117443164D01*
X199127666Y-117445233D01*
X199366025Y-117453973D01*
X199376327Y-117452653D01*
X199376332Y-117452653D01*
X199592308Y-117424985D01*
X199592312Y-117424984D01*
X199602609Y-117423665D01*
X199831068Y-117355125D01*
X200045264Y-117250191D01*
X200119146Y-117197492D01*
X200230994Y-117117711D01*
X200239445Y-117111683D01*
X200363305Y-116988255D01*
X200401039Y-116950653D01*
X200401043Y-116950649D01*
X200408397Y-116943320D01*
X200414454Y-116934890D01*
X200414458Y-116934886D01*
X200541523Y-116758055D01*
X200547582Y-116749623D01*
X200653263Y-116535795D01*
X200659330Y-116515828D01*
X200719581Y-116317515D01*
X200719582Y-116317511D01*
X200722600Y-116307577D01*
X200753733Y-116071099D01*
X200755471Y-116000000D01*
X200754578Y-115989141D01*
X200754755Y-115987600D01*
X200754725Y-115986551D01*
X200754876Y-115986547D01*
X200765837Y-115891071D01*
X200813770Y-115804774D01*
X200827829Y-115789511D01*
X202202088Y-114415252D01*
X202284167Y-114360408D01*
X202380986Y-114341150D01*
X202440045Y-114348140D01*
X202556698Y-114376146D01*
X202800000Y-114395294D01*
X203043302Y-114376146D01*
X203200298Y-114338454D01*
X203270945Y-114321493D01*
X203270946Y-114321493D01*
X203280612Y-114319172D01*
X203289791Y-114315370D01*
X203289794Y-114315369D01*
X203417953Y-114262284D01*
X203506089Y-114225777D01*
X203519988Y-114217260D01*
X203579957Y-114180511D01*
X203714179Y-114098259D01*
X203899759Y-113939759D01*
X204058259Y-113754179D01*
X204157259Y-113592626D01*
X204180580Y-113554570D01*
X204180581Y-113554568D01*
X204185777Y-113546089D01*
X204279172Y-113320612D01*
X204336146Y-113083302D01*
X204355294Y-112840000D01*
X204336146Y-112596698D01*
X204287062Y-112392252D01*
X204281493Y-112369055D01*
X204281493Y-112369054D01*
X204279172Y-112359388D01*
X204273847Y-112346531D01*
X204189583Y-112143100D01*
X204185777Y-112133911D01*
X204058259Y-111925821D01*
X203899759Y-111740241D01*
X203891127Y-111732869D01*
X203890544Y-111732129D01*
X203885171Y-111726756D01*
X203885807Y-111726120D01*
X203830013Y-111655349D01*
X203803216Y-111560340D01*
X203814817Y-111462308D01*
X203863050Y-111376178D01*
X203875640Y-111362558D01*
X204017313Y-111196681D01*
X204028962Y-111180648D01*
X204142599Y-110995211D01*
X204151597Y-110977551D01*
X204234824Y-110776622D01*
X204240950Y-110757769D01*
X204284053Y-110578232D01*
X204284885Y-110557055D01*
X204279403Y-110554527D01*
X204274951Y-110554000D01*
X201335047Y-110554000D01*
X201314263Y-110558134D01*
X201313085Y-110564056D01*
X201313612Y-110568510D01*
X201359050Y-110757769D01*
X201365176Y-110776622D01*
X201448403Y-110977551D01*
X201457401Y-110995211D01*
X201571038Y-111180648D01*
X201582687Y-111196681D01*
X201730386Y-111369614D01*
X201729393Y-111370463D01*
X201778306Y-111443666D01*
X201797564Y-111540485D01*
X201778306Y-111637304D01*
X201723462Y-111719383D01*
X201708881Y-111732862D01*
X201700241Y-111740241D01*
X201693785Y-111747800D01*
X201581038Y-111879810D01*
X201503515Y-111940925D01*
X201408505Y-111967720D01*
X201388655Y-111968500D01*
X198890636Y-111968500D01*
X198793817Y-111949242D01*
X198711738Y-111894398D01*
X196024588Y-109207248D01*
X196012963Y-109193637D01*
X196012721Y-109193855D01*
X196003843Y-109183995D01*
X195996052Y-109173272D01*
X195984205Y-109162605D01*
X195982375Y-109160153D01*
X195977330Y-109154551D01*
X195977845Y-109154087D01*
X195925144Y-109083509D01*
X195900846Y-108987830D01*
X195900500Y-108974594D01*
X195900500Y-108507228D01*
X195889636Y-108417453D01*
X195834113Y-108277217D01*
X195823688Y-108263483D01*
X195823686Y-108263479D01*
X195753349Y-108170815D01*
X195742922Y-108157078D01*
X195705931Y-108129000D01*
X195636521Y-108076314D01*
X195636517Y-108076312D01*
X195622783Y-108065887D01*
X195482547Y-108010364D01*
X195428550Y-108003830D01*
X195400336Y-108000415D01*
X195400330Y-108000415D01*
X195392772Y-107999500D01*
X193007228Y-107999500D01*
X192999670Y-108000415D01*
X192999664Y-108000415D01*
X192971450Y-108003830D01*
X192917453Y-108010364D01*
X192777217Y-108065887D01*
X192763483Y-108076312D01*
X192763479Y-108076314D01*
X192694069Y-108129000D01*
X192657078Y-108157078D01*
X192646651Y-108170815D01*
X192576314Y-108263479D01*
X192576312Y-108263483D01*
X192565887Y-108277217D01*
X192510364Y-108417453D01*
X192499500Y-108507228D01*
X192499500Y-108615500D01*
X192480242Y-108712319D01*
X192425398Y-108794398D01*
X192343319Y-108849242D01*
X192246500Y-108868500D01*
X190161389Y-108868500D01*
X190064570Y-108849242D01*
X189982491Y-108794398D01*
X189933608Y-108725613D01*
X189925320Y-108708469D01*
X189919164Y-108695734D01*
X189807120Y-108555380D01*
X189666766Y-108443336D01*
X189505077Y-108365173D01*
X189330089Y-108324774D01*
X189325337Y-108324500D01*
X189321685Y-108324500D01*
X188898364Y-108324501D01*
X188474664Y-108324501D01*
X188469911Y-108324774D01*
X188459461Y-108327187D01*
X188459458Y-108327187D01*
X188418262Y-108336698D01*
X188294923Y-108365173D01*
X188133234Y-108443336D01*
X187992880Y-108555380D01*
X187991281Y-108553377D01*
X187926778Y-108596477D01*
X187829959Y-108615735D01*
X187733140Y-108596477D01*
X187651215Y-108541787D01*
X187645892Y-108536473D01*
X187622978Y-108518377D01*
X187497536Y-108441054D01*
X187471077Y-108428716D01*
X187330376Y-108382047D01*
X187303509Y-108376287D01*
X187219293Y-108367659D01*
X187206404Y-108367000D01*
X187103918Y-108367000D01*
X187083134Y-108371134D01*
X187079000Y-108391918D01*
X187079000Y-109601000D01*
X187059742Y-109697819D01*
X187004898Y-109779898D01*
X186922819Y-109834742D01*
X186826000Y-109854000D01*
X186824000Y-109854000D01*
X186727181Y-109834742D01*
X186645102Y-109779898D01*
X186590258Y-109697819D01*
X186571000Y-109601000D01*
X186571000Y-108391919D01*
X186566866Y-108371135D01*
X186546082Y-108367001D01*
X186443679Y-108367001D01*
X186430631Y-108367676D01*
X186345209Y-108376539D01*
X186318302Y-108382350D01*
X186177714Y-108429253D01*
X186151268Y-108441641D01*
X186025962Y-108519184D01*
X186003082Y-108537318D01*
X185898974Y-108641607D01*
X185880877Y-108664522D01*
X185803554Y-108789964D01*
X185791216Y-108816423D01*
X185744547Y-108957124D01*
X185735894Y-108997487D01*
X185734259Y-108997137D01*
X185709998Y-109075989D01*
X185647070Y-109152048D01*
X185559827Y-109198236D01*
X185461549Y-109207521D01*
X185367198Y-109178491D01*
X185291139Y-109115563D01*
X185259566Y-109065952D01*
X185237822Y-109020972D01*
X185237820Y-109020969D01*
X185231664Y-109008234D01*
X185214874Y-108987201D01*
X185176356Y-108938952D01*
X185156399Y-108913952D01*
X185111046Y-108826272D01*
X185102700Y-108727909D01*
X185132630Y-108633841D01*
X185155570Y-108599311D01*
X185156624Y-108597976D01*
X185233946Y-108472536D01*
X185246284Y-108446077D01*
X185292953Y-108305376D01*
X185298713Y-108278509D01*
X185307341Y-108194293D01*
X185308000Y-108181404D01*
X185308000Y-108153918D01*
X185303866Y-108133134D01*
X185283082Y-108129000D01*
X182916919Y-108129000D01*
X182896135Y-108133134D01*
X182892001Y-108153918D01*
X182892001Y-108181321D01*
X182892676Y-108194369D01*
X182901539Y-108279791D01*
X182907350Y-108306698D01*
X182954253Y-108447286D01*
X182966641Y-108473732D01*
X183051917Y-108611535D01*
X183050898Y-108612165D01*
X183089182Y-108686816D01*
X183097186Y-108785206D01*
X183066927Y-108879170D01*
X183043592Y-108913964D01*
X182968336Y-109008234D01*
X182890173Y-109169923D01*
X182849774Y-109344911D01*
X182849500Y-109349663D01*
X182849501Y-110050336D01*
X182849774Y-110055089D01*
X182852187Y-110065539D01*
X182852187Y-110065542D01*
X182869428Y-110140221D01*
X182890173Y-110230077D01*
X182968336Y-110391766D01*
X183080380Y-110532120D01*
X183091436Y-110540946D01*
X183180342Y-110611919D01*
X183243993Y-110687373D01*
X183273923Y-110781442D01*
X183275500Y-110809643D01*
X183275500Y-111609109D01*
X183256242Y-111705928D01*
X183201398Y-111788007D01*
X183172664Y-111812547D01*
X183165821Y-111816741D01*
X183158264Y-111823195D01*
X183158263Y-111823196D01*
X183059374Y-111907655D01*
X182980241Y-111975241D01*
X182979279Y-111974114D01*
X182906819Y-112022531D01*
X182810000Y-112041789D01*
X182713181Y-112022531D01*
X182640721Y-111974114D01*
X182639759Y-111975241D01*
X182591822Y-111934299D01*
X182454179Y-111816741D01*
X182246089Y-111689223D01*
X182148233Y-111648690D01*
X182029794Y-111599631D01*
X182029791Y-111599630D01*
X182020612Y-111595828D01*
X182010946Y-111593507D01*
X182010945Y-111593507D01*
X181793673Y-111541344D01*
X181783302Y-111538854D01*
X181540000Y-111519706D01*
X181296698Y-111538854D01*
X181286327Y-111541344D01*
X181069055Y-111593507D01*
X181069054Y-111593507D01*
X181059388Y-111595828D01*
X181050209Y-111599630D01*
X181050206Y-111599631D01*
X180931767Y-111648690D01*
X180833911Y-111689223D01*
X180625821Y-111816741D01*
X180440241Y-111975241D01*
X180439279Y-111974114D01*
X180366819Y-112022531D01*
X180270000Y-112041789D01*
X180173181Y-112022531D01*
X180100721Y-111974114D01*
X180099759Y-111975241D01*
X179921737Y-111823196D01*
X179921736Y-111823195D01*
X179914179Y-111816741D01*
X179908043Y-111812981D01*
X179841784Y-111741304D01*
X179807615Y-111648690D01*
X179804500Y-111609109D01*
X179804500Y-110770780D01*
X179823758Y-110673961D01*
X179878602Y-110591882D01*
X179899655Y-110573058D01*
X179908565Y-110565945D01*
X179919620Y-110557120D01*
X180031664Y-110416766D01*
X180109827Y-110255077D01*
X180150226Y-110080089D01*
X180150500Y-110075337D01*
X180150499Y-109374664D01*
X180150226Y-109369911D01*
X180145902Y-109351179D01*
X180117841Y-109229636D01*
X180109827Y-109194923D01*
X180031664Y-109033234D01*
X180018503Y-109016747D01*
X179956399Y-108938952D01*
X179911046Y-108851272D01*
X179902700Y-108752909D01*
X179932630Y-108658841D01*
X179955570Y-108624311D01*
X179956624Y-108622976D01*
X180033946Y-108497536D01*
X180046284Y-108471077D01*
X180092953Y-108330376D01*
X180098713Y-108303509D01*
X180107341Y-108219293D01*
X180108000Y-108206404D01*
X180108000Y-108178918D01*
X180103866Y-108158134D01*
X180083082Y-108154000D01*
X177716919Y-108154000D01*
X177696135Y-108158134D01*
X177692001Y-108178918D01*
X177692001Y-108206321D01*
X177692676Y-108219369D01*
X177701539Y-108304791D01*
X177707350Y-108331698D01*
X177754253Y-108472286D01*
X177766641Y-108498732D01*
X177851917Y-108636535D01*
X177850898Y-108637165D01*
X177889182Y-108711816D01*
X177897186Y-108810206D01*
X177866927Y-108904170D01*
X177843592Y-108938964D01*
X177768336Y-109033234D01*
X177690173Y-109194923D01*
X177649774Y-109369911D01*
X177649500Y-109374663D01*
X177649501Y-110075336D01*
X177649774Y-110080089D01*
X177652187Y-110090539D01*
X177652187Y-110090542D01*
X177673269Y-110181857D01*
X177690173Y-110255077D01*
X177768336Y-110416766D01*
X177880380Y-110557120D01*
X178020734Y-110669164D01*
X178033468Y-110675320D01*
X178033473Y-110675323D01*
X178052614Y-110684576D01*
X178131400Y-110744053D01*
X178181427Y-110829153D01*
X178195500Y-110912356D01*
X178195500Y-111609109D01*
X178176242Y-111705928D01*
X178121398Y-111788007D01*
X178092664Y-111812547D01*
X178085821Y-111816741D01*
X178078264Y-111823195D01*
X178078263Y-111823196D01*
X177979374Y-111907655D01*
X177900241Y-111975241D01*
X177899279Y-111974114D01*
X177826819Y-112022531D01*
X177730000Y-112041789D01*
X177633181Y-112022531D01*
X177560721Y-111974114D01*
X177559759Y-111975241D01*
X177511822Y-111934299D01*
X177374179Y-111816741D01*
X177166089Y-111689223D01*
X177068233Y-111648690D01*
X176949794Y-111599631D01*
X176949791Y-111599630D01*
X176940612Y-111595828D01*
X176930946Y-111593507D01*
X176930945Y-111593507D01*
X176713673Y-111541344D01*
X176703302Y-111538854D01*
X176460000Y-111519706D01*
X176216698Y-111538854D01*
X176206327Y-111541344D01*
X175989055Y-111593507D01*
X175989054Y-111593507D01*
X175979388Y-111595828D01*
X175970209Y-111599630D01*
X175970206Y-111599631D01*
X175851767Y-111648690D01*
X175753911Y-111689223D01*
X175545821Y-111816741D01*
X175360241Y-111975241D01*
X175359279Y-111974114D01*
X175286819Y-112022531D01*
X175190000Y-112041789D01*
X175093181Y-112022531D01*
X175020721Y-111974114D01*
X175019759Y-111975241D01*
X174841737Y-111823196D01*
X174841736Y-111823195D01*
X174834179Y-111816741D01*
X174828043Y-111812981D01*
X174761784Y-111741304D01*
X174727615Y-111648690D01*
X174724500Y-111609109D01*
X174724500Y-110834643D01*
X174743758Y-110737824D01*
X174798602Y-110655745D01*
X174819658Y-110636919D01*
X174835317Y-110624419D01*
X174919620Y-110557120D01*
X175031664Y-110416766D01*
X175109827Y-110255077D01*
X175150226Y-110080089D01*
X175150500Y-110075337D01*
X175150499Y-109374664D01*
X175150226Y-109369911D01*
X175145902Y-109351179D01*
X175117841Y-109229636D01*
X175109827Y-109194923D01*
X175031664Y-109033234D01*
X175018503Y-109016747D01*
X174956399Y-108938952D01*
X174911046Y-108851272D01*
X174902700Y-108752909D01*
X174932630Y-108658841D01*
X174955570Y-108624311D01*
X174956624Y-108622976D01*
X175033946Y-108497536D01*
X175046284Y-108471077D01*
X175092953Y-108330376D01*
X175098713Y-108303509D01*
X175107341Y-108219293D01*
X175108000Y-108206404D01*
X175108000Y-108178918D01*
X175103866Y-108158134D01*
X175083082Y-108154000D01*
X173899000Y-108154000D01*
X173802181Y-108134742D01*
X173720102Y-108079898D01*
X173665258Y-107997819D01*
X173646000Y-107901000D01*
X173646000Y-107899000D01*
X173665258Y-107802181D01*
X173720102Y-107720102D01*
X173802181Y-107665258D01*
X173899000Y-107646000D01*
X175083081Y-107646000D01*
X175103865Y-107641866D01*
X175107999Y-107621082D01*
X177692000Y-107621082D01*
X177696134Y-107641866D01*
X177716918Y-107646000D01*
X178621082Y-107646000D01*
X178641866Y-107641866D01*
X178646000Y-107621082D01*
X179154000Y-107621082D01*
X179158134Y-107641866D01*
X179178918Y-107646000D01*
X180083081Y-107646000D01*
X180103865Y-107641866D01*
X180107999Y-107621082D01*
X180107999Y-107596082D01*
X182892000Y-107596082D01*
X182896134Y-107616866D01*
X182916918Y-107621000D01*
X183821082Y-107621000D01*
X183841866Y-107616866D01*
X183846000Y-107596082D01*
X184354000Y-107596082D01*
X184358134Y-107616866D01*
X184378918Y-107621000D01*
X185283081Y-107621000D01*
X185303865Y-107616866D01*
X185307999Y-107596082D01*
X185307999Y-107568679D01*
X185307324Y-107555631D01*
X185298461Y-107470209D01*
X185292650Y-107443302D01*
X185245747Y-107302714D01*
X185233359Y-107276268D01*
X185155816Y-107150962D01*
X185137682Y-107128082D01*
X185033393Y-107023974D01*
X185010478Y-107005877D01*
X184885036Y-106928554D01*
X184858577Y-106916216D01*
X184717876Y-106869547D01*
X184691009Y-106863787D01*
X184606793Y-106855159D01*
X184593904Y-106854500D01*
X184378918Y-106854500D01*
X184358134Y-106858634D01*
X184354000Y-106879418D01*
X184354000Y-107596082D01*
X183846000Y-107596082D01*
X183846000Y-106879419D01*
X183841866Y-106858635D01*
X183821082Y-106854501D01*
X183606179Y-106854501D01*
X183593131Y-106855176D01*
X183507709Y-106864039D01*
X183480802Y-106869850D01*
X183340214Y-106916753D01*
X183313768Y-106929141D01*
X183188462Y-107006684D01*
X183165582Y-107024818D01*
X183061474Y-107129107D01*
X183043377Y-107152022D01*
X182966054Y-107277464D01*
X182953716Y-107303923D01*
X182907047Y-107444624D01*
X182901287Y-107471491D01*
X182892659Y-107555707D01*
X182892000Y-107568596D01*
X182892000Y-107596082D01*
X180107999Y-107596082D01*
X180107999Y-107593679D01*
X180107324Y-107580631D01*
X180098461Y-107495209D01*
X180092650Y-107468302D01*
X180045747Y-107327714D01*
X180033359Y-107301268D01*
X179955816Y-107175962D01*
X179937682Y-107153082D01*
X179833393Y-107048974D01*
X179810478Y-107030877D01*
X179685036Y-106953554D01*
X179658577Y-106941216D01*
X179517876Y-106894547D01*
X179491009Y-106888787D01*
X179406793Y-106880159D01*
X179393904Y-106879500D01*
X179178918Y-106879500D01*
X179158134Y-106883634D01*
X179154000Y-106904418D01*
X179154000Y-107621082D01*
X178646000Y-107621082D01*
X178646000Y-106904419D01*
X178641866Y-106883635D01*
X178621082Y-106879501D01*
X178406179Y-106879501D01*
X178393131Y-106880176D01*
X178307709Y-106889039D01*
X178280802Y-106894850D01*
X178140214Y-106941753D01*
X178113768Y-106954141D01*
X177988462Y-107031684D01*
X177965582Y-107049818D01*
X177861474Y-107154107D01*
X177843377Y-107177022D01*
X177766054Y-107302464D01*
X177753716Y-107328923D01*
X177707047Y-107469624D01*
X177701287Y-107496491D01*
X177692659Y-107580707D01*
X177692000Y-107593596D01*
X177692000Y-107621082D01*
X175107999Y-107621082D01*
X175107999Y-107593679D01*
X175107324Y-107580631D01*
X175098461Y-107495209D01*
X175092650Y-107468302D01*
X175045747Y-107327714D01*
X175033359Y-107301268D01*
X174955816Y-107175962D01*
X174937682Y-107153082D01*
X174833393Y-107048974D01*
X174810478Y-107030877D01*
X174685036Y-106953554D01*
X174658579Y-106941217D01*
X174567559Y-106911026D01*
X174481727Y-106862266D01*
X174421087Y-106784370D01*
X174400000Y-106722954D01*
X174400000Y-106700000D01*
X173300000Y-106700000D01*
X173300000Y-106724918D01*
X173295139Y-106749357D01*
X173291547Y-106748642D01*
X173280742Y-106802962D01*
X173225898Y-106885041D01*
X173152765Y-106933907D01*
X173153521Y-106935520D01*
X173113768Y-106954141D01*
X172988462Y-107031684D01*
X172965582Y-107049818D01*
X172861478Y-107154103D01*
X172853505Y-107164199D01*
X172778386Y-107228246D01*
X172684476Y-107258671D01*
X172586071Y-107250842D01*
X172498153Y-107205951D01*
X172456680Y-107164551D01*
X172437683Y-107140583D01*
X172333393Y-107036474D01*
X172310478Y-107018377D01*
X172185036Y-106941054D01*
X172158577Y-106928716D01*
X172011808Y-106880034D01*
X171925975Y-106831274D01*
X171908582Y-106811581D01*
X171900000Y-106805846D01*
X171900000Y-106800000D01*
X170800000Y-106800000D01*
X170800000Y-106808750D01*
X170790345Y-106823199D01*
X170720543Y-106893001D01*
X170660051Y-106922635D01*
X170640216Y-106929252D01*
X170613768Y-106941641D01*
X170488462Y-107019184D01*
X170465582Y-107037318D01*
X170361474Y-107141607D01*
X170334265Y-107176059D01*
X170331436Y-107173824D01*
X170282675Y-107226298D01*
X170192919Y-107267392D01*
X170094270Y-107271010D01*
X170001745Y-107236601D01*
X169929431Y-107169404D01*
X169888337Y-107079648D01*
X169881500Y-107021229D01*
X169881500Y-105864440D01*
X188044963Y-105864440D01*
X188058694Y-106102562D01*
X188111131Y-106335245D01*
X188200867Y-106556239D01*
X188206288Y-106565086D01*
X188206291Y-106565091D01*
X188268575Y-106666728D01*
X188325493Y-106759609D01*
X188332289Y-106767454D01*
X188332290Y-106767456D01*
X188370512Y-106811581D01*
X188481660Y-106939894D01*
X188665176Y-107092252D01*
X188674142Y-107097491D01*
X188674143Y-107097492D01*
X188678435Y-107100000D01*
X188871112Y-107212591D01*
X189093937Y-107297680D01*
X189206985Y-107320680D01*
X189317496Y-107343164D01*
X189317497Y-107343164D01*
X189327666Y-107345233D01*
X189566025Y-107353973D01*
X189576327Y-107352653D01*
X189576332Y-107352653D01*
X189792308Y-107324985D01*
X189792312Y-107324984D01*
X189802609Y-107323665D01*
X190031068Y-107255125D01*
X190245264Y-107150191D01*
X190257299Y-107141607D01*
X190430994Y-107017711D01*
X190439445Y-107011683D01*
X190546213Y-106905288D01*
X190628384Y-106850590D01*
X190724795Y-106831500D01*
X192318214Y-106831500D01*
X192415033Y-106850758D01*
X192497112Y-106905602D01*
X192553448Y-106991366D01*
X192559537Y-107006746D01*
X192559538Y-107006747D01*
X192565887Y-107022783D01*
X192576312Y-107036517D01*
X192576314Y-107036521D01*
X192624318Y-107099763D01*
X192657078Y-107142922D01*
X192670815Y-107153349D01*
X192763479Y-107223686D01*
X192763483Y-107223688D01*
X192777217Y-107234113D01*
X192917453Y-107289636D01*
X192971450Y-107296170D01*
X192999664Y-107299585D01*
X192999670Y-107299585D01*
X193007228Y-107300500D01*
X195392772Y-107300500D01*
X195400330Y-107299585D01*
X195400336Y-107299585D01*
X195428550Y-107296170D01*
X195482547Y-107289636D01*
X195622783Y-107234113D01*
X195636517Y-107223688D01*
X195636521Y-107223686D01*
X195729185Y-107153349D01*
X195742922Y-107142922D01*
X195775682Y-107099763D01*
X195823686Y-107036521D01*
X195823688Y-107036517D01*
X195834113Y-107022783D01*
X195889636Y-106882547D01*
X195898292Y-106811019D01*
X195899585Y-106800336D01*
X195899585Y-106800330D01*
X195900500Y-106792772D01*
X195900500Y-104207228D01*
X195889636Y-104117453D01*
X195834113Y-103977217D01*
X195823688Y-103963483D01*
X195823686Y-103963479D01*
X195753349Y-103870815D01*
X195742922Y-103857078D01*
X195727791Y-103845593D01*
X195636521Y-103776314D01*
X195636517Y-103776312D01*
X195622783Y-103765887D01*
X195482547Y-103710364D01*
X195428550Y-103703830D01*
X195400336Y-103700415D01*
X195400330Y-103700415D01*
X195392772Y-103699500D01*
X193007228Y-103699500D01*
X192999670Y-103700415D01*
X192999664Y-103700415D01*
X192971450Y-103703830D01*
X192917453Y-103710364D01*
X192777217Y-103765887D01*
X192763483Y-103776312D01*
X192763479Y-103776314D01*
X192672209Y-103845593D01*
X192657078Y-103857078D01*
X192646651Y-103870815D01*
X192576314Y-103963479D01*
X192576312Y-103963483D01*
X192565887Y-103977217D01*
X192510364Y-104117453D01*
X192499500Y-104207228D01*
X192499500Y-104715500D01*
X192480242Y-104812319D01*
X192425398Y-104894398D01*
X192343319Y-104949242D01*
X192246500Y-104968500D01*
X190725467Y-104968500D01*
X190628648Y-104949242D01*
X190546569Y-104894398D01*
X190538340Y-104885772D01*
X190499611Y-104843209D01*
X190499610Y-104843208D01*
X190492629Y-104835536D01*
X190471824Y-104819105D01*
X190313595Y-104694143D01*
X190313591Y-104694140D01*
X190305445Y-104687707D01*
X190279131Y-104673181D01*
X190105720Y-104577453D01*
X190105716Y-104577451D01*
X190096631Y-104572436D01*
X190086843Y-104568970D01*
X190086841Y-104568969D01*
X189881587Y-104496285D01*
X189881588Y-104496285D01*
X189871794Y-104492817D01*
X189861573Y-104490996D01*
X189861568Y-104490995D01*
X189701624Y-104462505D01*
X189636972Y-104450988D01*
X189626592Y-104450861D01*
X189626590Y-104450861D01*
X189502902Y-104449350D01*
X189398471Y-104448074D01*
X189309784Y-104461645D01*
X189172962Y-104482582D01*
X189172958Y-104482583D01*
X189162698Y-104484153D01*
X188935982Y-104558255D01*
X188724414Y-104668390D01*
X188716116Y-104674620D01*
X188716115Y-104674621D01*
X188541973Y-104805371D01*
X188541968Y-104805375D01*
X188533675Y-104811602D01*
X188368887Y-104984042D01*
X188234475Y-105181082D01*
X188134051Y-105397428D01*
X188070309Y-105627272D01*
X188069205Y-105637604D01*
X188052203Y-105796698D01*
X188044963Y-105864440D01*
X169881500Y-105864440D01*
X169881500Y-102540636D01*
X169900758Y-102443817D01*
X169955602Y-102361738D01*
X170011738Y-102305602D01*
X170093817Y-102250758D01*
X170190636Y-102231500D01*
X179358981Y-102231500D01*
X179376826Y-102232904D01*
X179376843Y-102232579D01*
X179390086Y-102233273D01*
X179403181Y-102235347D01*
X179469964Y-102231847D01*
X179483205Y-102231500D01*
X179501017Y-102231500D01*
X179518736Y-102229638D01*
X179531937Y-102228599D01*
X179598721Y-102225099D01*
X179611530Y-102221667D01*
X179622699Y-102219898D01*
X179633749Y-102217549D01*
X179646937Y-102216163D01*
X179663706Y-102210714D01*
X179710545Y-102195496D01*
X179723245Y-102191734D01*
X179775049Y-102177853D01*
X179775055Y-102177851D01*
X179787859Y-102174420D01*
X179799672Y-102168401D01*
X179810222Y-102164351D01*
X179820550Y-102159753D01*
X179833162Y-102155655D01*
X179844644Y-102149026D01*
X179844648Y-102149024D01*
X179891097Y-102122206D01*
X179902739Y-102115885D01*
X179923382Y-102105367D01*
X179962325Y-102085525D01*
X179972630Y-102077180D01*
X179982117Y-102071019D01*
X179991259Y-102064377D01*
X180002738Y-102057750D01*
X180052441Y-102012997D01*
X180062515Y-102004393D01*
X180071210Y-101997352D01*
X180076351Y-101993189D01*
X180088951Y-101980589D01*
X180098540Y-101971489D01*
X180148252Y-101926728D01*
X180156044Y-101916004D01*
X180164921Y-101906145D01*
X180165163Y-101906363D01*
X180176788Y-101892752D01*
X189351037Y-92718503D01*
X189433116Y-92663659D01*
X189473022Y-92650886D01*
X189528791Y-92638010D01*
X189528793Y-92638009D01*
X189542577Y-92634827D01*
X189704266Y-92556664D01*
X189844620Y-92444620D01*
X189956664Y-92304266D01*
X190034827Y-92142577D01*
X190075226Y-91967589D01*
X190075500Y-91962837D01*
X190075499Y-91393160D01*
X190081159Y-91350178D01*
X190079593Y-91349930D01*
X190081668Y-91336827D01*
X190085100Y-91324021D01*
X190087584Y-91276620D01*
X190088600Y-91257234D01*
X190089639Y-91244033D01*
X190090808Y-91232914D01*
X190090809Y-91232886D01*
X190091500Y-91226317D01*
X190091500Y-91208509D01*
X190091847Y-91195269D01*
X190094429Y-91146000D01*
X190095347Y-91128480D01*
X190093273Y-91115383D01*
X190092579Y-91102145D01*
X190092904Y-91102128D01*
X190091500Y-91084282D01*
X190091500Y-90773600D01*
X190110758Y-90676781D01*
X190165602Y-90594702D01*
X190247681Y-90539858D01*
X190344500Y-90520600D01*
X193517681Y-90520600D01*
X193535526Y-90522004D01*
X193535543Y-90521679D01*
X193548786Y-90522373D01*
X193561881Y-90524447D01*
X193628664Y-90520947D01*
X193641905Y-90520600D01*
X193659717Y-90520600D01*
X193677436Y-90518738D01*
X193690637Y-90517699D01*
X193757421Y-90514199D01*
X193770230Y-90510767D01*
X193781399Y-90508998D01*
X193792449Y-90506649D01*
X193805637Y-90505263D01*
X193822406Y-90499814D01*
X193869245Y-90484596D01*
X193881945Y-90480834D01*
X193933749Y-90466953D01*
X193933755Y-90466951D01*
X193946559Y-90463520D01*
X193958372Y-90457501D01*
X193968922Y-90453451D01*
X193979250Y-90448853D01*
X193991862Y-90444755D01*
X194003344Y-90438126D01*
X194003348Y-90438124D01*
X194049797Y-90411306D01*
X194061439Y-90404985D01*
X194121025Y-90374625D01*
X194131330Y-90366280D01*
X194140817Y-90360119D01*
X194149959Y-90353477D01*
X194161438Y-90346850D01*
X194211141Y-90302097D01*
X194221215Y-90293493D01*
X194229910Y-90286452D01*
X194235051Y-90282289D01*
X194247651Y-90269689D01*
X194257240Y-90260589D01*
X194306952Y-90215828D01*
X194314744Y-90205104D01*
X194323621Y-90195245D01*
X194323863Y-90195463D01*
X194335488Y-90181852D01*
X196923918Y-87593422D01*
X197005997Y-87538578D01*
X197102816Y-87519320D01*
X197199635Y-87538578D01*
X197281714Y-87593422D01*
X197545045Y-87856752D01*
X197556671Y-87870364D01*
X197556913Y-87870146D01*
X197565785Y-87879999D01*
X197573580Y-87890728D01*
X197583437Y-87899603D01*
X197623283Y-87935481D01*
X197632882Y-87944589D01*
X197645481Y-87957188D01*
X197650623Y-87961352D01*
X197650640Y-87961367D01*
X197659305Y-87968383D01*
X197669376Y-87976984D01*
X197719094Y-88021750D01*
X197730575Y-88028379D01*
X197739727Y-88035028D01*
X197749203Y-88041182D01*
X197759506Y-88049525D01*
X197771319Y-88055544D01*
X197819106Y-88079893D01*
X197830747Y-88086214D01*
X197877184Y-88113024D01*
X197877187Y-88113025D01*
X197888670Y-88119655D01*
X197901281Y-88123753D01*
X197911609Y-88128351D01*
X197922160Y-88132401D01*
X197933973Y-88138420D01*
X197946779Y-88141851D01*
X197946786Y-88141854D01*
X197998587Y-88155734D01*
X198011287Y-88159496D01*
X198046525Y-88170945D01*
X198074895Y-88180163D01*
X198088078Y-88181549D01*
X198099139Y-88183900D01*
X198110309Y-88185669D01*
X198123111Y-88189099D01*
X198136352Y-88189793D01*
X198136353Y-88189793D01*
X198189879Y-88192598D01*
X198203080Y-88193637D01*
X198214218Y-88194808D01*
X198214246Y-88194809D01*
X198220815Y-88195500D01*
X198238641Y-88195500D01*
X198251880Y-88195847D01*
X198318651Y-88199346D01*
X198331748Y-88197272D01*
X198344986Y-88196578D01*
X198345003Y-88196904D01*
X198362843Y-88195500D01*
X200342781Y-88195500D01*
X200360626Y-88196904D01*
X200360643Y-88196579D01*
X200373886Y-88197273D01*
X200386981Y-88199347D01*
X200453764Y-88195847D01*
X200467005Y-88195500D01*
X200484817Y-88195500D01*
X200502536Y-88193638D01*
X200515737Y-88192599D01*
X200515756Y-88192598D01*
X200582521Y-88189099D01*
X200595330Y-88185667D01*
X200606499Y-88183898D01*
X200617549Y-88181549D01*
X200630737Y-88180163D01*
X200659107Y-88170945D01*
X200694345Y-88159496D01*
X200707045Y-88155734D01*
X200758849Y-88141853D01*
X200758855Y-88141851D01*
X200771659Y-88138420D01*
X200783472Y-88132401D01*
X200794022Y-88128351D01*
X200804350Y-88123753D01*
X200816962Y-88119655D01*
X200828444Y-88113026D01*
X200828448Y-88113024D01*
X200874897Y-88086206D01*
X200886539Y-88079885D01*
X200946125Y-88049525D01*
X200956430Y-88041180D01*
X200965917Y-88035019D01*
X200975059Y-88028377D01*
X200986538Y-88021750D01*
X201036241Y-87976997D01*
X201046315Y-87968393D01*
X201055010Y-87961352D01*
X201060151Y-87957189D01*
X201072751Y-87944589D01*
X201082349Y-87935481D01*
X201132052Y-87890728D01*
X201139844Y-87880004D01*
X201148721Y-87870145D01*
X201148963Y-87870363D01*
X201160588Y-87856752D01*
X201436602Y-87580738D01*
X201518681Y-87525894D01*
X201615500Y-87506636D01*
X201712319Y-87525894D01*
X201794398Y-87580738D01*
X201849242Y-87662817D01*
X201868500Y-87759636D01*
X201868500Y-105974671D01*
X201849242Y-106071490D01*
X201794398Y-106153569D01*
X201712319Y-106208413D01*
X201681430Y-106218673D01*
X201667453Y-106220364D01*
X201527217Y-106275887D01*
X201513483Y-106286312D01*
X201513479Y-106286314D01*
X201422209Y-106355593D01*
X201407078Y-106367078D01*
X201396651Y-106380815D01*
X201326314Y-106473479D01*
X201326312Y-106473483D01*
X201315887Y-106487217D01*
X201260364Y-106627453D01*
X201258413Y-106643579D01*
X201251085Y-106704134D01*
X201249500Y-106717228D01*
X201249500Y-108802772D01*
X201260364Y-108892547D01*
X201315887Y-109032783D01*
X201326312Y-109046517D01*
X201326314Y-109046521D01*
X201385192Y-109124089D01*
X201407078Y-109152922D01*
X201442855Y-109180078D01*
X201448011Y-109183992D01*
X201513486Y-109257869D01*
X201545706Y-109351179D01*
X201539766Y-109449715D01*
X201510765Y-109517706D01*
X201457404Y-109604783D01*
X201448403Y-109622449D01*
X201365176Y-109823378D01*
X201359050Y-109842231D01*
X201315947Y-110021768D01*
X201315115Y-110042945D01*
X201320597Y-110045473D01*
X201325049Y-110046000D01*
X204264953Y-110046000D01*
X204285737Y-110041866D01*
X204286915Y-110035944D01*
X204286388Y-110031490D01*
X204240950Y-109842231D01*
X204234824Y-109823378D01*
X204151597Y-109622449D01*
X204142596Y-109604783D01*
X204089235Y-109517706D01*
X204055068Y-109425092D01*
X204058943Y-109326452D01*
X204100272Y-109236804D01*
X204151989Y-109183992D01*
X204157146Y-109180078D01*
X204192922Y-109152922D01*
X204214808Y-109124089D01*
X204273686Y-109046521D01*
X204273688Y-109046517D01*
X204284113Y-109032783D01*
X204339636Y-108892547D01*
X204350500Y-108802772D01*
X204350500Y-106717228D01*
X204348916Y-106704134D01*
X204341587Y-106643579D01*
X204339636Y-106627453D01*
X204284113Y-106487217D01*
X204273688Y-106473483D01*
X204273686Y-106473479D01*
X204203349Y-106380815D01*
X204192922Y-106367078D01*
X204177791Y-106355593D01*
X204086521Y-106286314D01*
X204086517Y-106286312D01*
X204072783Y-106275887D01*
X203932547Y-106220364D01*
X203920056Y-106218852D01*
X203833123Y-106177388D01*
X203767070Y-106104028D01*
X203734118Y-106010974D01*
X203731500Y-105974671D01*
X203731500Y-84931004D01*
X203731847Y-84917763D01*
X203734653Y-84864220D01*
X203735347Y-84850980D01*
X203733273Y-84837885D01*
X203732579Y-84824642D01*
X203732904Y-84824625D01*
X203731500Y-84806780D01*
X203731500Y-83063191D01*
X203732904Y-83045345D01*
X203732579Y-83045328D01*
X203733273Y-83032086D01*
X203735347Y-83018991D01*
X203731847Y-82952201D01*
X203731500Y-82938962D01*
X203731500Y-82921154D01*
X203730809Y-82914585D01*
X203730808Y-82914557D01*
X203729639Y-82903438D01*
X203728600Y-82890237D01*
X203725794Y-82836692D01*
X203725794Y-82836691D01*
X203725100Y-82823450D01*
X203721669Y-82810645D01*
X203719904Y-82799503D01*
X203717549Y-82788422D01*
X203716163Y-82775234D01*
X203695489Y-82711606D01*
X203691741Y-82698954D01*
X203674421Y-82634313D01*
X203668401Y-82622498D01*
X203664357Y-82611963D01*
X203659754Y-82601624D01*
X203655655Y-82589009D01*
X203624875Y-82535696D01*
X203622213Y-82531085D01*
X203615893Y-82519445D01*
X203591546Y-82471662D01*
X203591544Y-82471660D01*
X203585525Y-82459846D01*
X203577182Y-82449544D01*
X203571020Y-82440055D01*
X203564376Y-82430911D01*
X203557750Y-82419433D01*
X203512997Y-82369730D01*
X203504393Y-82359656D01*
X203497352Y-82350961D01*
X203493189Y-82345820D01*
X203480589Y-82333220D01*
X203471489Y-82323631D01*
X203426728Y-82273919D01*
X203416004Y-82266127D01*
X203406145Y-82257250D01*
X203406363Y-82257008D01*
X203392752Y-82245383D01*
X202004617Y-80857248D01*
X201992992Y-80843637D01*
X201992750Y-80843855D01*
X201983873Y-80833996D01*
X201976081Y-80823272D01*
X201926369Y-80778511D01*
X201916780Y-80769411D01*
X201904180Y-80756811D01*
X201890344Y-80745607D01*
X201880265Y-80736999D01*
X201878964Y-80735827D01*
X201830567Y-80692250D01*
X201819088Y-80685623D01*
X201809946Y-80678981D01*
X201800459Y-80672820D01*
X201790154Y-80664475D01*
X201730562Y-80634112D01*
X201718926Y-80627794D01*
X201672477Y-80600976D01*
X201672473Y-80600974D01*
X201660991Y-80594345D01*
X201648379Y-80590247D01*
X201638051Y-80585649D01*
X201627501Y-80581599D01*
X201615688Y-80575580D01*
X201602884Y-80572149D01*
X201602878Y-80572147D01*
X201551074Y-80558266D01*
X201538374Y-80554504D01*
X201487378Y-80537935D01*
X201487379Y-80537935D01*
X201474766Y-80533837D01*
X201461578Y-80532451D01*
X201450528Y-80530102D01*
X201439359Y-80528333D01*
X201426550Y-80524901D01*
X201359766Y-80521401D01*
X201346565Y-80520362D01*
X201328846Y-80518500D01*
X201311034Y-80518500D01*
X201297793Y-80518153D01*
X201296496Y-80518085D01*
X201231010Y-80514653D01*
X201217915Y-80516727D01*
X201204672Y-80517421D01*
X201204655Y-80517096D01*
X201186810Y-80518500D01*
X200343386Y-80518500D01*
X200246567Y-80499242D01*
X200164488Y-80444398D01*
X200109644Y-80362319D01*
X200090386Y-80265500D01*
X200109644Y-80168681D01*
X200143474Y-80110438D01*
X200157159Y-80092795D01*
X200225579Y-79977101D01*
X200238122Y-79948116D01*
X200273041Y-79827927D01*
X200274870Y-79806816D01*
X200272229Y-79805445D01*
X200262079Y-79804000D01*
X199036500Y-79804000D01*
X198939681Y-79784742D01*
X198857602Y-79729898D01*
X198802758Y-79647819D01*
X198783500Y-79551000D01*
X198783500Y-79271082D01*
X199291500Y-79271082D01*
X199295634Y-79291866D01*
X199316418Y-79296000D01*
X200255075Y-79296000D01*
X200275859Y-79291866D01*
X200276440Y-79288946D01*
X200274995Y-79278798D01*
X200238122Y-79151884D01*
X200225579Y-79122899D01*
X200157159Y-79007205D01*
X200137799Y-78982246D01*
X200042754Y-78887201D01*
X200017795Y-78867841D01*
X199902101Y-78799421D01*
X199873116Y-78786878D01*
X199741170Y-78748543D01*
X199715859Y-78743920D01*
X199696416Y-78742390D01*
X199686485Y-78742000D01*
X199316418Y-78742000D01*
X199295634Y-78746134D01*
X199291500Y-78766918D01*
X199291500Y-79271082D01*
X198783500Y-79271082D01*
X198783500Y-78766919D01*
X198779366Y-78746135D01*
X198758582Y-78742001D01*
X198388502Y-78742001D01*
X198378604Y-78742390D01*
X198359138Y-78743921D01*
X198333831Y-78748543D01*
X198201884Y-78786878D01*
X198172899Y-78799421D01*
X198057205Y-78867841D01*
X198032246Y-78887201D01*
X197937201Y-78982246D01*
X197917841Y-79007205D01*
X197849421Y-79122899D01*
X197836878Y-79151884D01*
X197798543Y-79283830D01*
X197793920Y-79309141D01*
X197792390Y-79328584D01*
X197792000Y-79338516D01*
X197792000Y-79396500D01*
X197772742Y-79493319D01*
X197717898Y-79575398D01*
X197635819Y-79630242D01*
X197539000Y-79649500D01*
X196546390Y-79649501D01*
X196519008Y-79649501D01*
X196513228Y-79650032D01*
X196459779Y-79654942D01*
X196459775Y-79654943D01*
X196446406Y-79656171D01*
X196433596Y-79660185D01*
X196433593Y-79660186D01*
X196357850Y-79683923D01*
X196282192Y-79695500D01*
X195162272Y-79695500D01*
X195065453Y-79676242D01*
X194983374Y-79621398D01*
X194927038Y-79535634D01*
X194890463Y-79443255D01*
X194890462Y-79443253D01*
X194884113Y-79427217D01*
X194873688Y-79413483D01*
X194873686Y-79413479D01*
X194803349Y-79320815D01*
X194792922Y-79307078D01*
X194755665Y-79278798D01*
X194686521Y-79226314D01*
X194686517Y-79226312D01*
X194672783Y-79215887D01*
X194532547Y-79160364D01*
X194478550Y-79153830D01*
X194450336Y-79150415D01*
X194450330Y-79150415D01*
X194442772Y-79149500D01*
X193406031Y-79149500D01*
X193309212Y-79130242D01*
X193227133Y-79075398D01*
X189351735Y-75200000D01*
X201244396Y-75200000D01*
X201264779Y-75458994D01*
X201267098Y-75468654D01*
X201267099Y-75468659D01*
X201322030Y-75697462D01*
X201325427Y-75711610D01*
X201424846Y-75951628D01*
X201560588Y-76173140D01*
X201729311Y-76370689D01*
X201926860Y-76539412D01*
X202148372Y-76675154D01*
X202157558Y-76678959D01*
X202157560Y-76678960D01*
X202282447Y-76730690D01*
X202388390Y-76774573D01*
X202398044Y-76776891D01*
X202398048Y-76776892D01*
X202631341Y-76832901D01*
X202631346Y-76832902D01*
X202641006Y-76835221D01*
X202722979Y-76841672D01*
X202830190Y-76850110D01*
X202830193Y-76850110D01*
X202835147Y-76850500D01*
X202964853Y-76850500D01*
X202969807Y-76850110D01*
X202969810Y-76850110D01*
X203077021Y-76841672D01*
X203158994Y-76835221D01*
X203168654Y-76832902D01*
X203168659Y-76832901D01*
X203401952Y-76776892D01*
X203401956Y-76776891D01*
X203411610Y-76774573D01*
X203517553Y-76730690D01*
X203642440Y-76678960D01*
X203642442Y-76678959D01*
X203651628Y-76675154D01*
X203873140Y-76539412D01*
X204070689Y-76370689D01*
X204239412Y-76173140D01*
X204375154Y-75951628D01*
X204474573Y-75711610D01*
X204477970Y-75697462D01*
X204532901Y-75468659D01*
X204532902Y-75468654D01*
X204535221Y-75458994D01*
X204555604Y-75200000D01*
X204535221Y-74941006D01*
X204497864Y-74785401D01*
X204476892Y-74698048D01*
X204476891Y-74698044D01*
X204474573Y-74688390D01*
X204421674Y-74560681D01*
X204378960Y-74457560D01*
X204378959Y-74457558D01*
X204375154Y-74448372D01*
X204239412Y-74226860D01*
X204070689Y-74029311D01*
X203873140Y-73860588D01*
X203651628Y-73724846D01*
X203411610Y-73625427D01*
X203401956Y-73623109D01*
X203401952Y-73623108D01*
X203168659Y-73567099D01*
X203168654Y-73567098D01*
X203158994Y-73564779D01*
X203077021Y-73558328D01*
X202969810Y-73549890D01*
X202969807Y-73549890D01*
X202964853Y-73549500D01*
X202835147Y-73549500D01*
X202830193Y-73549890D01*
X202830190Y-73549890D01*
X202722979Y-73558328D01*
X202641006Y-73564779D01*
X202631346Y-73567098D01*
X202631341Y-73567099D01*
X202398048Y-73623108D01*
X202398044Y-73623109D01*
X202388390Y-73625427D01*
X202148372Y-73724846D01*
X201926860Y-73860588D01*
X201729311Y-74029311D01*
X201560588Y-74226860D01*
X201424846Y-74448372D01*
X201421041Y-74457558D01*
X201421040Y-74457560D01*
X201378326Y-74560681D01*
X201325427Y-74688390D01*
X201323109Y-74698044D01*
X201323108Y-74698048D01*
X201302137Y-74785401D01*
X201264779Y-74941006D01*
X201244396Y-75200000D01*
X189351735Y-75200000D01*
X188939862Y-74788127D01*
X188937998Y-74786244D01*
X188885578Y-74732714D01*
X188885576Y-74732712D01*
X188875685Y-74722612D01*
X188844856Y-74702744D01*
X188824073Y-74687809D01*
X188806465Y-74673752D01*
X188806462Y-74673750D01*
X188795412Y-74664929D01*
X188782684Y-74658776D01*
X188782679Y-74658773D01*
X188772391Y-74653800D01*
X188745450Y-74638681D01*
X188735865Y-74632504D01*
X188735866Y-74632504D01*
X188723973Y-74624840D01*
X188710681Y-74620002D01*
X188689501Y-74612293D01*
X188665933Y-74602338D01*
X188632914Y-74586376D01*
X188608012Y-74580627D01*
X188578402Y-74571856D01*
X188567667Y-74567949D01*
X188567666Y-74567949D01*
X188554369Y-74563109D01*
X188517994Y-74558514D01*
X188492786Y-74554024D01*
X188470834Y-74548956D01*
X188457052Y-74545774D01*
X188416211Y-74545632D01*
X188415950Y-74545623D01*
X188414978Y-74545500D01*
X188378864Y-74545500D01*
X188377981Y-74545498D01*
X188378021Y-74545498D01*
X188276565Y-74545144D01*
X188275222Y-74545444D01*
X188274188Y-74545500D01*
X180028000Y-74545500D01*
X179931181Y-74526242D01*
X179849102Y-74471398D01*
X179794258Y-74389319D01*
X179775000Y-74292500D01*
X179775000Y-72878500D01*
X179794258Y-72781681D01*
X179849102Y-72699602D01*
X179931181Y-72644758D01*
X180028000Y-72625500D01*
X205321500Y-72625500D01*
X205418319Y-72644758D01*
G37*
%TD.AperFunction*%
%TA.AperFunction,Conductor*%
G36*
X157506819Y-88752469D02*
G01*
X157579279Y-88800886D01*
X157580241Y-88799759D01*
X157765821Y-88958259D01*
X157932010Y-89060100D01*
X157973911Y-89085777D01*
X157972367Y-89088297D01*
X158034893Y-89137594D01*
X158083122Y-89223727D01*
X158095500Y-89301893D01*
X158095500Y-91565168D01*
X158095486Y-91567817D01*
X158094717Y-91641292D01*
X158094554Y-91656814D01*
X158097543Y-91670639D01*
X158098205Y-91677152D01*
X158099501Y-91702723D01*
X158099501Y-91959001D01*
X158080243Y-92055820D01*
X158025399Y-92137899D01*
X157943320Y-92192743D01*
X157846502Y-92212001D01*
X157794008Y-92212001D01*
X157788229Y-92212532D01*
X157788227Y-92212532D01*
X157734779Y-92217442D01*
X157734775Y-92217443D01*
X157721406Y-92218671D01*
X157708596Y-92222685D01*
X157708593Y-92222686D01*
X157607076Y-92254500D01*
X157559617Y-92269373D01*
X157546574Y-92277272D01*
X157546572Y-92277273D01*
X157427641Y-92349300D01*
X157414592Y-92357203D01*
X157294703Y-92477092D01*
X157286801Y-92490139D01*
X157286800Y-92490141D01*
X157218219Y-92603383D01*
X157206873Y-92622117D01*
X157202313Y-92636668D01*
X157175348Y-92722714D01*
X157156171Y-92783906D01*
X157153902Y-92808596D01*
X157151584Y-92833831D01*
X157149500Y-92856507D01*
X157149500Y-93063103D01*
X157137117Y-93141283D01*
X157083837Y-93305263D01*
X157068500Y-93451183D01*
X157068500Y-94206781D01*
X157067096Y-94224626D01*
X157067421Y-94224643D01*
X157066727Y-94237886D01*
X157064653Y-94250981D01*
X157066118Y-94278939D01*
X157068153Y-94317764D01*
X157068500Y-94331005D01*
X157068500Y-94348817D01*
X157070362Y-94366531D01*
X157071401Y-94379737D01*
X157074901Y-94446521D01*
X157078333Y-94459330D01*
X157080102Y-94470499D01*
X157082451Y-94481549D01*
X157083837Y-94494737D01*
X157087935Y-94507349D01*
X157104504Y-94558345D01*
X157108266Y-94571045D01*
X157122147Y-94622849D01*
X157122149Y-94622855D01*
X157125580Y-94635659D01*
X157131599Y-94647472D01*
X157135649Y-94658022D01*
X157140247Y-94668350D01*
X157144345Y-94680962D01*
X157150974Y-94692444D01*
X157150976Y-94692448D01*
X157177794Y-94738897D01*
X157184112Y-94750533D01*
X157214475Y-94810125D01*
X157222820Y-94820430D01*
X157228981Y-94829917D01*
X157235623Y-94839059D01*
X157242250Y-94850538D01*
X157272518Y-94884153D01*
X157286999Y-94900236D01*
X157295607Y-94910315D01*
X157306811Y-94924151D01*
X157319411Y-94936751D01*
X157328511Y-94946340D01*
X157373272Y-94996052D01*
X157383996Y-95003844D01*
X157393855Y-95012721D01*
X157393637Y-95012963D01*
X157407248Y-95024588D01*
X158475412Y-96092752D01*
X158487037Y-96106363D01*
X158487279Y-96106145D01*
X158496156Y-96116004D01*
X158503948Y-96126728D01*
X158553660Y-96171489D01*
X158563249Y-96180589D01*
X158575849Y-96193189D01*
X158580990Y-96197352D01*
X158589685Y-96204393D01*
X158599759Y-96212997D01*
X158649462Y-96257750D01*
X158660941Y-96264377D01*
X158670083Y-96271019D01*
X158679570Y-96277180D01*
X158689875Y-96285525D01*
X158749461Y-96315885D01*
X158761103Y-96322206D01*
X158807552Y-96349024D01*
X158807556Y-96349026D01*
X158819038Y-96355655D01*
X158831650Y-96359753D01*
X158841978Y-96364351D01*
X158852528Y-96368401D01*
X158864341Y-96374420D01*
X158877145Y-96377851D01*
X158877151Y-96377853D01*
X158928955Y-96391734D01*
X158941655Y-96395496D01*
X158988494Y-96410714D01*
X159005263Y-96416163D01*
X159018451Y-96417549D01*
X159029501Y-96419898D01*
X159040670Y-96421667D01*
X159053479Y-96425099D01*
X159120263Y-96428599D01*
X159133464Y-96429638D01*
X159151183Y-96431500D01*
X159168995Y-96431500D01*
X159182236Y-96431847D01*
X159249019Y-96435347D01*
X159262114Y-96433273D01*
X159275357Y-96432579D01*
X159275374Y-96432904D01*
X159293219Y-96431500D01*
X161015500Y-96431500D01*
X161112319Y-96450758D01*
X161194398Y-96505602D01*
X161249242Y-96587681D01*
X161268500Y-96684500D01*
X161268500Y-102268995D01*
X161268153Y-102282236D01*
X161264653Y-102349019D01*
X161266727Y-102362114D01*
X161267421Y-102375357D01*
X161267096Y-102375374D01*
X161268500Y-102393219D01*
X161268500Y-106910999D01*
X161249242Y-107007818D01*
X161194398Y-107089897D01*
X161119703Y-107164592D01*
X161111801Y-107177639D01*
X161111800Y-107177641D01*
X161044114Y-107289405D01*
X161031873Y-107309617D01*
X161027313Y-107324168D01*
X160990611Y-107441284D01*
X160981171Y-107471406D01*
X160974500Y-107544007D01*
X160974501Y-107955992D01*
X160975032Y-107961771D01*
X160975032Y-107961773D01*
X160978344Y-107997819D01*
X160981171Y-108028594D01*
X160985185Y-108041404D01*
X160985186Y-108041407D01*
X161013932Y-108133134D01*
X161031873Y-108190383D01*
X161039772Y-108203426D01*
X161039773Y-108203428D01*
X161109922Y-108319258D01*
X161119703Y-108335408D01*
X161239592Y-108455297D01*
X161327241Y-108508379D01*
X161400078Y-108575005D01*
X161441876Y-108664435D01*
X161446268Y-108763053D01*
X161412587Y-108855845D01*
X161345959Y-108928684D01*
X161324966Y-108942553D01*
X161282202Y-108967843D01*
X161257246Y-108987201D01*
X161162201Y-109082246D01*
X161142841Y-109107205D01*
X161074421Y-109222899D01*
X161061878Y-109251884D01*
X161026959Y-109372073D01*
X161025130Y-109393184D01*
X161027771Y-109394555D01*
X161037921Y-109396000D01*
X162263500Y-109396000D01*
X162360319Y-109415258D01*
X162442398Y-109470102D01*
X162497242Y-109552181D01*
X162516500Y-109649000D01*
X162516500Y-110433081D01*
X162520634Y-110453865D01*
X162541418Y-110457999D01*
X162911498Y-110457999D01*
X162921396Y-110457610D01*
X162940862Y-110456079D01*
X162966173Y-110451457D01*
X163008846Y-110439059D01*
X163107194Y-110430541D01*
X163201315Y-110460307D01*
X163276880Y-110523827D01*
X163322385Y-110611428D01*
X163332417Y-110684662D01*
X163332054Y-110719314D01*
X163335042Y-110733134D01*
X163335042Y-110733136D01*
X163339804Y-110755161D01*
X163343940Y-110780421D01*
X163345848Y-110797428D01*
X163348028Y-110816864D01*
X163356437Y-110841012D01*
X163364794Y-110870744D01*
X163370195Y-110895726D01*
X163376174Y-110908547D01*
X163385694Y-110928964D01*
X163395322Y-110952674D01*
X163407385Y-110987313D01*
X163414877Y-110999302D01*
X163414877Y-110999303D01*
X163420928Y-111008986D01*
X163435670Y-111036137D01*
X163446473Y-111059305D01*
X163455137Y-111070474D01*
X163455139Y-111070478D01*
X163468949Y-111088281D01*
X163483593Y-111109271D01*
X163503029Y-111140376D01*
X163512995Y-111150412D01*
X163521783Y-111161499D01*
X163519789Y-111163079D01*
X163562717Y-111227814D01*
X163581636Y-111324700D01*
X163562040Y-111421451D01*
X163506909Y-111503338D01*
X163424639Y-111557894D01*
X163387700Y-111569824D01*
X163289057Y-111593506D01*
X163289049Y-111593508D01*
X163279388Y-111595828D01*
X163270209Y-111599630D01*
X163270206Y-111599631D01*
X163151767Y-111648690D01*
X163053911Y-111689223D01*
X162845821Y-111816741D01*
X162660241Y-111975241D01*
X162659279Y-111974114D01*
X162586819Y-112022531D01*
X162490000Y-112041789D01*
X162393181Y-112022531D01*
X162320721Y-111974114D01*
X162319759Y-111975241D01*
X162271822Y-111934299D01*
X162134179Y-111816741D01*
X161926089Y-111689223D01*
X161828233Y-111648690D01*
X161709794Y-111599631D01*
X161709791Y-111599630D01*
X161700612Y-111595828D01*
X161690946Y-111593507D01*
X161690945Y-111593507D01*
X161473673Y-111541344D01*
X161463302Y-111538854D01*
X161220000Y-111519706D01*
X160976698Y-111538854D01*
X160966327Y-111541344D01*
X160749055Y-111593507D01*
X160749054Y-111593507D01*
X160739388Y-111595828D01*
X160730209Y-111599630D01*
X160730206Y-111599631D01*
X160611767Y-111648690D01*
X160513911Y-111689223D01*
X160305821Y-111816741D01*
X160120241Y-111975241D01*
X160119279Y-111974114D01*
X160046819Y-112022531D01*
X159950000Y-112041789D01*
X159853181Y-112022531D01*
X159780721Y-111974114D01*
X159779759Y-111975241D01*
X159731822Y-111934299D01*
X159594179Y-111816741D01*
X159386089Y-111689223D01*
X159288233Y-111648690D01*
X159169794Y-111599631D01*
X159169791Y-111599630D01*
X159160612Y-111595828D01*
X159150946Y-111593507D01*
X159150945Y-111593507D01*
X158933673Y-111541344D01*
X158923302Y-111538854D01*
X158680000Y-111519706D01*
X158436698Y-111538854D01*
X158426327Y-111541344D01*
X158209055Y-111593507D01*
X158209054Y-111593507D01*
X158199388Y-111595828D01*
X158190209Y-111599630D01*
X158190206Y-111599631D01*
X158071767Y-111648690D01*
X157973911Y-111689223D01*
X157765821Y-111816741D01*
X157580241Y-111975241D01*
X157579279Y-111974114D01*
X157506819Y-112022531D01*
X157410000Y-112041789D01*
X157313181Y-112022531D01*
X157240721Y-111974114D01*
X157239759Y-111975241D01*
X157191822Y-111934299D01*
X157054179Y-111816741D01*
X156846089Y-111689223D01*
X156748233Y-111648690D01*
X156629794Y-111599631D01*
X156629791Y-111599630D01*
X156620612Y-111595828D01*
X156610946Y-111593507D01*
X156610945Y-111593507D01*
X156393673Y-111541344D01*
X156383302Y-111538854D01*
X156140000Y-111519706D01*
X155896698Y-111538854D01*
X155886327Y-111541344D01*
X155669055Y-111593507D01*
X155669054Y-111593507D01*
X155659388Y-111595828D01*
X155650209Y-111599630D01*
X155650206Y-111599631D01*
X155531767Y-111648690D01*
X155433911Y-111689223D01*
X155338323Y-111747800D01*
X155331885Y-111751745D01*
X155239271Y-111785913D01*
X155140632Y-111782038D01*
X155050983Y-111740710D01*
X155016559Y-111706999D01*
X155015546Y-111708012D01*
X155003349Y-111695815D01*
X154992922Y-111682078D01*
X154953023Y-111651793D01*
X154886521Y-111601314D01*
X154886517Y-111601312D01*
X154872783Y-111590887D01*
X154732547Y-111535364D01*
X154678550Y-111528830D01*
X154650336Y-111525415D01*
X154650330Y-111525415D01*
X154642772Y-111524500D01*
X153224738Y-111524500D01*
X153127919Y-111505242D01*
X153045840Y-111450398D01*
X152990996Y-111368319D01*
X152971738Y-111271500D01*
X152990996Y-111174681D01*
X153045840Y-111092602D01*
X154227388Y-109911054D01*
X161023560Y-109911054D01*
X161025005Y-109921202D01*
X161061878Y-110048116D01*
X161074421Y-110077101D01*
X161142841Y-110192795D01*
X161162201Y-110217754D01*
X161257246Y-110312799D01*
X161282205Y-110332159D01*
X161397899Y-110400579D01*
X161426884Y-110413122D01*
X161558830Y-110451457D01*
X161584141Y-110456080D01*
X161603584Y-110457610D01*
X161613515Y-110458000D01*
X161983582Y-110458000D01*
X162004366Y-110453866D01*
X162008500Y-110433082D01*
X162008500Y-109928918D01*
X162004366Y-109908134D01*
X161983582Y-109904000D01*
X161044925Y-109904000D01*
X161024141Y-109908134D01*
X161023560Y-109911054D01*
X154227388Y-109911054D01*
X154561873Y-109576569D01*
X154563756Y-109574705D01*
X154617286Y-109522285D01*
X154617288Y-109522283D01*
X154627388Y-109512392D01*
X154639126Y-109494179D01*
X154647254Y-109481567D01*
X154662183Y-109460790D01*
X154685071Y-109432118D01*
X154691228Y-109419382D01*
X154696196Y-109409105D01*
X154711317Y-109382160D01*
X154717496Y-109372573D01*
X154717498Y-109372569D01*
X154725160Y-109360680D01*
X154737704Y-109326216D01*
X154747663Y-109302641D01*
X154757470Y-109282355D01*
X154757472Y-109282350D01*
X154763625Y-109269621D01*
X154769375Y-109244716D01*
X154778148Y-109215098D01*
X154782052Y-109204372D01*
X154782053Y-109204368D01*
X154786891Y-109191076D01*
X154791487Y-109154693D01*
X154795976Y-109129491D01*
X154797223Y-109124089D01*
X154804226Y-109093758D01*
X154804368Y-109052918D01*
X154804377Y-109052657D01*
X154804500Y-109051685D01*
X154804500Y-109015571D01*
X154804502Y-109014688D01*
X154804658Y-108970089D01*
X154804856Y-108913272D01*
X154804556Y-108911929D01*
X154804500Y-108910895D01*
X154804500Y-91409832D01*
X154804514Y-91407183D01*
X154805298Y-91332328D01*
X154805298Y-91332327D01*
X154805446Y-91318186D01*
X154797696Y-91282339D01*
X154793560Y-91257079D01*
X154791049Y-91234691D01*
X154791048Y-91234688D01*
X154789472Y-91220636D01*
X154781063Y-91196488D01*
X154772705Y-91166751D01*
X154770294Y-91155598D01*
X154770294Y-91155597D01*
X154767305Y-91141774D01*
X154751806Y-91108536D01*
X154742175Y-91084820D01*
X154737868Y-91072450D01*
X154730115Y-91050187D01*
X154716570Y-91028510D01*
X154701830Y-91001362D01*
X154697006Y-90991016D01*
X154697004Y-90991013D01*
X154691027Y-90978195D01*
X154668548Y-90949216D01*
X154653902Y-90928221D01*
X154650190Y-90922279D01*
X154634471Y-90897124D01*
X154624505Y-90887088D01*
X154624501Y-90887083D01*
X154605686Y-90868136D01*
X154605510Y-90867948D01*
X154604914Y-90867180D01*
X154579427Y-90841693D01*
X154578804Y-90841067D01*
X154510074Y-90771855D01*
X154510070Y-90771851D01*
X154507293Y-90769055D01*
X154506131Y-90768318D01*
X154505360Y-90767626D01*
X153420132Y-89682398D01*
X153365288Y-89600319D01*
X153346030Y-89503500D01*
X153365288Y-89406681D01*
X153420132Y-89324602D01*
X153502211Y-89269758D01*
X153599030Y-89250500D01*
X154642772Y-89250500D01*
X154650330Y-89249585D01*
X154650336Y-89249585D01*
X154678550Y-89246170D01*
X154732547Y-89239636D01*
X154872783Y-89184113D01*
X154886517Y-89173688D01*
X154886521Y-89173686D01*
X154979185Y-89103349D01*
X154992922Y-89092922D01*
X155003349Y-89079185D01*
X155015546Y-89066988D01*
X155017465Y-89068907D01*
X155072046Y-89020533D01*
X155165356Y-88988313D01*
X155263892Y-88994253D01*
X155331884Y-89023254D01*
X155433911Y-89085777D01*
X155524310Y-89123221D01*
X155650206Y-89175369D01*
X155650209Y-89175370D01*
X155659388Y-89179172D01*
X155669054Y-89181493D01*
X155669055Y-89181493D01*
X155689444Y-89186388D01*
X155896698Y-89236146D01*
X156140000Y-89255294D01*
X156383302Y-89236146D01*
X156590556Y-89186388D01*
X156610945Y-89181493D01*
X156610946Y-89181493D01*
X156620612Y-89179172D01*
X156629791Y-89175370D01*
X156629794Y-89175369D01*
X156755690Y-89123221D01*
X156846089Y-89085777D01*
X157054179Y-88958259D01*
X157239759Y-88799759D01*
X157240721Y-88800886D01*
X157313181Y-88752469D01*
X157410000Y-88733211D01*
X157506819Y-88752469D01*
G37*
%TD.AperFunction*%
%TA.AperFunction,Conductor*%
G36*
X144207503Y-105530710D02*
G01*
X144289582Y-105585554D01*
X144293508Y-105589772D01*
X144297361Y-105593545D01*
X144304160Y-105601394D01*
X144487676Y-105753752D01*
X144693612Y-105874091D01*
X144916437Y-105959180D01*
X145024329Y-105981131D01*
X145139996Y-106004664D01*
X145139997Y-106004664D01*
X145150166Y-106006733D01*
X145388525Y-106015473D01*
X145398827Y-106014153D01*
X145398832Y-106014153D01*
X145614808Y-105986485D01*
X145614812Y-105986484D01*
X145625109Y-105985165D01*
X145853568Y-105916625D01*
X145854497Y-105919721D01*
X145930909Y-105905901D01*
X146027378Y-105926844D01*
X146108489Y-105983110D01*
X146161893Y-106066132D01*
X146179500Y-106158863D01*
X146179500Y-107277969D01*
X146160242Y-107374788D01*
X146105398Y-107456867D01*
X144538127Y-109024138D01*
X144536245Y-109026001D01*
X144472612Y-109088315D01*
X144452744Y-109119144D01*
X144437809Y-109139927D01*
X144423752Y-109157535D01*
X144423750Y-109157538D01*
X144414929Y-109168588D01*
X144408776Y-109181316D01*
X144408773Y-109181321D01*
X144403800Y-109191609D01*
X144388681Y-109218550D01*
X144374840Y-109240027D01*
X144370003Y-109253318D01*
X144370002Y-109253319D01*
X144362293Y-109274499D01*
X144352338Y-109298067D01*
X144336376Y-109331086D01*
X144332613Y-109347387D01*
X144330628Y-109355984D01*
X144321856Y-109385598D01*
X144318596Y-109394555D01*
X144313109Y-109409631D01*
X144309744Y-109436273D01*
X144308514Y-109446007D01*
X144304024Y-109471214D01*
X144295774Y-109506948D01*
X144295632Y-109547780D01*
X144295623Y-109548050D01*
X144295500Y-109549022D01*
X144295500Y-109585136D01*
X144295498Y-109586019D01*
X144295144Y-109687435D01*
X144295444Y-109688778D01*
X144295500Y-109689812D01*
X144295500Y-109963684D01*
X144276242Y-110060503D01*
X144221398Y-110142582D01*
X144194419Y-110165994D01*
X144133675Y-110211602D01*
X144126502Y-110219108D01*
X144126501Y-110219109D01*
X144103853Y-110242809D01*
X143968887Y-110384042D01*
X143834475Y-110581082D01*
X143833390Y-110580342D01*
X143776063Y-110646638D01*
X143687835Y-110690916D01*
X143620649Y-110700000D01*
X141960828Y-110700000D01*
X141864009Y-110680742D01*
X141781930Y-110625898D01*
X141727086Y-110543819D01*
X141722839Y-110533566D01*
X141673277Y-110413911D01*
X141659707Y-110391766D01*
X141578751Y-110259659D01*
X141545759Y-110205821D01*
X141387259Y-110020241D01*
X141207847Y-109867009D01*
X141173474Y-109831259D01*
X141150845Y-109802555D01*
X140107188Y-108758898D01*
X140052344Y-108676819D01*
X140033086Y-108580000D01*
X140652556Y-108580000D01*
X140664329Y-108597619D01*
X141502983Y-109436273D01*
X141520602Y-109448046D01*
X141525621Y-109444692D01*
X141528400Y-109441168D01*
X141630097Y-109275214D01*
X141639096Y-109257553D01*
X141722325Y-109056620D01*
X141728449Y-109037771D01*
X141779217Y-108826308D01*
X141782320Y-108806717D01*
X141799383Y-108589911D01*
X141799383Y-108570089D01*
X141782320Y-108353283D01*
X141779217Y-108333692D01*
X141728449Y-108122229D01*
X141722325Y-108103380D01*
X141639096Y-107902447D01*
X141630097Y-107884786D01*
X141533622Y-107727355D01*
X141519238Y-107711794D01*
X141513571Y-107713884D01*
X141510050Y-107716660D01*
X140664329Y-108562381D01*
X140652556Y-108580000D01*
X140033086Y-108580000D01*
X140052344Y-108483181D01*
X140107188Y-108401102D01*
X141143773Y-107364517D01*
X141151335Y-107353200D01*
X141202845Y-107299625D01*
X141201679Y-107298259D01*
X141379700Y-107146215D01*
X141387259Y-107139759D01*
X141455217Y-107060190D01*
X141532740Y-106999076D01*
X141627749Y-106972280D01*
X141647600Y-106971500D01*
X142066781Y-106971500D01*
X142084626Y-106972904D01*
X142084643Y-106972579D01*
X142097886Y-106973273D01*
X142110981Y-106975347D01*
X142177764Y-106971847D01*
X142191005Y-106971500D01*
X142208817Y-106971500D01*
X142226536Y-106969638D01*
X142239737Y-106968599D01*
X142306521Y-106965099D01*
X142319330Y-106961667D01*
X142330499Y-106959898D01*
X142341549Y-106957549D01*
X142354737Y-106956163D01*
X142371506Y-106950714D01*
X142418345Y-106935496D01*
X142431045Y-106931734D01*
X142482849Y-106917853D01*
X142482855Y-106917851D01*
X142495659Y-106914420D01*
X142507472Y-106908401D01*
X142518022Y-106904351D01*
X142528350Y-106899753D01*
X142540962Y-106895655D01*
X142552444Y-106889026D01*
X142552448Y-106889024D01*
X142598897Y-106862206D01*
X142610539Y-106855885D01*
X142670125Y-106825525D01*
X142680430Y-106817180D01*
X142689917Y-106811019D01*
X142699059Y-106804377D01*
X142710538Y-106797750D01*
X142760241Y-106752997D01*
X142770315Y-106744393D01*
X142779010Y-106737352D01*
X142784151Y-106733189D01*
X142796751Y-106720589D01*
X142806340Y-106711489D01*
X142856052Y-106666728D01*
X142863844Y-106656004D01*
X142872721Y-106646145D01*
X142872963Y-106646363D01*
X142884588Y-106632752D01*
X143931786Y-105585554D01*
X144013865Y-105530710D01*
X144110684Y-105511452D01*
X144207503Y-105530710D01*
G37*
%TD.AperFunction*%
%TA.AperFunction,Conductor*%
G36*
X167862319Y-102250758D02*
G01*
X167944398Y-102305602D01*
X167999242Y-102387681D01*
X168018500Y-102484500D01*
X168018500Y-106256614D01*
X167999242Y-106353433D01*
X167944398Y-106435512D01*
X167862319Y-106490356D01*
X167765500Y-106509614D01*
X167668681Y-106490356D01*
X167610438Y-106456526D01*
X167592795Y-106442841D01*
X167477101Y-106374421D01*
X167448116Y-106361878D01*
X167327927Y-106326959D01*
X167306816Y-106325130D01*
X167305445Y-106327771D01*
X167304000Y-106337921D01*
X167304000Y-107563500D01*
X167284742Y-107660319D01*
X167229898Y-107742398D01*
X167147819Y-107797242D01*
X167051000Y-107816500D01*
X166266919Y-107816500D01*
X166246135Y-107820634D01*
X166242001Y-107841418D01*
X166242001Y-107847000D01*
X166222743Y-107943819D01*
X166167899Y-108025898D01*
X166085820Y-108080742D01*
X165989001Y-108100000D01*
X165553000Y-108100000D01*
X165456181Y-108080742D01*
X165374102Y-108025898D01*
X165319258Y-107943819D01*
X165300000Y-107847000D01*
X165300000Y-107283582D01*
X166242000Y-107283582D01*
X166246134Y-107304366D01*
X166266918Y-107308500D01*
X166771082Y-107308500D01*
X166791866Y-107304366D01*
X166796000Y-107283582D01*
X166796000Y-106344925D01*
X166791866Y-106324141D01*
X166788946Y-106323560D01*
X166778798Y-106325005D01*
X166651884Y-106361878D01*
X166622899Y-106374421D01*
X166507205Y-106442841D01*
X166482246Y-106462201D01*
X166387201Y-106557246D01*
X166367841Y-106582205D01*
X166299421Y-106697899D01*
X166286878Y-106726884D01*
X166248543Y-106858830D01*
X166243920Y-106884141D01*
X166242390Y-106903584D01*
X166242000Y-106913515D01*
X166242000Y-107283582D01*
X165300000Y-107283582D01*
X165300000Y-106900000D01*
X163384500Y-106900000D01*
X163287681Y-106880742D01*
X163205602Y-106825898D01*
X163150758Y-106743819D01*
X163131500Y-106647000D01*
X163131500Y-102790636D01*
X163150758Y-102693817D01*
X163205602Y-102611738D01*
X163511738Y-102305602D01*
X163593817Y-102250758D01*
X163690636Y-102231500D01*
X167765500Y-102231500D01*
X167862319Y-102250758D01*
G37*
%TD.AperFunction*%
%TA.AperFunction,Conductor*%
G36*
X187158788Y-78023758D02*
G01*
X187240867Y-78078602D01*
X188219126Y-79056861D01*
X188273970Y-79138940D01*
X188293228Y-79235759D01*
X188273970Y-79332578D01*
X188219126Y-79414657D01*
X188191465Y-79438282D01*
X188185821Y-79441741D01*
X188178265Y-79448194D01*
X188178260Y-79448198D01*
X188089791Y-79523758D01*
X188000241Y-79600241D01*
X187841741Y-79785821D01*
X187714223Y-79993911D01*
X187710417Y-80003100D01*
X187633922Y-80187777D01*
X187620828Y-80219388D01*
X187563854Y-80456698D01*
X187544706Y-80700000D01*
X187563854Y-80943302D01*
X187620828Y-81180612D01*
X187624630Y-81189791D01*
X187624631Y-81189794D01*
X187654887Y-81262839D01*
X187714223Y-81406089D01*
X187719419Y-81414568D01*
X187719420Y-81414570D01*
X187799039Y-81544497D01*
X187833206Y-81637112D01*
X187829330Y-81735751D01*
X187788002Y-81825399D01*
X187762219Y-81855587D01*
X187726285Y-81891521D01*
X187660637Y-81979115D01*
X187643501Y-82010415D01*
X187604318Y-82114936D01*
X187597034Y-82145566D01*
X187592740Y-82185095D01*
X187592000Y-82198764D01*
X187592000Y-82961082D01*
X187596134Y-82981866D01*
X187616918Y-82986000D01*
X190583081Y-82986000D01*
X190603865Y-82981866D01*
X190607999Y-82961082D01*
X190607999Y-82198755D01*
X190607260Y-82185112D01*
X190602965Y-82145564D01*
X190595682Y-82114936D01*
X190556499Y-82010415D01*
X190539363Y-81979115D01*
X190473715Y-81891521D01*
X190437781Y-81855587D01*
X190382937Y-81773508D01*
X190363679Y-81676689D01*
X190382937Y-81579870D01*
X190400961Y-81544497D01*
X190480580Y-81414570D01*
X190480581Y-81414568D01*
X190485777Y-81406089D01*
X190545113Y-81262839D01*
X190575369Y-81189794D01*
X190575370Y-81189791D01*
X190579172Y-81180612D01*
X190636146Y-80943302D01*
X190655294Y-80700000D01*
X190636146Y-80456698D01*
X190579172Y-80219388D01*
X190566079Y-80187777D01*
X190489583Y-80003100D01*
X190485777Y-79993911D01*
X190358259Y-79785821D01*
X190199759Y-79600241D01*
X190103198Y-79517770D01*
X190021737Y-79448196D01*
X190021736Y-79448195D01*
X190014179Y-79441741D01*
X190008043Y-79437981D01*
X189941784Y-79366304D01*
X189907615Y-79273690D01*
X189904500Y-79234109D01*
X189904500Y-78809832D01*
X189904514Y-78807183D01*
X189905298Y-78732328D01*
X189905298Y-78732327D01*
X189905446Y-78718186D01*
X189900849Y-78696920D01*
X189897696Y-78682339D01*
X189893556Y-78657043D01*
X189893258Y-78654383D01*
X189901617Y-78556022D01*
X189946982Y-78468348D01*
X190022445Y-78404707D01*
X190116518Y-78374789D01*
X190214879Y-78383148D01*
X190302553Y-78428513D01*
X190323583Y-78447318D01*
X191775398Y-79899133D01*
X191830242Y-79981212D01*
X191849500Y-80078031D01*
X191849500Y-81742772D01*
X191850415Y-81750330D01*
X191850415Y-81750336D01*
X191853830Y-81778550D01*
X191860364Y-81832547D01*
X191915887Y-81972783D01*
X191926312Y-81986517D01*
X191926314Y-81986521D01*
X191963422Y-82035408D01*
X192007078Y-82092922D01*
X192020815Y-82103349D01*
X192033012Y-82115546D01*
X192031093Y-82117465D01*
X192079467Y-82172046D01*
X192111687Y-82265356D01*
X192105747Y-82363892D01*
X192076746Y-82431884D01*
X192014223Y-82533911D01*
X192010417Y-82543100D01*
X191926757Y-82745075D01*
X191920828Y-82759388D01*
X191863854Y-82996698D01*
X191844706Y-83240000D01*
X191863854Y-83483302D01*
X191920828Y-83720612D01*
X192014223Y-83946089D01*
X192141741Y-84154179D01*
X192300241Y-84339759D01*
X192307800Y-84346215D01*
X192450169Y-84467809D01*
X192485821Y-84498259D01*
X192491957Y-84502019D01*
X192558216Y-84573696D01*
X192592385Y-84666310D01*
X192595500Y-84705891D01*
X192595500Y-85863684D01*
X192576242Y-85960503D01*
X192521398Y-86042582D01*
X192494419Y-86065994D01*
X192433675Y-86111602D01*
X192268887Y-86284042D01*
X192134475Y-86481082D01*
X192034051Y-86697428D01*
X192031276Y-86707434D01*
X192031275Y-86707437D01*
X192011634Y-86778261D01*
X191970309Y-86927272D01*
X191961031Y-87014085D01*
X191946102Y-87153785D01*
X191944963Y-87164440D01*
X191958694Y-87402562D01*
X192011131Y-87635245D01*
X192100867Y-87856239D01*
X192106288Y-87865086D01*
X192106291Y-87865091D01*
X192165290Y-87961367D01*
X192225493Y-88059609D01*
X192232289Y-88067454D01*
X192232290Y-88067456D01*
X192380843Y-88238951D01*
X192429678Y-88324741D01*
X192441964Y-88422690D01*
X192415833Y-88517884D01*
X192355261Y-88595831D01*
X192269471Y-88644666D01*
X192189612Y-88657600D01*
X190820239Y-88657600D01*
X190723420Y-88638342D01*
X190641341Y-88583498D01*
X190586497Y-88501419D01*
X190567239Y-88404600D01*
X190586497Y-88307782D01*
X190615007Y-88238951D01*
X190639172Y-88180612D01*
X190641995Y-88168856D01*
X190691809Y-87961367D01*
X190696146Y-87943302D01*
X190715294Y-87700000D01*
X190696146Y-87456698D01*
X190639172Y-87219388D01*
X190622875Y-87180042D01*
X190549583Y-87003100D01*
X190545777Y-86993911D01*
X190527274Y-86963716D01*
X190472432Y-86874223D01*
X190418259Y-86785821D01*
X190259759Y-86600241D01*
X190074179Y-86441741D01*
X189893349Y-86330928D01*
X189874570Y-86319420D01*
X189874568Y-86319419D01*
X189866089Y-86314223D01*
X189732746Y-86258991D01*
X189649794Y-86224631D01*
X189649791Y-86224630D01*
X189640612Y-86220828D01*
X189630946Y-86218507D01*
X189630945Y-86218507D01*
X189488706Y-86184358D01*
X189403302Y-86163854D01*
X189160000Y-86144706D01*
X188916698Y-86163854D01*
X188831294Y-86184358D01*
X188689055Y-86218507D01*
X188689054Y-86218507D01*
X188679388Y-86220828D01*
X188670209Y-86224630D01*
X188670206Y-86224631D01*
X188587254Y-86258991D01*
X188453911Y-86314223D01*
X188445432Y-86319419D01*
X188445430Y-86319420D01*
X188426651Y-86330928D01*
X188245821Y-86441741D01*
X188060241Y-86600241D01*
X188052869Y-86608873D01*
X188052129Y-86609456D01*
X188046756Y-86614829D01*
X188046120Y-86614193D01*
X187975349Y-86669987D01*
X187880340Y-86696784D01*
X187782308Y-86685183D01*
X187696178Y-86636950D01*
X187682558Y-86624360D01*
X187516681Y-86482687D01*
X187500648Y-86471038D01*
X187315211Y-86357401D01*
X187297551Y-86348403D01*
X187096622Y-86265176D01*
X187077769Y-86259050D01*
X186898232Y-86215947D01*
X186877055Y-86215115D01*
X186874527Y-86220597D01*
X186874000Y-86225049D01*
X186874000Y-89164953D01*
X186878134Y-89185737D01*
X186884056Y-89186915D01*
X186888510Y-89186388D01*
X187077769Y-89140950D01*
X187096622Y-89134824D01*
X187297551Y-89051597D01*
X187315211Y-89042599D01*
X187500648Y-88928962D01*
X187516681Y-88917313D01*
X187689614Y-88769614D01*
X187690463Y-88770607D01*
X187763666Y-88721694D01*
X187860485Y-88702436D01*
X187957304Y-88721694D01*
X188039383Y-88776538D01*
X188052862Y-88791119D01*
X188060241Y-88799759D01*
X188067800Y-88806215D01*
X188139810Y-88867717D01*
X188200924Y-88945240D01*
X188227720Y-89040249D01*
X188228500Y-89060100D01*
X188228500Y-90075462D01*
X188209242Y-90172281D01*
X188154398Y-90254360D01*
X188133343Y-90273185D01*
X188030380Y-90355380D01*
X188028781Y-90353377D01*
X187964278Y-90396477D01*
X187867459Y-90415735D01*
X187770640Y-90396477D01*
X187688715Y-90341787D01*
X187683392Y-90336473D01*
X187660478Y-90318377D01*
X187535036Y-90241054D01*
X187508577Y-90228716D01*
X187367876Y-90182047D01*
X187341009Y-90176287D01*
X187256793Y-90167659D01*
X187243904Y-90167000D01*
X187141418Y-90167000D01*
X187120634Y-90171134D01*
X187116500Y-90191918D01*
X187116500Y-91401000D01*
X187097242Y-91497819D01*
X187042398Y-91579898D01*
X186960319Y-91634742D01*
X186863500Y-91654000D01*
X185791919Y-91654000D01*
X185771135Y-91658134D01*
X185767001Y-91678918D01*
X185767001Y-91918821D01*
X185767676Y-91931869D01*
X185776539Y-92017291D01*
X185782350Y-92044198D01*
X185829253Y-92184786D01*
X185841641Y-92211232D01*
X185919184Y-92336538D01*
X185937318Y-92359418D01*
X186041607Y-92463526D01*
X186064522Y-92481623D01*
X186189964Y-92558946D01*
X186216423Y-92571284D01*
X186313196Y-92603383D01*
X186399029Y-92652143D01*
X186459668Y-92730038D01*
X186485883Y-92825210D01*
X186473681Y-92923168D01*
X186424921Y-93009001D01*
X186412444Y-93022416D01*
X179140462Y-100294398D01*
X179058383Y-100349242D01*
X178961564Y-100368500D01*
X169793219Y-100368500D01*
X169775374Y-100367096D01*
X169775357Y-100367421D01*
X169762114Y-100366727D01*
X169749019Y-100364653D01*
X169683533Y-100368085D01*
X169682236Y-100368153D01*
X169668995Y-100368500D01*
X163384500Y-100368500D01*
X163287681Y-100349242D01*
X163205602Y-100294398D01*
X163150758Y-100212319D01*
X163131500Y-100115500D01*
X163131500Y-95578136D01*
X163150758Y-95481317D01*
X163205602Y-95399238D01*
X163705239Y-94899601D01*
X163787318Y-94844757D01*
X163884137Y-94825499D01*
X163955992Y-94825499D01*
X163961772Y-94824968D01*
X164015221Y-94820058D01*
X164015225Y-94820057D01*
X164028594Y-94818829D01*
X164041404Y-94814815D01*
X164041407Y-94814814D01*
X164168866Y-94774870D01*
X164190383Y-94768127D01*
X164203426Y-94760228D01*
X164203428Y-94760227D01*
X164322359Y-94688200D01*
X164322361Y-94688199D01*
X164335408Y-94680297D01*
X164455297Y-94560408D01*
X164508379Y-94472759D01*
X164575005Y-94399922D01*
X164664435Y-94358124D01*
X164763053Y-94353732D01*
X164855845Y-94387413D01*
X164928684Y-94454041D01*
X164942553Y-94475034D01*
X164967843Y-94517798D01*
X164987201Y-94542754D01*
X165082246Y-94637799D01*
X165107205Y-94657159D01*
X165222899Y-94725579D01*
X165251884Y-94738122D01*
X165372073Y-94773041D01*
X165393184Y-94774870D01*
X165394555Y-94772229D01*
X165396000Y-94762079D01*
X165396000Y-94755075D01*
X165904000Y-94755075D01*
X165908134Y-94775859D01*
X165911054Y-94776440D01*
X165921202Y-94774995D01*
X166048116Y-94738122D01*
X166077101Y-94725579D01*
X166192795Y-94657159D01*
X166217754Y-94637799D01*
X166312799Y-94542754D01*
X166332159Y-94517795D01*
X166400579Y-94402101D01*
X166413122Y-94373116D01*
X166451457Y-94241170D01*
X166456080Y-94215859D01*
X166457610Y-94196416D01*
X166458000Y-94186485D01*
X166458000Y-93816418D01*
X166453866Y-93795634D01*
X166433082Y-93791500D01*
X165928918Y-93791500D01*
X165908134Y-93795634D01*
X165904000Y-93816418D01*
X165904000Y-94755075D01*
X165396000Y-94755075D01*
X165396000Y-93536500D01*
X165415258Y-93439681D01*
X165470102Y-93357602D01*
X165552181Y-93302758D01*
X165649000Y-93283500D01*
X166433081Y-93283500D01*
X166453865Y-93279366D01*
X166457999Y-93258582D01*
X166457999Y-93206321D01*
X177692001Y-93206321D01*
X177692676Y-93219369D01*
X177701539Y-93304791D01*
X177707350Y-93331698D01*
X177754253Y-93472286D01*
X177766641Y-93498732D01*
X177844184Y-93624038D01*
X177862318Y-93646918D01*
X177966607Y-93751026D01*
X177989522Y-93769123D01*
X178114964Y-93846446D01*
X178141423Y-93858784D01*
X178282124Y-93905453D01*
X178308991Y-93911213D01*
X178393207Y-93919841D01*
X178406096Y-93920500D01*
X178621082Y-93920500D01*
X178641866Y-93916366D01*
X178646000Y-93895582D01*
X178646000Y-93178918D01*
X178641866Y-93158134D01*
X178621082Y-93154000D01*
X177716919Y-93154000D01*
X177696135Y-93158134D01*
X177692001Y-93178918D01*
X177692001Y-93206321D01*
X166457999Y-93206321D01*
X166457999Y-92888502D01*
X166457610Y-92878604D01*
X166456079Y-92859138D01*
X166451457Y-92833831D01*
X166413122Y-92701884D01*
X166400579Y-92672899D01*
X166332159Y-92557205D01*
X166312799Y-92532246D01*
X166217754Y-92437201D01*
X166192795Y-92417841D01*
X166077101Y-92349421D01*
X166048116Y-92336878D01*
X165916170Y-92298543D01*
X165890859Y-92293920D01*
X165871416Y-92292390D01*
X165861484Y-92292000D01*
X165803500Y-92292000D01*
X165706681Y-92272742D01*
X165624602Y-92217898D01*
X165569758Y-92135819D01*
X165550500Y-92039000D01*
X165550499Y-91024812D01*
X165550499Y-91019008D01*
X165548107Y-90992969D01*
X165545058Y-90959779D01*
X165545057Y-90959775D01*
X165543829Y-90946406D01*
X165532144Y-90909117D01*
X165497687Y-90799168D01*
X165493127Y-90784617D01*
X165483703Y-90769055D01*
X165413200Y-90652641D01*
X165413199Y-90652639D01*
X165405297Y-90639592D01*
X165285408Y-90519703D01*
X165254798Y-90501165D01*
X165153428Y-90439773D01*
X165153426Y-90439772D01*
X165140383Y-90431873D01*
X165088887Y-90415735D01*
X164991404Y-90385185D01*
X164991400Y-90385184D01*
X164978594Y-90381171D01*
X164946945Y-90378263D01*
X164911766Y-90375030D01*
X164911756Y-90375030D01*
X164905993Y-90374500D01*
X164887307Y-90374500D01*
X164654532Y-90374501D01*
X164557714Y-90355243D01*
X164475634Y-90300399D01*
X163842627Y-89667392D01*
X163787783Y-89585313D01*
X163768525Y-89488494D01*
X163787783Y-89391675D01*
X163842627Y-89309596D01*
X163924706Y-89254752D01*
X163983898Y-89240542D01*
X163983572Y-89238481D01*
X163993387Y-89236926D01*
X164003302Y-89236146D01*
X164210556Y-89186388D01*
X164230945Y-89181493D01*
X164230946Y-89181493D01*
X164240612Y-89179172D01*
X164249791Y-89175370D01*
X164249794Y-89175369D01*
X164375690Y-89123221D01*
X164466089Y-89085777D01*
X164674179Y-88958259D01*
X164859759Y-88799759D01*
X164860721Y-88800886D01*
X164933181Y-88752469D01*
X165030000Y-88733211D01*
X165126819Y-88752469D01*
X165199279Y-88800886D01*
X165200241Y-88799759D01*
X165385821Y-88958259D01*
X165593911Y-89085777D01*
X165684310Y-89123221D01*
X165810206Y-89175369D01*
X165810209Y-89175370D01*
X165819388Y-89179172D01*
X165829054Y-89181493D01*
X165829055Y-89181493D01*
X165849444Y-89186388D01*
X166056698Y-89236146D01*
X166300000Y-89255294D01*
X166543302Y-89236146D01*
X166750556Y-89186388D01*
X166770945Y-89181493D01*
X166770946Y-89181493D01*
X166780612Y-89179172D01*
X166789791Y-89175370D01*
X166789794Y-89175369D01*
X166915690Y-89123221D01*
X167006089Y-89085777D01*
X167214179Y-88958259D01*
X167399759Y-88799759D01*
X167400721Y-88800886D01*
X167473181Y-88752469D01*
X167570000Y-88733211D01*
X167666819Y-88752469D01*
X167739279Y-88800886D01*
X167740241Y-88799759D01*
X167925821Y-88958259D01*
X168133911Y-89085777D01*
X168224310Y-89123221D01*
X168350206Y-89175369D01*
X168350209Y-89175370D01*
X168359388Y-89179172D01*
X168369054Y-89181493D01*
X168369055Y-89181493D01*
X168389444Y-89186388D01*
X168596698Y-89236146D01*
X168840000Y-89255294D01*
X169083302Y-89236146D01*
X169290556Y-89186388D01*
X169310945Y-89181493D01*
X169310946Y-89181493D01*
X169320612Y-89179172D01*
X169329791Y-89175370D01*
X169329794Y-89175369D01*
X169455690Y-89123221D01*
X169546089Y-89085777D01*
X169754179Y-88958259D01*
X169939759Y-88799759D01*
X169940721Y-88800886D01*
X170013181Y-88752469D01*
X170110000Y-88733211D01*
X170206819Y-88752469D01*
X170279279Y-88800886D01*
X170280241Y-88799759D01*
X170465821Y-88958259D01*
X170673911Y-89085777D01*
X170764310Y-89123221D01*
X170890206Y-89175369D01*
X170890209Y-89175370D01*
X170899388Y-89179172D01*
X170909054Y-89181493D01*
X170909055Y-89181493D01*
X170929444Y-89186388D01*
X171136698Y-89236146D01*
X171380000Y-89255294D01*
X171623302Y-89236146D01*
X171830556Y-89186388D01*
X171850945Y-89181493D01*
X171850946Y-89181493D01*
X171860612Y-89179172D01*
X171869791Y-89175370D01*
X171869794Y-89175369D01*
X171995690Y-89123221D01*
X172086089Y-89085777D01*
X172294179Y-88958259D01*
X172479759Y-88799759D01*
X172480721Y-88800886D01*
X172553181Y-88752469D01*
X172650000Y-88733211D01*
X172746819Y-88752469D01*
X172819279Y-88800886D01*
X172820241Y-88799759D01*
X173005821Y-88958259D01*
X173213911Y-89085777D01*
X173304310Y-89123221D01*
X173430206Y-89175369D01*
X173430209Y-89175370D01*
X173439388Y-89179172D01*
X173449054Y-89181493D01*
X173449055Y-89181493D01*
X173469444Y-89186388D01*
X173676698Y-89236146D01*
X173920000Y-89255294D01*
X174163302Y-89236146D01*
X174370556Y-89186388D01*
X174390945Y-89181493D01*
X174390946Y-89181493D01*
X174400612Y-89179172D01*
X174409791Y-89175370D01*
X174409794Y-89175369D01*
X174535690Y-89123221D01*
X174626089Y-89085777D01*
X174834179Y-88958259D01*
X175019759Y-88799759D01*
X175020721Y-88800886D01*
X175093181Y-88752469D01*
X175190000Y-88733211D01*
X175286819Y-88752469D01*
X175359279Y-88800886D01*
X175360241Y-88799759D01*
X175545821Y-88958259D01*
X175753911Y-89085777D01*
X175844310Y-89123221D01*
X175970206Y-89175369D01*
X175970209Y-89175370D01*
X175979388Y-89179172D01*
X175989054Y-89181493D01*
X175989055Y-89181493D01*
X176009444Y-89186388D01*
X176216698Y-89236146D01*
X176460000Y-89255294D01*
X176703302Y-89236146D01*
X176910556Y-89186388D01*
X176930945Y-89181493D01*
X176930946Y-89181493D01*
X176940612Y-89179172D01*
X176949791Y-89175370D01*
X176949794Y-89175369D01*
X177075690Y-89123221D01*
X177166089Y-89085777D01*
X177374179Y-88958259D01*
X177559759Y-88799759D01*
X177560721Y-88800886D01*
X177633181Y-88752469D01*
X177730000Y-88733211D01*
X177826819Y-88752469D01*
X177899279Y-88800886D01*
X177900241Y-88799759D01*
X178051519Y-88928962D01*
X178085821Y-88958259D01*
X178091957Y-88962019D01*
X178158216Y-89033696D01*
X178192385Y-89126310D01*
X178195500Y-89165891D01*
X178195500Y-89887644D01*
X178176242Y-89984463D01*
X178121398Y-90066542D01*
X178052614Y-90115424D01*
X178033473Y-90124677D01*
X178033468Y-90124680D01*
X178020734Y-90130836D01*
X177880380Y-90242880D01*
X177768336Y-90383234D01*
X177690173Y-90544923D01*
X177649774Y-90719911D01*
X177649500Y-90724663D01*
X177649501Y-91425336D01*
X177649774Y-91430089D01*
X177690173Y-91605077D01*
X177768336Y-91766766D01*
X177777158Y-91777817D01*
X177777161Y-91777821D01*
X177843601Y-91861048D01*
X177888954Y-91948728D01*
X177897300Y-92047091D01*
X177867370Y-92141159D01*
X177844430Y-92175689D01*
X177843376Y-92177024D01*
X177766054Y-92302464D01*
X177753716Y-92328923D01*
X177707047Y-92469624D01*
X177701287Y-92496491D01*
X177692659Y-92580707D01*
X177692000Y-92593596D01*
X177692000Y-92621082D01*
X177696134Y-92641866D01*
X177716918Y-92646000D01*
X178901000Y-92646000D01*
X178997819Y-92665258D01*
X179079898Y-92720102D01*
X179134742Y-92802181D01*
X179154000Y-92899000D01*
X179154000Y-93895581D01*
X179158134Y-93916365D01*
X179178918Y-93920499D01*
X179393821Y-93920499D01*
X179406869Y-93919824D01*
X179492291Y-93910961D01*
X179519198Y-93905150D01*
X179659786Y-93858247D01*
X179686232Y-93845859D01*
X179811538Y-93768316D01*
X179834418Y-93750182D01*
X179938521Y-93645898D01*
X179951442Y-93629537D01*
X180026562Y-93565492D01*
X180120472Y-93535068D01*
X180218877Y-93542898D01*
X180306795Y-93587790D01*
X180348265Y-93629188D01*
X180362317Y-93646917D01*
X180466607Y-93751026D01*
X180489522Y-93769123D01*
X180614964Y-93846446D01*
X180641423Y-93858784D01*
X180782124Y-93905453D01*
X180808991Y-93911213D01*
X180893207Y-93919841D01*
X180906096Y-93920500D01*
X181121082Y-93920500D01*
X181141866Y-93916366D01*
X181146000Y-93895582D01*
X181146000Y-93895581D01*
X181654000Y-93895581D01*
X181658134Y-93916365D01*
X181678918Y-93920499D01*
X181893821Y-93920499D01*
X181906869Y-93919824D01*
X181992291Y-93910961D01*
X182019198Y-93905150D01*
X182159786Y-93858247D01*
X182186232Y-93845859D01*
X182311538Y-93768316D01*
X182334418Y-93750182D01*
X182438526Y-93645893D01*
X182456623Y-93622978D01*
X182533946Y-93497536D01*
X182546284Y-93471077D01*
X182592953Y-93330376D01*
X182598713Y-93303509D01*
X182607341Y-93219293D01*
X182608000Y-93206404D01*
X182608000Y-93178918D01*
X182603866Y-93158134D01*
X182583082Y-93154000D01*
X181678918Y-93154000D01*
X181658134Y-93158134D01*
X181654000Y-93178918D01*
X181654000Y-93895581D01*
X181146000Y-93895581D01*
X181146000Y-92899000D01*
X181165258Y-92802181D01*
X181220102Y-92720102D01*
X181302181Y-92665258D01*
X181399000Y-92646000D01*
X182583081Y-92646000D01*
X182603865Y-92641866D01*
X182607999Y-92621082D01*
X182607999Y-92593679D01*
X182607324Y-92580631D01*
X182598461Y-92495209D01*
X182592650Y-92468302D01*
X182545747Y-92327714D01*
X182533359Y-92301268D01*
X182448083Y-92163465D01*
X182449102Y-92162835D01*
X182410818Y-92088184D01*
X182402814Y-91989794D01*
X182433073Y-91895830D01*
X182456408Y-91861036D01*
X182531664Y-91766766D01*
X182609827Y-91605077D01*
X182650226Y-91430089D01*
X182650500Y-91425337D01*
X182650500Y-91121082D01*
X185767000Y-91121082D01*
X185771134Y-91141866D01*
X185791918Y-91146000D01*
X186583582Y-91146000D01*
X186604366Y-91141866D01*
X186608500Y-91121082D01*
X186608500Y-90191919D01*
X186604366Y-90171135D01*
X186583582Y-90167001D01*
X186481179Y-90167001D01*
X186468131Y-90167676D01*
X186382709Y-90176539D01*
X186355802Y-90182350D01*
X186215214Y-90229253D01*
X186188768Y-90241641D01*
X186063462Y-90319184D01*
X186040582Y-90337318D01*
X185936474Y-90441607D01*
X185918377Y-90464522D01*
X185841054Y-90589964D01*
X185828716Y-90616423D01*
X185782047Y-90757124D01*
X185776287Y-90783991D01*
X185767659Y-90868207D01*
X185767000Y-90881096D01*
X185767000Y-91121082D01*
X182650500Y-91121082D01*
X182650499Y-90724664D01*
X182650226Y-90719911D01*
X182609827Y-90544923D01*
X182531664Y-90383234D01*
X182419620Y-90242880D01*
X182415703Y-90239753D01*
X182363758Y-90162013D01*
X182344500Y-90065194D01*
X182344500Y-89165891D01*
X182363758Y-89069072D01*
X182418602Y-88986993D01*
X182447336Y-88962453D01*
X182454179Y-88958259D01*
X182488482Y-88928962D01*
X182639759Y-88799759D01*
X182640721Y-88800886D01*
X182713181Y-88752469D01*
X182810000Y-88733211D01*
X182906819Y-88752469D01*
X182979279Y-88800886D01*
X182980241Y-88799759D01*
X183165821Y-88958259D01*
X183373911Y-89085777D01*
X183464310Y-89123221D01*
X183590206Y-89175369D01*
X183590209Y-89175370D01*
X183599388Y-89179172D01*
X183609054Y-89181493D01*
X183609055Y-89181493D01*
X183629444Y-89186388D01*
X183836698Y-89236146D01*
X184080000Y-89255294D01*
X184323302Y-89236146D01*
X184530556Y-89186388D01*
X184550945Y-89181493D01*
X184550946Y-89181493D01*
X184560612Y-89179172D01*
X184569791Y-89175370D01*
X184569794Y-89175369D01*
X184695690Y-89123221D01*
X184786089Y-89085777D01*
X184994179Y-88958259D01*
X185179759Y-88799759D01*
X185187131Y-88791127D01*
X185187871Y-88790544D01*
X185193244Y-88785171D01*
X185193880Y-88785807D01*
X185264651Y-88730013D01*
X185359660Y-88703216D01*
X185457692Y-88714817D01*
X185543822Y-88763050D01*
X185557442Y-88775640D01*
X185723319Y-88917313D01*
X185739352Y-88928962D01*
X185924789Y-89042599D01*
X185942449Y-89051597D01*
X186143378Y-89134824D01*
X186162231Y-89140950D01*
X186341768Y-89184053D01*
X186362945Y-89184885D01*
X186365473Y-89179403D01*
X186366000Y-89174951D01*
X186366000Y-86235047D01*
X186361866Y-86214263D01*
X186355944Y-86213085D01*
X186351490Y-86213612D01*
X186162231Y-86259050D01*
X186143378Y-86265176D01*
X185942449Y-86348403D01*
X185924789Y-86357401D01*
X185739352Y-86471038D01*
X185723319Y-86482687D01*
X185550386Y-86630386D01*
X185549537Y-86629393D01*
X185476334Y-86678306D01*
X185379515Y-86697564D01*
X185282696Y-86678306D01*
X185200617Y-86623462D01*
X185187138Y-86608881D01*
X185179759Y-86600241D01*
X184994179Y-86441741D01*
X184813349Y-86330928D01*
X184794570Y-86319420D01*
X184794568Y-86319419D01*
X184786089Y-86314223D01*
X184652746Y-86258991D01*
X184569794Y-86224631D01*
X184569791Y-86224630D01*
X184560612Y-86220828D01*
X184550946Y-86218507D01*
X184550945Y-86218507D01*
X184408706Y-86184358D01*
X184323302Y-86163854D01*
X184080000Y-86144706D01*
X183836698Y-86163854D01*
X183751294Y-86184358D01*
X183609055Y-86218507D01*
X183609054Y-86218507D01*
X183599388Y-86220828D01*
X183590209Y-86224630D01*
X183590206Y-86224631D01*
X183507254Y-86258991D01*
X183373911Y-86314223D01*
X183365432Y-86319419D01*
X183365430Y-86319420D01*
X183346651Y-86330928D01*
X183165821Y-86441741D01*
X182980241Y-86600241D01*
X182979279Y-86599114D01*
X182906819Y-86647531D01*
X182810000Y-86666789D01*
X182713181Y-86647531D01*
X182640721Y-86599114D01*
X182639759Y-86600241D01*
X182461737Y-86448196D01*
X182461736Y-86448195D01*
X182454179Y-86441741D01*
X182448043Y-86437981D01*
X182381784Y-86366304D01*
X182347615Y-86273690D01*
X182344500Y-86234109D01*
X182344500Y-84934806D01*
X182363758Y-84837987D01*
X182415703Y-84760247D01*
X182419620Y-84757120D01*
X182531664Y-84616766D01*
X182609827Y-84455077D01*
X182650226Y-84280089D01*
X182650500Y-84275337D01*
X182650500Y-84271787D01*
X182652361Y-84258791D01*
X182655202Y-84259198D01*
X182675172Y-84182318D01*
X182734665Y-84103543D01*
X182819774Y-84053532D01*
X182917544Y-84039897D01*
X182931252Y-84041086D01*
X182944848Y-84044225D01*
X182985672Y-84044367D01*
X182985945Y-84044376D01*
X182986922Y-84044500D01*
X183023322Y-84044500D01*
X183024205Y-84044502D01*
X183125335Y-84044855D01*
X183126675Y-84044556D01*
X183127701Y-84044500D01*
X183334109Y-84044500D01*
X183430928Y-84063758D01*
X183513007Y-84118602D01*
X183537547Y-84147336D01*
X183541741Y-84154179D01*
X183548195Y-84161736D01*
X183548196Y-84161737D01*
X183649176Y-84279969D01*
X183700241Y-84339759D01*
X183885821Y-84498259D01*
X183981265Y-84556747D01*
X184085354Y-84620533D01*
X184093911Y-84625777D01*
X184145682Y-84647221D01*
X184310206Y-84715369D01*
X184310209Y-84715370D01*
X184319388Y-84719172D01*
X184329054Y-84721493D01*
X184329055Y-84721493D01*
X184335674Y-84723082D01*
X184556698Y-84776146D01*
X184800000Y-84795294D01*
X185043302Y-84776146D01*
X185264326Y-84723082D01*
X185270945Y-84721493D01*
X185270946Y-84721493D01*
X185280612Y-84719172D01*
X185289791Y-84715370D01*
X185289794Y-84715369D01*
X185454318Y-84647221D01*
X185506089Y-84625777D01*
X185514647Y-84620533D01*
X185618735Y-84556747D01*
X185714179Y-84498259D01*
X185899759Y-84339759D01*
X185949735Y-84281245D01*
X187592001Y-84281245D01*
X187592740Y-84294888D01*
X187597035Y-84334436D01*
X187604318Y-84365064D01*
X187643501Y-84469585D01*
X187660637Y-84500885D01*
X187726285Y-84588479D01*
X187751521Y-84613715D01*
X187839115Y-84679363D01*
X187870415Y-84696499D01*
X187974936Y-84735682D01*
X188005566Y-84742966D01*
X188045095Y-84747260D01*
X188058764Y-84748000D01*
X188821082Y-84748000D01*
X188841866Y-84743866D01*
X188846000Y-84723082D01*
X188846000Y-84723081D01*
X189354000Y-84723081D01*
X189358134Y-84743865D01*
X189378918Y-84747999D01*
X190141245Y-84747999D01*
X190154888Y-84747260D01*
X190194436Y-84742965D01*
X190225064Y-84735682D01*
X190329585Y-84696499D01*
X190360885Y-84679363D01*
X190448479Y-84613715D01*
X190473715Y-84588479D01*
X190539363Y-84500885D01*
X190556499Y-84469585D01*
X190595682Y-84365064D01*
X190602966Y-84334434D01*
X190607260Y-84294905D01*
X190608000Y-84281236D01*
X190608000Y-83518918D01*
X190603866Y-83498134D01*
X190583082Y-83494000D01*
X189378918Y-83494000D01*
X189358134Y-83498134D01*
X189354000Y-83518918D01*
X189354000Y-84723081D01*
X188846000Y-84723081D01*
X188846000Y-83518918D01*
X188841866Y-83498134D01*
X188821082Y-83494000D01*
X187616919Y-83494000D01*
X187596135Y-83498134D01*
X187592001Y-83518918D01*
X187592001Y-84281245D01*
X185949735Y-84281245D01*
X186058259Y-84154179D01*
X186185777Y-83946089D01*
X186279172Y-83720612D01*
X186336146Y-83483302D01*
X186355294Y-83240000D01*
X186336146Y-82996698D01*
X186279172Y-82759388D01*
X186273244Y-82745075D01*
X186189583Y-82543100D01*
X186185777Y-82533911D01*
X186123255Y-82431884D01*
X186089087Y-82339271D01*
X186092962Y-82240632D01*
X186134290Y-82150983D01*
X186168001Y-82116559D01*
X186166988Y-82115546D01*
X186179185Y-82103349D01*
X186192922Y-82092922D01*
X186236578Y-82035408D01*
X186273686Y-81986521D01*
X186273688Y-81986517D01*
X186284113Y-81972783D01*
X186339636Y-81832547D01*
X186346170Y-81778550D01*
X186349585Y-81750336D01*
X186349585Y-81750330D01*
X186350500Y-81742772D01*
X186350500Y-79657228D01*
X186349585Y-79649662D01*
X186346164Y-79621398D01*
X186339636Y-79567453D01*
X186284113Y-79427217D01*
X186273688Y-79413483D01*
X186273686Y-79413479D01*
X186203349Y-79320815D01*
X186192922Y-79307078D01*
X186155665Y-79278798D01*
X186086521Y-79226314D01*
X186086517Y-79226312D01*
X186072783Y-79215887D01*
X185932547Y-79160364D01*
X185878550Y-79153830D01*
X185850336Y-79150415D01*
X185850330Y-79150415D01*
X185842772Y-79149500D01*
X183757228Y-79149500D01*
X183749670Y-79150415D01*
X183749664Y-79150415D01*
X183721450Y-79153830D01*
X183667453Y-79160364D01*
X183527217Y-79215887D01*
X183513483Y-79226312D01*
X183513479Y-79226314D01*
X183444335Y-79278798D01*
X183407078Y-79307078D01*
X183315887Y-79427217D01*
X183313138Y-79425130D01*
X183268057Y-79477629D01*
X183179981Y-79522210D01*
X183081550Y-79529692D01*
X182987747Y-79498937D01*
X182933059Y-79457424D01*
X182329577Y-78853942D01*
X182274733Y-78771863D01*
X182255475Y-78675044D01*
X182274733Y-78578225D01*
X182329577Y-78496146D01*
X182411656Y-78441302D01*
X182435749Y-78432723D01*
X182656068Y-78366625D01*
X182870264Y-78261691D01*
X182878721Y-78255659D01*
X183055992Y-78129213D01*
X183055996Y-78129210D01*
X183064445Y-78123183D01*
X183071796Y-78115858D01*
X183071805Y-78115850D01*
X183109496Y-78078290D01*
X183191670Y-78023590D01*
X183288081Y-78004500D01*
X187061969Y-78004500D01*
X187158788Y-78023758D01*
G37*
%TD.AperFunction*%
%TA.AperFunction,Conductor*%
G36*
X141607428Y-85619758D02*
G01*
X141689507Y-85674602D01*
X143940778Y-87925873D01*
X143942642Y-87927756D01*
X143990852Y-87976986D01*
X144004955Y-87991388D01*
X144016840Y-87999047D01*
X144016843Y-87999050D01*
X144035779Y-88011253D01*
X144056564Y-88026188D01*
X144085228Y-88049070D01*
X144097958Y-88055224D01*
X144097966Y-88055229D01*
X144108241Y-88060196D01*
X144135179Y-88075312D01*
X144156667Y-88089160D01*
X144169954Y-88093996D01*
X144169960Y-88093999D01*
X144191141Y-88101708D01*
X144214721Y-88111669D01*
X144230840Y-88119461D01*
X144247726Y-88127624D01*
X144261502Y-88130805D01*
X144261509Y-88130807D01*
X144272628Y-88133374D01*
X144302236Y-88142144D01*
X144312977Y-88146053D01*
X144312981Y-88146054D01*
X144326271Y-88150891D01*
X144362676Y-88155490D01*
X144387847Y-88159973D01*
X144423588Y-88168225D01*
X144464418Y-88168367D01*
X144464686Y-88168376D01*
X144465662Y-88168500D01*
X144501934Y-88168500D01*
X144502819Y-88168502D01*
X144604075Y-88168856D01*
X144605418Y-88168556D01*
X144606450Y-88168500D01*
X145215449Y-88168500D01*
X145312268Y-88187758D01*
X145394347Y-88242602D01*
X147521398Y-90369653D01*
X147576242Y-90451732D01*
X147595500Y-90548551D01*
X147595500Y-92063684D01*
X147576242Y-92160503D01*
X147521398Y-92242582D01*
X147494419Y-92265994D01*
X147433675Y-92311602D01*
X147426502Y-92319108D01*
X147426501Y-92319109D01*
X147409521Y-92336878D01*
X147268887Y-92484042D01*
X147134475Y-92681082D01*
X147034051Y-92897428D01*
X147031276Y-92907434D01*
X147031275Y-92907437D01*
X147021183Y-92943829D01*
X146970309Y-93127272D01*
X146969205Y-93137604D01*
X146951338Y-93304791D01*
X146944963Y-93364440D01*
X146958694Y-93602562D01*
X147011131Y-93835245D01*
X147100867Y-94056239D01*
X147106288Y-94065086D01*
X147106291Y-94065091D01*
X147177317Y-94180993D01*
X147225493Y-94259609D01*
X147381660Y-94439894D01*
X147505887Y-94543029D01*
X147508608Y-94545288D01*
X147570799Y-94621950D01*
X147598918Y-94716576D01*
X147600000Y-94739946D01*
X147600000Y-95242500D01*
X147580742Y-95339319D01*
X147525898Y-95421398D01*
X147443819Y-95476242D01*
X147347000Y-95495500D01*
X145438031Y-95495500D01*
X145341212Y-95476242D01*
X145259133Y-95421398D01*
X142615862Y-92778127D01*
X142613998Y-92776244D01*
X142561578Y-92722714D01*
X142561576Y-92722712D01*
X142551685Y-92712612D01*
X142520856Y-92692744D01*
X142500073Y-92677809D01*
X142482465Y-92663752D01*
X142482462Y-92663750D01*
X142471412Y-92654929D01*
X142458684Y-92648776D01*
X142458679Y-92648773D01*
X142448391Y-92643800D01*
X142421450Y-92628681D01*
X142411865Y-92622504D01*
X142411866Y-92622504D01*
X142399973Y-92614840D01*
X142386681Y-92610002D01*
X142365501Y-92602293D01*
X142341933Y-92592338D01*
X142308914Y-92576376D01*
X142284012Y-92570627D01*
X142254402Y-92561856D01*
X142243667Y-92557949D01*
X142243666Y-92557949D01*
X142230369Y-92553109D01*
X142193994Y-92548514D01*
X142168786Y-92544024D01*
X142146834Y-92538956D01*
X142133052Y-92535774D01*
X142092211Y-92535632D01*
X142091950Y-92535623D01*
X142090978Y-92535500D01*
X142054864Y-92535500D01*
X142053981Y-92535498D01*
X142054021Y-92535498D01*
X141952565Y-92535144D01*
X141951222Y-92535444D01*
X141950188Y-92535500D01*
X141753391Y-92535500D01*
X141656572Y-92516242D01*
X141574493Y-92461398D01*
X141549953Y-92432664D01*
X141545759Y-92425821D01*
X141538944Y-92417841D01*
X141393715Y-92247800D01*
X141387259Y-92240241D01*
X141207847Y-92087009D01*
X141173474Y-92051259D01*
X141150845Y-92022555D01*
X140107188Y-90978898D01*
X140052344Y-90896819D01*
X140033086Y-90800000D01*
X140652556Y-90800000D01*
X140664329Y-90817619D01*
X141502983Y-91656273D01*
X141520602Y-91668046D01*
X141525621Y-91664692D01*
X141528400Y-91661168D01*
X141630097Y-91495214D01*
X141639096Y-91477553D01*
X141722325Y-91276620D01*
X141728449Y-91257771D01*
X141779217Y-91046308D01*
X141782320Y-91026717D01*
X141799383Y-90809911D01*
X141799383Y-90790089D01*
X141782320Y-90573283D01*
X141779217Y-90553692D01*
X141728449Y-90342229D01*
X141722325Y-90323380D01*
X141639096Y-90122447D01*
X141630097Y-90104786D01*
X141533622Y-89947355D01*
X141519238Y-89931794D01*
X141513571Y-89933884D01*
X141510050Y-89936660D01*
X140664329Y-90782381D01*
X140652556Y-90800000D01*
X140033086Y-90800000D01*
X140052344Y-90703181D01*
X140107188Y-90621102D01*
X141143773Y-89584517D01*
X141151335Y-89573200D01*
X141202845Y-89519625D01*
X141201679Y-89518259D01*
X141379700Y-89366215D01*
X141387259Y-89359759D01*
X141409784Y-89333386D01*
X141487307Y-89272272D01*
X141582317Y-89245477D01*
X141680348Y-89257080D01*
X141766477Y-89305315D01*
X141781064Y-89318799D01*
X143606953Y-91144688D01*
X143661797Y-91226767D01*
X143674865Y-91267965D01*
X143709080Y-91419792D01*
X143709082Y-91419799D01*
X143711363Y-91429920D01*
X143801099Y-91650914D01*
X143806520Y-91659761D01*
X143806523Y-91659766D01*
X143883087Y-91784706D01*
X143925725Y-91854284D01*
X143932521Y-91862129D01*
X143932522Y-91862131D01*
X143961713Y-91895830D01*
X144081892Y-92034569D01*
X144265408Y-92186927D01*
X144471344Y-92307266D01*
X144694169Y-92392355D01*
X144807217Y-92415355D01*
X144917728Y-92437839D01*
X144917729Y-92437839D01*
X144927898Y-92439908D01*
X145166257Y-92448648D01*
X145176559Y-92447328D01*
X145176564Y-92447328D01*
X145392540Y-92419660D01*
X145392544Y-92419659D01*
X145402841Y-92418340D01*
X145631300Y-92349800D01*
X145845496Y-92244866D01*
X145858989Y-92235242D01*
X146031226Y-92112386D01*
X146039677Y-92106358D01*
X146144902Y-92001500D01*
X146201271Y-91945328D01*
X146201275Y-91945324D01*
X146208629Y-91937995D01*
X146214686Y-91929565D01*
X146214690Y-91929561D01*
X146341755Y-91752730D01*
X146347814Y-91744298D01*
X146453495Y-91530470D01*
X146460903Y-91506089D01*
X146519813Y-91312190D01*
X146519814Y-91312186D01*
X146522832Y-91302252D01*
X146553965Y-91065774D01*
X146555703Y-90994675D01*
X146555098Y-90987312D01*
X146537010Y-90767306D01*
X146537009Y-90767302D01*
X146536159Y-90756959D01*
X146528965Y-90728315D01*
X146500859Y-90616423D01*
X146478053Y-90525627D01*
X146382944Y-90306891D01*
X146332718Y-90229253D01*
X146259026Y-90115342D01*
X146259024Y-90115339D01*
X146253387Y-90106626D01*
X146241818Y-90093911D01*
X146099849Y-89937891D01*
X146092861Y-89930211D01*
X145947351Y-89815294D01*
X145913827Y-89788818D01*
X145913823Y-89788815D01*
X145905677Y-89782382D01*
X145761440Y-89702759D01*
X145705952Y-89672128D01*
X145705948Y-89672126D01*
X145696863Y-89667111D01*
X145687075Y-89663645D01*
X145687073Y-89663644D01*
X145481819Y-89590960D01*
X145481820Y-89590960D01*
X145472026Y-89587492D01*
X145461805Y-89585671D01*
X145461800Y-89585670D01*
X145301856Y-89557180D01*
X145237204Y-89545663D01*
X145226824Y-89545536D01*
X145226822Y-89545536D01*
X145103134Y-89544025D01*
X144998703Y-89542749D01*
X144910016Y-89556320D01*
X144773194Y-89577257D01*
X144773190Y-89577258D01*
X144762930Y-89578828D01*
X144753064Y-89582053D01*
X144753050Y-89582056D01*
X144574174Y-89640522D01*
X144476163Y-89652296D01*
X144381107Y-89625667D01*
X144316675Y-89578940D01*
X142435862Y-87698127D01*
X142433998Y-87696244D01*
X142381578Y-87642714D01*
X142381576Y-87642712D01*
X142371685Y-87632612D01*
X142340856Y-87612744D01*
X142320073Y-87597809D01*
X142302465Y-87583752D01*
X142302462Y-87583750D01*
X142291412Y-87574929D01*
X142278684Y-87568776D01*
X142278679Y-87568773D01*
X142268391Y-87563800D01*
X142241450Y-87548681D01*
X142231865Y-87542504D01*
X142231866Y-87542504D01*
X142219973Y-87534840D01*
X142206681Y-87530002D01*
X142185501Y-87522293D01*
X142161933Y-87512338D01*
X142128914Y-87496376D01*
X142104012Y-87490627D01*
X142074402Y-87481856D01*
X142063667Y-87477949D01*
X142063666Y-87477949D01*
X142050369Y-87473109D01*
X142013994Y-87468514D01*
X141988786Y-87464024D01*
X141966834Y-87458956D01*
X141953052Y-87455774D01*
X141912211Y-87455632D01*
X141911950Y-87455623D01*
X141910978Y-87455500D01*
X141874864Y-87455500D01*
X141873981Y-87455498D01*
X141874021Y-87455498D01*
X141772565Y-87455144D01*
X141771222Y-87455444D01*
X141770188Y-87455500D01*
X141753391Y-87455500D01*
X141656572Y-87436242D01*
X141574493Y-87381398D01*
X141549953Y-87352664D01*
X141545759Y-87345821D01*
X141387259Y-87160241D01*
X141201679Y-87001741D01*
X141039992Y-86902659D01*
X141002070Y-86879420D01*
X141002068Y-86879419D01*
X140993589Y-86874223D01*
X140821375Y-86802890D01*
X140777294Y-86784631D01*
X140777291Y-86784630D01*
X140768112Y-86780828D01*
X140758446Y-86778507D01*
X140758445Y-86778507D01*
X140664745Y-86756011D01*
X140530802Y-86723854D01*
X140287500Y-86704706D01*
X140044198Y-86723854D01*
X139910255Y-86756011D01*
X139816555Y-86778507D01*
X139816554Y-86778507D01*
X139806888Y-86780828D01*
X139797709Y-86784630D01*
X139797706Y-86784631D01*
X139753625Y-86802890D01*
X139581411Y-86874223D01*
X139572932Y-86879419D01*
X139572930Y-86879420D01*
X139535008Y-86902659D01*
X139373321Y-87001741D01*
X139365761Y-87008198D01*
X139221032Y-87131808D01*
X139134903Y-87180042D01*
X139036872Y-87191645D01*
X138941862Y-87164850D01*
X138877980Y-87118479D01*
X138830893Y-87071474D01*
X138807978Y-87053377D01*
X138682536Y-86976054D01*
X138656077Y-86963716D01*
X138515376Y-86917047D01*
X138488509Y-86911287D01*
X138404293Y-86902659D01*
X138391404Y-86902000D01*
X138026418Y-86902000D01*
X138005634Y-86906134D01*
X138001500Y-86926918D01*
X138001500Y-88261000D01*
X137982242Y-88357819D01*
X137927398Y-88439898D01*
X137845319Y-88494742D01*
X137748500Y-88514000D01*
X137746500Y-88514000D01*
X137649681Y-88494742D01*
X137567602Y-88439898D01*
X137512758Y-88357819D01*
X137493500Y-88261000D01*
X137493500Y-86926919D01*
X137489366Y-86906135D01*
X137468582Y-86902001D01*
X137346530Y-86902001D01*
X137249711Y-86882743D01*
X137167632Y-86827899D01*
X137112788Y-86745820D01*
X137093530Y-86649001D01*
X137112788Y-86552182D01*
X137167632Y-86470103D01*
X137963133Y-85674602D01*
X138045212Y-85619758D01*
X138142031Y-85600500D01*
X141510609Y-85600500D01*
X141607428Y-85619758D01*
G37*
%TD.AperFunction*%
%TA.AperFunction,Conductor*%
G36*
X160054319Y-88759740D02*
G01*
X160121810Y-88801099D01*
X160305821Y-88958259D01*
X160513911Y-89085777D01*
X160604310Y-89123221D01*
X160730206Y-89175369D01*
X160730209Y-89175370D01*
X160739388Y-89179172D01*
X160749054Y-89181493D01*
X160749055Y-89181493D01*
X160967025Y-89233824D01*
X160967029Y-89233825D01*
X160976698Y-89236146D01*
X161033483Y-89240615D01*
X161056464Y-89242424D01*
X161151473Y-89269220D01*
X161215511Y-89315746D01*
X163717611Y-91817846D01*
X163772455Y-91899925D01*
X163791713Y-91996744D01*
X163772455Y-92093563D01*
X163717611Y-92175642D01*
X163635532Y-92230486D01*
X163550294Y-92249479D01*
X163549814Y-92249501D01*
X163544008Y-92249501D01*
X163522577Y-92251470D01*
X163484779Y-92254942D01*
X163484775Y-92254943D01*
X163471406Y-92256171D01*
X163458596Y-92260185D01*
X163458593Y-92260186D01*
X163358573Y-92291531D01*
X163309617Y-92306873D01*
X163296574Y-92314772D01*
X163296572Y-92314773D01*
X163177641Y-92386800D01*
X163164592Y-92394703D01*
X163044703Y-92514592D01*
X163036801Y-92527639D01*
X163036800Y-92527641D01*
X162965120Y-92646000D01*
X162956873Y-92659617D01*
X162952313Y-92674168D01*
X162912196Y-92802181D01*
X162906171Y-92821406D01*
X162899500Y-92894007D01*
X162899500Y-92965864D01*
X162880242Y-93062683D01*
X162825398Y-93144762D01*
X161607248Y-94362912D01*
X161593637Y-94374537D01*
X161593855Y-94374779D01*
X161583996Y-94383656D01*
X161573272Y-94391448D01*
X161528511Y-94441160D01*
X161519411Y-94450749D01*
X161475762Y-94494398D01*
X161393683Y-94549242D01*
X161296864Y-94568500D01*
X160932428Y-94568500D01*
X160835609Y-94549242D01*
X160753530Y-94494398D01*
X160698686Y-94412319D01*
X160679428Y-94315500D01*
X160689475Y-94244912D01*
X160701456Y-94203673D01*
X160706080Y-94178359D01*
X160707610Y-94158916D01*
X160708000Y-94148985D01*
X160708000Y-93778918D01*
X160703866Y-93758134D01*
X160683082Y-93754000D01*
X159899000Y-93754000D01*
X159802181Y-93734742D01*
X159720102Y-93679898D01*
X159665258Y-93597819D01*
X159646000Y-93501000D01*
X159646000Y-93499000D01*
X159665258Y-93402181D01*
X159720102Y-93320102D01*
X159802181Y-93265258D01*
X159899000Y-93246000D01*
X160683081Y-93246000D01*
X160703865Y-93241866D01*
X160707999Y-93221082D01*
X160707999Y-92851002D01*
X160707610Y-92841104D01*
X160706079Y-92821638D01*
X160701457Y-92796331D01*
X160663122Y-92664384D01*
X160650579Y-92635399D01*
X160582159Y-92519705D01*
X160562799Y-92494746D01*
X160467754Y-92399701D01*
X160442795Y-92380341D01*
X160327101Y-92311921D01*
X160298116Y-92299378D01*
X160166170Y-92261043D01*
X160140859Y-92256420D01*
X160121416Y-92254890D01*
X160111484Y-92254500D01*
X160053500Y-92254500D01*
X159956681Y-92235242D01*
X159874602Y-92180398D01*
X159819758Y-92098319D01*
X159800500Y-92001500D01*
X159800499Y-90987312D01*
X159800499Y-90981508D01*
X159798503Y-90959779D01*
X159795058Y-90922279D01*
X159795057Y-90922275D01*
X159793829Y-90908906D01*
X159781053Y-90868136D01*
X159747687Y-90761668D01*
X159743127Y-90747117D01*
X159735226Y-90734070D01*
X159728951Y-90720174D01*
X159732026Y-90718785D01*
X159707409Y-90650952D01*
X159704500Y-90612698D01*
X159704500Y-88993482D01*
X159723758Y-88896663D01*
X159778602Y-88814584D01*
X159860681Y-88759740D01*
X159957500Y-88740482D01*
X160054319Y-88759740D01*
G37*
%TD.AperFunction*%
%TA.AperFunction,Conductor*%
G36*
X198988683Y-82381500D02*
G01*
X200789393Y-82381500D01*
X200886212Y-82400758D01*
X200968291Y-82455602D01*
X201794398Y-83281709D01*
X201849242Y-83363788D01*
X201868500Y-83460607D01*
X201868500Y-84409364D01*
X201849242Y-84506183D01*
X201794398Y-84588262D01*
X200124262Y-86258398D01*
X200042183Y-86313242D01*
X199945364Y-86332500D01*
X199911000Y-86332500D01*
X199814181Y-86313242D01*
X199732102Y-86258398D01*
X199677258Y-86176319D01*
X199658000Y-86079500D01*
X199658000Y-85916418D01*
X199653866Y-85895634D01*
X199633082Y-85891500D01*
X198849000Y-85891500D01*
X198752181Y-85872242D01*
X198670102Y-85817398D01*
X198615258Y-85735319D01*
X198596000Y-85638500D01*
X198596000Y-85636500D01*
X198615258Y-85539681D01*
X198670102Y-85457602D01*
X198752181Y-85402758D01*
X198849000Y-85383500D01*
X199633081Y-85383500D01*
X199653865Y-85379366D01*
X199657999Y-85358582D01*
X199657999Y-84988502D01*
X199657610Y-84978604D01*
X199656079Y-84959138D01*
X199651457Y-84933831D01*
X199613122Y-84801884D01*
X199600579Y-84772899D01*
X199532159Y-84657205D01*
X199512799Y-84632246D01*
X199417754Y-84537201D01*
X199392795Y-84517841D01*
X199277101Y-84449421D01*
X199248116Y-84436878D01*
X199116170Y-84398543D01*
X199090859Y-84393920D01*
X199071416Y-84392390D01*
X199061484Y-84392000D01*
X199003500Y-84392000D01*
X198906681Y-84372742D01*
X198824602Y-84317898D01*
X198769758Y-84235819D01*
X198750500Y-84139000D01*
X198750499Y-83124812D01*
X198750499Y-83119008D01*
X198743829Y-83046406D01*
X198733204Y-83012500D01*
X198697687Y-82899168D01*
X198693127Y-82884617D01*
X198669982Y-82846399D01*
X198647193Y-82808770D01*
X198611643Y-82750070D01*
X198577961Y-82657279D01*
X198582353Y-82558661D01*
X198624150Y-82469231D01*
X198696989Y-82402603D01*
X198789781Y-82368921D01*
X198854494Y-82367396D01*
X198988683Y-82381500D01*
G37*
%TD.AperFunction*%
%TD*%
M02*
